<?xml version="1.0" encoding="utf-8"?>
<!-- Generator: Adobe Illustrator 19.1.0, SVG Export Plug-In . SVG Version: 6.00 Build 0)  -->
<svg version="1.1" xmlns="http://www.w3.org/2000/svg" xmlns:xlink="http://www.w3.org/1999/xlink" x="0px" y="0px"
	 viewBox="303 -183.5 1006 754" style="enable-background:new 303 -183.5 1006 754;" xml:space="preserve">
<style type="text/css">
	.st0{display:none;}
	.st1{display:none;opacity:0.82;enable-background:new    ;}
	.st2{display:inline;}
	.st3{clip-path:url(#SVGID_2_);}
	.st4{fill:#838BC5;}
	.st5{fill:#F5F9FC;}
	.st6{fill:#F7E2D0;}
	.st7{fill:#C5D1D1;}
	.st8{display:inline;fill:#838BC5;}
	.st9{fill:#E4F9F7;}
</style>
<g id="Capa_2">
</g>
<g id="Capa_1">
	<g id="Img">
	</g>
	<g id="Ini-D1" class="st0">
	</g>
	<g id="Ini-R-1" class="st0">
	</g>
	<g id="Ini-D-2">
	</g>
	<g id="Ini-R-2" class="st0">
	</g>
	<g id="Ini-D3">
	</g>
	<g id="Ini-R-3">
	</g>
	<g id="Ini-04" class="st0">
	</g>
	<g id="Ini-R-4" class="st0">
	</g>
	<g id="_x34_04-D1" class="st0">
	</g>
	<g id="_x34_04-D2">
		<g class="st1">
			<g class="st2">
				<defs>
					<rect id="SVGID_1_" x="-218.5" y="-265.9" width="1920" height="937.5"/>
				</defs>
				<clipPath id="SVGID_2_">
					<use xlink:href="#SVGID_1_"  style="overflow:visible;"/>
				</clipPath>
				<g class="st3">
					
						<image style="overflow:visible;enable-background:new    ;" width="1922" height="1282" xlink:href="19A070EC.png"  transform="matrix(1 0 0 1 -219 -398.9026)">
					</image>
				</g>
			</g>
		</g>
		<g>
			<path class="st4" d="M641.2,101.3c0,5-1.3,8.9-4,11.8s-6.3,4.8-10.9,5.8c-9,2.1-17.9,3.6-26.5,4.3c-0.8,7.5-1.4,14.9-2,22.3
				c-0.6,7.4-1.2,14.7-1.7,22c-0.4,3.5-0.8,8.2-1.2,14.3c-0.4,6-1.3,12-2.7,17.7c-1.4,5.8-3.6,10.8-6.3,15.1
				c-2.8,4.3-6.6,6.5-11.4,6.5c-4.6,0-8.2-2-10.8-6c-2.6-4-4.6-8.7-5.9-14.1c-1.3-5.4-2.2-10.8-2.6-16.3c-0.4-5.5-0.6-9.7-0.6-12.8
				c0-7.9,0.2-15.6,0.7-23.2s0.9-15.2,1.3-22.9c-5,0.4-10,0.6-15,0.7s-10,0.1-15,0.1c-2.3,0-5.2,0-8.6-0.1
				c-3.5-0.1-6.9-0.3-10.4-0.7c-3.5-0.4-6.7-1.1-9.6-2.2c-3-1.1-5.1-2.6-6.5-4.8c-1-1.3-1.7-3.7-2.2-7.1s-0.9-7-1.2-10.9
				s-0.4-7.7-0.4-11.4c0-3.6,0-6.3,0-8.1c0-4.4,0-8.7,0-13c0-4.2,0.2-8.5,0.6-13c0.2-4.2,0.4-9.3,0.7-15.1
				c0.3-5.9,1.2-11.5,2.9-16.8c1.6-5.4,4-10,7.2-13.8s7.7-5.8,13.7-5.8c3.6,0,6.6,1.7,8.8,5.2c2.2,3.5,3.9,7.5,5.2,12.1
				c1.2,4.6,2.1,9.3,2.4,14c0.4,4.7,0.6,8.3,0.6,10.8c0,5.8-0.2,11.5-0.7,17.3s-1.2,11.4-2.2,17c5.6-0.4,11.1-0.7,16.6-1
				s11-0.6,16.6-1c0.2-1.9,0.5-5.8,1-11.7c0.5-5.9,1.1-12.1,1.9-18.7s1.5-12.8,2.3-18.6c0.8-5.8,1.5-9.5,2.3-11.2
				c1.5-3.6,3.9-6.7,7.2-9.1s7-3.6,11.2-3.6c5,0,8.5,1.5,10.7,4.6c2.1,3.1,3.6,6.7,4.3,10.9c1,5.4,1.5,10.9,1.7,16.7
				c0.2,5.8,0.3,11.4,0.3,17c0,8.3-0.3,16.5-0.9,24.8c4.2,0.4,8.4,0.9,12.4,1.4c4,0.6,8.2,1.3,12.4,2.3c4.6,1,8.2,3.1,10.7,6.3
				C640,92.8,641.2,96.7,641.2,101.3z"/>
			<path class="st4" d="M818.8,117.5c0,13.1-2,26.2-5.9,39.3c-3.9,13.2-9.7,25.1-17.3,35.7c-7.6,10.7-17,19.3-28.4,25.9
				c-11.3,6.6-24.4,9.9-39.2,9.9c-12.5,0-23.7-3.3-33.7-9.8s-18.5-14.8-25.5-24.9s-12.4-21.1-16.1-33.1c-3.7-12-5.6-23.6-5.6-34.7
				c0-7.9,1.1-16.1,3.2-24.8c2.1-8.6,5.1-17.2,9.1-25.6c3.9-8.4,8.6-16.6,14.1-24.3c5.5-7.8,11.6-14.6,18.4-20.4
				c6.8-5.9,14.2-10.5,22.2-14s16.3-5.2,24.9-5.2c14.8,0,27.3,3.2,37.4,9.5c10.2,6.3,18.4,14.5,24.6,24.6s10.8,21.4,13.5,34
				C817.4,92.2,818.8,104.8,818.8,117.5z M777,116c0-4.8-0.7-10.5-2-17s-3.4-12.7-6.2-18.4c-2.8-5.8-6.4-10.7-10.8-14.7
				s-9.7-6-15.8-6c-7.5,0-14.2,2.4-20,7.1c-5.9,4.7-10.8,10.5-14.8,17.4s-7.2,14.3-9.4,22.2c-2.2,7.9-3.3,15-3.3,21.3
				c0,5,0.7,10.7,2,17c1.3,6.3,3.5,12.3,6.3,18c2.9,5.7,6.6,10.5,11.1,14.4s9.8,5.9,16,5.9c7.5,0,14.2-2.3,20-7.1
				c5.9-4.7,10.8-10.5,14.7-17.3s7-14.1,9.1-21.9S777,122.2,777,116z"/>
			<path class="st4" d="M994.6,101.3c0,5-1.3,8.9-4,11.8s-6.3,4.8-10.9,5.8c-9,2.1-17.9,3.6-26.5,4.3c-0.8,7.5-1.4,14.9-2,22.3
				s-1.2,14.7-1.7,22c-0.4,3.5-0.8,8.2-1.2,14.3c-0.4,6-1.3,12-2.7,17.7c-1.4,5.8-3.6,10.8-6.3,15.1c-2.8,4.3-6.6,6.5-11.4,6.5
				c-4.6,0-8.2-2-10.8-6s-4.6-8.7-5.9-14.1c-1.3-5.4-2.2-10.8-2.6-16.3c-0.4-5.5-0.6-9.7-0.6-12.8c0-7.9,0.2-15.6,0.7-23.2
				s0.9-15.2,1.3-22.9c-5,0.4-10,0.6-15,0.7s-10,0.1-15,0.1c-2.3,0-5.2,0-8.6-0.1c-3.5-0.1-6.9-0.3-10.4-0.7
				c-3.5-0.4-6.7-1.1-9.6-2.2c-3-1.1-5.1-2.6-6.5-4.8c-1-1.3-1.7-3.7-2.2-7.1s-0.9-7-1.2-10.9s-0.4-7.7-0.4-11.4c0-3.6,0-6.3,0-8.1
				c0-4.4,0-8.7,0-13c0-4.2,0.2-8.5,0.6-13c0.2-4.2,0.4-9.3,0.7-15.1c0.3-5.9,1.2-11.5,2.9-16.8c1.6-5.4,4-10,7.2-13.8
				s7.7-5.8,13.7-5.8c3.6,0,6.6,1.7,8.8,5.2s3.9,7.5,5.2,12.1c1.2,4.6,2.1,9.3,2.4,14c0.4,4.7,0.6,8.3,0.6,10.8
				c0,5.8-0.2,11.5-0.7,17.3s-1.2,11.4-2.2,17c5.6-0.4,11.1-0.7,16.6-1s11-0.6,16.6-1c0.2-1.9,0.5-5.8,1-11.7
				c0.5-5.9,1.1-12.1,1.9-18.7c0.8-6.6,1.5-12.8,2.3-18.6c0.8-5.8,1.5-9.5,2.3-11.2c1.5-3.6,3.9-6.7,7.2-9.1s7-3.6,11.2-3.6
				c5,0,8.5,1.5,10.7,4.6c2.1,3.1,3.6,6.7,4.3,10.9c1,5.4,1.5,10.9,1.7,16.7c0.2,5.8,0.3,11.4,0.3,17c0,8.3-0.3,16.5-0.9,24.8
				c4.2,0.4,8.4,0.9,12.4,1.4c4,0.6,8.2,1.3,12.4,2.3c4.6,1,8.2,3.1,10.7,6.3C993.4,92.8,994.6,96.7,994.6,101.3z"/>
			<path class="st5" d="M634.7,94.9c0,5-1.3,8.9-4,11.8s-6.3,4.8-10.9,5.8c-9,2.1-17.9,3.6-26.5,4.3c-0.8,7.5-1.4,14.9-2,22.3
				c-0.6,7.4-1.2,14.7-1.7,22c-0.4,3.5-0.8,8.2-1.2,14.3c-0.4,6-1.3,12-2.7,17.7c-1.4,5.8-3.6,10.8-6.3,15.1
				c-2.8,4.3-6.6,6.5-11.4,6.5c-4.6,0-8.2-2-10.8-6c-2.6-4-4.6-8.7-5.9-14.1s-2.2-10.8-2.6-16.3c-0.4-5.5-0.6-9.7-0.6-12.8
				c0-7.9,0.2-15.6,0.7-23.2s0.9-15.2,1.3-22.9c-5,0.4-10,0.6-15,0.7s-10,0.1-15,0.1c-2.3,0-5.2,0-8.6-0.1
				c-3.5-0.1-6.9-0.3-10.4-0.7c-3.5-0.4-6.7-1.1-9.6-2.2c-3-1.1-5.1-2.6-6.5-4.8c-1-1.3-1.7-3.7-2.2-7.1s-0.9-7-1.2-10.9
				c-0.3-3.9-0.4-7.7-0.4-11.4c0-3.6,0-6.3,0-8.1c0-4.4,0-8.7,0-13c0-4.2,0.2-8.5,0.6-13c0.2-4.2,0.4-9.3,0.7-15.1
				c0.3-5.9,1.2-11.5,2.9-16.8c1.6-5.4,4-10,7.2-13.8c3.2-3.8,7.7-5.8,13.7-5.8c3.6,0,6.6,1.7,8.8,5.2c2.2,3.5,3.9,7.5,5.2,12.1
				c1.2,4.6,2.1,9.3,2.4,14c0.4,4.7,0.6,8.3,0.6,10.8c0,5.8-0.2,11.5-0.7,17.3s-1.2,11.4-2.2,17c5.6-0.4,11.1-0.7,16.6-1
				s11-0.6,16.6-1c0.2-1.9,0.5-5.8,1-11.7c0.5-5.9,1.1-12.1,1.9-18.7s1.5-12.8,2.3-18.6c0.8-5.8,1.5-9.5,2.3-11.2
				c1.5-3.6,3.9-6.7,7.2-9.1c3.3-2.4,7-3.6,11.2-3.6c5,0,8.5,1.5,10.7,4.6c2.1,3.1,3.6,6.7,4.3,10.9c1,5.4,1.5,10.9,1.7,16.7
				c0.2,5.8,0.3,11.4,0.3,17c0,8.3-0.3,16.5-0.9,24.8c4.2,0.4,8.4,0.9,12.4,1.4c4,0.6,8.2,1.3,12.4,2.3c4.6,1,8.2,3.1,10.7,6.3
				C633.5,86.3,634.7,90.2,634.7,94.9z"/>
			<path class="st5" d="M812.3,111c0,13.1-2,26.2-5.9,39.3c-3.9,13.2-9.7,25.1-17.3,35.7c-7.6,10.7-17,19.3-28.4,25.9
				c-11.3,6.6-24.4,9.9-39.2,9.9c-12.5,0-23.7-3.3-33.7-9.8s-18.5-14.8-25.5-24.9S649.9,166,646.2,154c-3.7-12-5.6-23.6-5.6-34.7
				c0-7.9,1.1-16.1,3.2-24.8c2.1-8.6,5.1-17.2,9.1-25.6c3.9-8.4,8.6-16.6,14.1-24.3c5.5-7.8,11.6-14.6,18.4-20.4
				c6.8-5.9,14.2-10.5,22.2-14S723.9,5,732.5,5c14.8,0,27.3,3.2,37.4,9.5c10.2,6.3,18.4,14.5,24.6,24.6s10.8,21.4,13.5,34
				C810.9,85.7,812.3,98.3,812.3,111z M770.5,109.5c0-4.8-0.7-10.5-2-17s-3.4-12.7-6.2-18.4c-2.8-5.8-6.4-10.7-10.8-14.7
				s-9.7-6-15.8-6c-7.5,0-14.2,2.4-20,7.1c-5.9,4.7-10.8,10.5-14.8,17.4s-7.2,14.3-9.4,22.2c-2.2,7.9-3.3,15-3.3,21.3
				c0,5,0.7,10.7,2,17c1.3,6.3,3.5,12.3,6.3,18c2.9,5.7,6.6,10.5,11.1,14.4s9.8,5.9,16,5.9c7.5,0,14.2-2.3,20-7.1
				c5.9-4.7,10.8-10.5,14.7-17.3s7-14.1,9.1-21.9C769.5,122.7,770.5,115.7,770.5,109.5z"/>
			<path class="st5" d="M988.1,94.9c0,5-1.3,8.9-4,11.8s-6.3,4.8-10.9,5.8c-9,2.1-17.9,3.6-26.5,4.3c-0.8,7.5-1.4,14.9-2,22.3
				s-1.2,14.7-1.7,22c-0.4,3.5-0.8,8.2-1.2,14.3c-0.4,6-1.3,12-2.7,17.7c-1.4,5.8-3.6,10.8-6.3,15.1c-2.8,4.3-6.6,6.5-11.4,6.5
				c-4.6,0-8.2-2-10.8-6s-4.6-8.7-5.9-14.1c-1.3-5.4-2.2-10.8-2.6-16.3c-0.4-5.5-0.6-9.7-0.6-12.8c0-7.9,0.2-15.6,0.7-23.2
				s0.9-15.2,1.3-22.9c-5,0.4-10,0.6-15,0.7s-10,0.1-15,0.1c-2.3,0-5.2,0-8.6-0.1c-3.5-0.1-6.9-0.3-10.4-0.7
				c-3.5-0.4-6.7-1.1-9.6-2.2c-3-1.1-5.1-2.6-6.5-4.8c-1-1.3-1.7-3.7-2.2-7.1s-0.9-7-1.2-10.9s-0.4-7.7-0.4-11.4c0-3.6,0-6.3,0-8.1
				c0-4.4,0-8.7,0-13c0-4.2,0.2-8.5,0.6-13c0.2-4.2,0.4-9.3,0.7-15.1c0.3-5.9,1.2-11.5,2.9-16.8c1.6-5.4,4-10,7.2-13.8
				s7.7-5.8,13.7-5.8c3.6,0,6.6,1.7,8.8,5.2s3.9,7.5,5.2,12.1c1.2,4.6,2.1,9.3,2.4,14c0.4,4.7,0.6,8.3,0.6,10.8
				c0,5.8-0.2,11.5-0.7,17.3s-1.2,11.4-2.2,17c5.6-0.4,11.1-0.7,16.6-1s11-0.6,16.6-1c0.2-1.9,0.5-5.8,1-11.7
				c0.5-5.9,1.1-12.1,1.9-18.7c0.8-6.6,1.5-12.8,2.3-18.6c0.8-5.8,1.5-9.5,2.3-11.2c1.5-3.6,3.9-6.7,7.2-9.1s7-3.6,11.2-3.6
				c5,0,8.5,1.5,10.7,4.6c2.1,3.1,3.6,6.7,4.3,10.9c1,5.4,1.5,10.9,1.7,16.7c0.2,5.8,0.3,11.4,0.3,17c0,8.3-0.3,16.5-0.9,24.8
				c4.2,0.4,8.4,0.9,12.4,1.4c4,0.6,8.2,1.3,12.4,2.3c4.6,1,8.2,3.1,10.7,6.3C986.9,86.3,988.1,90.2,988.1,94.9z"/>
			<g>
				<path class="st5" d="M856.9,514.6c-1.6,0-3.1-0.8-4-2.2c-1.5-2.2-0.9-5.2,1.3-6.7c3-2,6-4.2,8.9-6.4c2.1-1.6,5.2-1.3,6.8,0.9
					c1.6,2.1,1.3,5.2-0.9,6.8c-3.1,2.4-6.3,4.7-9.5,6.8C858.7,514.3,857.8,514.6,856.9,514.6z"/>
			</g>
			<g>
				<path class="st5" d="M775,537.3c-0.2,0-0.4,0-0.5,0c-8.2-0.9-16-2.8-23.1-5.7c-2.5-1-3.7-3.8-2.7-6.3s3.8-3.7,6.3-2.7
					c6.2,2.5,13.1,4.2,20.5,5c2.7,0.3,4.6,2.7,4.3,5.4C779.5,535.4,777.4,537.3,775,537.3z M806.9,535.7c-2.3,0-4.3-1.6-4.8-3.9
					c-0.5-2.6,1.2-5.2,3.8-5.7c6.9-1.4,13.9-3.4,20.7-6c2.5-1,5.3,0.3,6.3,2.8s-0.3,5.3-2.8,6.3c-7.4,2.9-14.9,5-22.4,6.5
					C807.5,535.7,807.2,535.7,806.9,535.7z M600.8,514.6c-2.7,0-4.8-2.1-4.9-4.8c0-2.7,2.1-4.9,4.8-4.9c7.3-0.1,14.7-0.3,22.2-0.8
					c2.7-0.2,5,1.9,5.1,4.6c0.2,2.7-1.9,5-4.6,5.1C616,514.2,608.3,514.5,600.8,514.6C600.9,514.6,600.8,514.6,600.8,514.6z
					 M568.8,513.5c-0.1,0-0.2,0-0.4,0c-7.7-0.6-15.3-1.4-22.7-2.4c-2.7-0.4-4.5-2.8-4.1-5.5c0.4-2.7,2.8-4.5,5.5-4.1
					c7.1,1,14.5,1.8,22,2.4c2.7,0.2,4.7,2.5,4.5,5.2C573.4,511.6,571.3,513.5,568.8,513.5z M727.8,513c-1.5,0-2.9-0.7-3.9-1.9
					c-2.7-3.6-5.2-7.5-7.3-11.7c-0.5,0.1-1,0.2-1.4,0.3l-5.1,1.2c-2.6,0.6-5.2-1-5.8-3.6c-0.6-2.6,1-5.2,3.6-5.8l4.8-1.1
					c0-0.1-0.1-0.1-0.1-0.2c-0.9-2.5,0.4-5.3,2.9-6.2s5.3,0.4,6.2,2.9c0.2,0.4,0.3,0.9,0.5,1.3c2.3-0.6,4.8-1.2,7.4-1.9
					c2.6-0.7,5.3,0.8,5.9,3.4c0.7,2.6-0.8,5.3-3.4,5.9c-2,0.5-3.9,1-5.7,1.5c1.6,2.9,3.4,5.7,5.3,8.2c1.6,2.1,1.2,5.2-0.9,6.8
					C729.8,512.6,728.8,513,727.8,513z M655.3,510.8c-2.4,0-4.5-1.8-4.8-4.2c-0.3-2.7,1.5-5.1,4.2-5.4c7.2-0.9,14.6-2,22-3.3
					c2.6-0.5,5.2,1.3,5.6,4c0.5,2.6-1.3,5.2-4,5.6c-7.5,1.3-15.1,2.4-22.4,3.4C655.7,510.7,655.5,510.8,655.3,510.8z M514.9,505
					c-0.4,0-0.8,0-1.2-0.1c-7.5-1.9-14.9-4.1-21.9-6.5c-2.5-0.9-3.9-3.6-3-6.2c0.9-2.5,3.6-3.9,6.2-3c6.8,2.3,13.9,4.5,21.1,6.3
					c2.6,0.7,4.2,3.3,3.5,5.9C519.1,503.5,517.1,505,514.9,505z M463.8,486.2c-0.7,0-1.5-0.2-2.2-0.5c-6.9-3.4-13.6-7.3-20-11.3
					c-2.3-1.4-2.9-4.4-1.5-6.7s4.4-2.9,6.7-1.5c6.1,3.9,12.5,7.5,19.1,10.8c2.4,1.2,3.4,4.1,2.2,6.5
					C467.3,485.2,465.6,486.2,463.8,486.2z M761.3,485.6c-1.9,0-3.7-1.1-4.5-3c-1-2.5,0.2-5.3,2.6-6.3c7.6-3.1,14-6.4,19.1-9.9
					c2.2-1.5,5.2-0.9,6.7,1.3s0.9,5.2-1.3,6.7c-5.6,3.8-12.6,7.4-20.8,10.8C762.6,485.5,762,485.6,761.3,485.6z M711.8,461.8h-0.1
					c-2.7-0.1-4.8-2.3-4.7-5c0.2-8.8,1.9-16.7,4.9-23.7c1.1-2.5,3.9-3.6,6.4-2.5s3.6,3.9,2.5,6.4c-2.5,5.8-3.9,12.6-4.1,20.1
					C716.6,459.7,714.5,461.8,711.8,461.8z M418.6,455.9c-1.1,0-2.3-0.4-3.2-1.2c-5.7-5-11.3-10.4-16.5-16c-1.8-2-1.7-5,0.3-6.9
					c2-1.8,5-1.7,6.9,0.3c5,5.4,10.3,10.5,15.7,15.3c2,1.8,2.2,4.8,0.5,6.8C421.3,455.4,419.9,455.9,418.6,455.9z M798.2,449.8
					c-2.6,0-4.8-2.1-4.8-4.7c-0.2-7.2-5-13.8-7.8-17.1c-1.7-2-1.5-5.1,0.5-6.8s5.1-1.5,6.8,0.5c4.5,5.2,9.9,13.5,10.2,23.2
					c0.1,2.7-2,4.9-4.7,5C798.3,449.8,798.3,449.8,798.2,449.8z M739.1,418.7c-2,0-3.9-1.2-4.6-3.2c-0.9-2.5,0.4-5.3,2.9-6.2
					c7.5-2.7,16-3.8,24.2-3.1c2.7,0.2,4.6,2.6,4.4,5.3s-2.6,4.6-5.3,4.4c-6.8-0.6-13.8,0.3-20,2.6
					C740.2,418.6,739.6,418.7,739.1,418.7z M382.3,415.3c-1.5,0-3-0.7-4-2.1c-4.4-6.2-8.5-12.6-12.4-19.2c-1.4-2.3-0.6-5.3,1.7-6.6
					c2.3-1.4,5.3-0.6,6.6,1.7c3.8,6.3,7.8,12.6,12,18.5c1.5,2.2,1,5.2-1.2,6.8C384.3,415,383.3,415.3,382.3,415.3z M355.4,367.9
					c-1.9,0-3.6-1.1-4.4-2.9c-3.2-7.1-5.9-14.3-8.3-21.4c-0.8-2.5,0.5-5.3,3.1-6.1c2.5-0.9,5.3,0.5,6.1,3.1c2.2,6.8,4.9,13.7,8,20.5
					c1.1,2.5,0,5.3-2.5,6.4C356.7,367.8,356.1,367.9,355.4,367.9z M339.6,315.8c-2.4,0-4.4-1.7-4.8-4.1c-1.2-7.9-1.9-15.6-1.9-23.1
					c0-2.7,2.1-4.9,4.8-4.9l0,0c2.7,0,4.8,2.2,4.9,4.8c0,7,0.6,14.3,1.8,21.7c0.4,2.6-1.4,5.1-4,5.5
					C340.1,315.8,339.9,315.8,339.6,315.8z M913.8,281.7c-0.1,0-0.2,0-0.3,0c-2.7-0.2-4.7-2.4-4.6-5.1c0.1-2,0.2-3.8,0.2-5.7
					c0-5.4-0.4-10.6-1.3-15.6c-0.5-2.6,1.3-5.2,3.9-5.6c2.7-0.4,5.2,1.3,5.6,3.9c1,5.5,1.5,11.3,1.5,17.3c0,2-0.1,4.1-0.2,6.2
					C918.5,279.7,916.3,281.7,913.8,281.7z M341.7,261.7c-0.4,0-0.8-0.1-1.3-0.2c-2.6-0.7-4.1-3.4-3.4-5.9c2-7.6,4.9-15,8.5-21.9
					c1.2-2.4,4.2-3.3,6.5-2.1c2.4,1.2,3.3,4.2,2.1,6.5c-3.2,6.3-5.8,13-7.7,19.9C345.8,260.2,343.8,261.7,341.7,261.7z M901.4,229.5
					c-1.6,0-3.3-0.8-4.2-2.4c-3.5-5.9-7.9-11.6-13-16.9c-1.9-1.9-1.8-5,0.1-6.9c1.9-1.9,5-1.8,6.9,0.1c5.6,5.8,10.4,12.1,14.3,18.6
					c1.4,2.3,0.6,5.3-1.7,6.7C903.1,229.3,902.2,229.5,901.4,229.5z M368.8,215.1c-1.3,0-2.5-0.5-3.5-1.5c-1.9-1.9-1.8-5,0.1-6.9
					c5.4-5.2,11.5-10.1,18.3-14.5c2.2-1.5,5.3-0.8,6.7,1.4c1.5,2.2,0.8,5.3-1.4,6.7c-6.2,4.1-11.9,8.6-16.8,13.3
					C371.2,214.7,370,215.1,368.8,215.1z M862.8,191.6c-0.9,0-1.8-0.2-2.6-0.8c-5.9-3.7-12.3-7.3-19.2-10.5c-2.4-1.2-3.5-4-2.3-6.5
					c1.2-2.4,4-3.4,6.5-2.3c7.2,3.4,14,7.2,20.2,11.1c2.3,1.4,2.9,4.4,1.5,6.7C865.9,190.8,864.4,191.6,862.8,191.6z M414.9,186.6
					c-1.9,0-3.7-1.2-4.5-3c-1-2.5,0.2-5.3,2.7-6.3c6.6-2.7,13.7-5.1,21.6-7.6c2.6-0.8,5.3,0.6,6.1,3.2c0.8,2.6-0.6,5.3-3.2,6.1
					c-7.6,2.4-14.4,4.7-20.8,7.3C416.1,186.5,415.5,186.6,414.9,186.6z M467.1,170.9c-2.2,0-4.2-1.5-4.7-3.7c-0.6-2.6,1-5.2,3.6-5.8
					c6.4-1.5,13.4-3.1,22-4.9c2.6-0.6,5.2,1.1,5.8,3.7s-1.1,5.2-3.7,5.8c-8.5,1.8-15.5,3.4-21.8,4.9
					C467.8,170.9,467.5,170.9,467.1,170.9z M813.2,169c-0.5,0-1-0.1-1.5-0.2c-6.7-2.2-13.9-4.3-21.3-6.1c-2.6-0.7-4.2-3.3-3.5-5.9
					s3.3-4.2,5.9-3.5c7.6,1.9,15,4.1,21.9,6.3c2.5,0.8,3.9,3.6,3.1,6.1C817.2,167.7,815.3,169,813.2,169z M520.5,159.7
					c-2.3,0-4.4-1.7-4.8-4c-0.5-2.6,1.3-5.2,3.9-5.6c7.3-1.3,14.8-2.5,22.3-3.6c2.7-0.4,5.1,1.5,5.5,4.1c0.4,2.7-1.5,5.1-4.1,5.5
					c-7.5,1.1-14.9,2.3-22,3.6C521.1,159.7,520.8,159.7,520.5,159.7z M760.2,156.2c-0.3,0-0.6,0-0.8-0.1c-7.1-1.2-14.5-2.3-22-3.3
					c-2.7-0.3-4.5-2.8-4.2-5.4c0.3-2.7,2.8-4.5,5.4-4.2c7.6,1,15.2,2.1,22.4,3.4c2.6,0.5,4.4,3,4,5.6
					C764.6,154.5,762.6,156.2,760.2,156.2z M574.6,152.2c-2.5,0-4.6-1.9-4.8-4.4c-0.3-2.7,1.7-5.1,4.3-5.3c7.5-0.8,15-1.4,22.5-2
					c2.7-0.2,5,1.8,5.2,4.5c0.2,2.7-1.8,5-4.5,5.2c-7.4,0.6-14.9,1.2-22.2,2C574.9,152.2,574.7,152.2,574.6,152.2z M706.1,149.7
					c-0.1,0-0.2,0-0.4,0c-7.3-0.5-14.8-0.9-22.3-1.2c-2.7-0.1-4.8-2.4-4.7-5c0.1-2.7,2.3-4.7,5-4.7c7.6,0.3,15.2,0.7,22.6,1.2
					c2.7,0.2,4.7,2.5,4.5,5.2C710.7,147.7,708.6,149.7,706.1,149.7z M629,148.4c-2.6,0-4.8-2.1-4.8-4.7c-0.1-2.7,2-4.9,4.7-5
					c7.6-0.3,15.2-0.4,22.6-0.5l0,0c2.7,0,4.8,2.2,4.9,4.8c0,2.7-2.1,4.9-4.8,4.9c-7.4,0-14.9,0.2-22.3,0.5
					C629.1,148.4,629.1,148.4,629,148.4z"/>
			</g>
			<g>
				<path class="st5" d="M905.9,317.9c-0.6,0-1.1-0.1-1.7-0.3c-2.5-0.9-3.8-3.7-2.9-6.2c1.3-3.5,2.5-7,3.5-10.5c0.8-2.6,3.5-4,6-3.3
					c2.6,0.8,4,3.5,3.3,6c-1.1,3.7-2.3,7.4-3.7,11C909.7,316.7,907.9,317.9,905.9,317.9z"/>
			</g>
			<path class="st5" d="M965.3,453.4h-1c-2.7,0-4.8-2.2-4.8-4.9s2.2-4.8,4.9-4.8c0,0,0,0,0.1,0h0.9c6.1,0,13-0.9,20.4-2.7
				c2.6-0.6,5.2,1,5.9,3.6c0.6,2.6-1,5.2-3.6,5.9C979.8,452.4,972.2,453.4,965.3,453.4z M937.6,444.3c-1.2,0.1-2.4-0.2-3.3-1
				c-11.2-8.5-15-19.7-15.2-20.2c-0.8-2.5,0.5-5.3,3.1-6.1c2.5-0.8,5.3,0.5,6.1,3.1l0,0c0,0.1,3.1,8.9,11.8,15.6
				c2.1,1.6,2.5,4.7,0.9,6.8C940.1,443.6,938.9,444.2,937.6,444.3z M1017.4,439.9c-1.9,0-3.6-1.1-4.4-2.9c-1.1-2.4,0-5.3,2.4-6.4
				c6.2-2.8,12.7-6.4,19.2-10.6c2.2-1.5,5.3-0.8,6.7,1.4c1.5,2.2,0.8,5.3-1.4,6.7c-6.9,4.5-13.8,8.3-20.5,11.3
				C1018.7,439.7,1018,439.9,1017.4,439.9z M1062.7,409.1c-1.3,0-2.6-0.5-3.6-1.6c-1.8-2-1.6-5.1,0.3-6.9
				c5.4-4.9,10.7-10.1,15.7-15.7c1.8-2,4.9-2.1,6.9-0.3s2.1,4.9,0.3,6.9c-5.3,5.7-10.8,11.2-16.4,16.3
				C1065,408.6,1063.9,409.1,1062.7,409.1z M1099.2,368c-1,0-2-0.3-2.8-0.9c-2.2-1.6-2.7-4.6-1.1-6.8c4.3-6,8.5-12.3,12.3-18.6
				c1.4-2.3,4.4-3,6.7-1.6s3,4.4,1.6,6.7c-3.9,6.5-8.2,13-12.7,19.2C1102.2,367.3,1100.7,368,1099.2,368z M1126.7,320.4
				c-0.7,0-1.3-0.1-2-0.4c-2.4-1.1-3.5-4-2.4-6.4c3.1-6.8,5.8-13.7,8.2-20.6c0.9-2.5,3.6-3.9,6.2-3c2.5,0.9,3.9,3.6,3,6.2
				c-2.5,7.2-5.4,14.4-8.5,21.4C1130.3,319.4,1128.6,320.4,1126.7,320.4z M1143.7,268.3c-0.3,0-0.6,0-1-0.1
				c-2.6-0.5-4.3-3.1-3.8-5.7c1.5-7.3,2.6-14.7,3.3-21.9c0.3-2.7,2.7-4.6,5.3-4.4c2.7,0.3,4.6,2.6,4.4,5.3
				c-0.7,7.6-1.9,15.3-3.4,22.9C1147.9,266.7,1145.9,268.3,1143.7,268.3z M1147.6,213.5c-2.6,0-4.7-2-4.8-4.6
				c-0.3-5.3-0.9-10.6-1.6-15.9c-0.3-2-0.6-4.1-1-6.1c-0.4-2.6,1.3-5.1,4-5.6c2.7-0.4,5.2,1.3,5.6,4c0.4,2.1,0.7,4.2,1,6.4
				c0.8,5.5,1.3,11.1,1.7,16.7c0.2,2.7-1.9,5-4.6,5.1C1147.8,213.5,1147.7,213.5,1147.6,213.5z M1137.4,159.6c-2.1,0-4-1.3-4.6-3.4
				c-2.2-7-4.7-14-7.6-20.9c-1-2.5,0.1-5.3,2.6-6.3s5.3,0.1,6.3,2.6c3,7.1,5.6,14.4,7.9,21.7c0.8,2.6-0.6,5.3-3.2,6.1
				C1138.4,159.5,1137.9,159.6,1137.4,159.6z M1115.5,109.3c-1.7,0-3.3-0.9-4.2-2.5c-3.7-6.4-7.6-12.8-11.8-18.8
				c-1.5-2.2-1-5.2,1.2-6.8c2.2-1.5,5.2-1,6.8,1.2c4.3,6.3,8.5,12.9,12.3,19.5c1.3,2.3,0.5,5.3-1.8,6.6
				C1117.1,109.1,1116.3,109.3,1115.5,109.3z M1083.3,64.7c-1.3,0-2.6-0.5-3.6-1.6c-5-5.5-10.3-10.8-15.6-15.7
				c-2-1.8-2.1-4.9-0.3-6.9s4.9-2.1,6.9-0.3c5.6,5.1,11.1,10.6,16.3,16.4c1.8,2,1.6,5.1-0.3,6.9
				C1085.7,64.3,1084.5,64.7,1083.3,64.7z M1041.8,28.9c-0.9,0-1.8-0.3-2.6-0.8c-6.3-4.1-12.8-7.7-19.2-10.7c-2.4-1.1-3.5-4-2.3-6.5
				c1.1-2.4,4-3.5,6.5-2.3c6.8,3.2,13.7,7,20.3,11.3c2.3,1.5,2.9,4.5,1.4,6.7C1045,28.1,1043.4,28.9,1041.8,28.9z M991.5,7.4
				c-0.4,0-0.8,0-1.2-0.2c-6.9-1.7-14.3-3.4-21.9-5c-2.6-0.5-4.3-3.1-3.8-5.7s3.1-4.3,5.7-3.8c7.8,1.6,15.3,3.4,22.3,5.1
				c2.6,0.7,4.2,3.3,3.5,5.9C995.6,6,993.6,7.4,991.5,7.4z M937.5-3.6c-0.3,0-0.5,0-0.8-0.1c-9.6-1.6-17.4-2.6-22.3-3.3
				c-2.7-0.3-4.5-2.8-4.2-5.4c0.3-2.7,2.8-4.5,5.4-4.2c4.9,0.6,12.9,1.7,22.6,3.3c2.6,0.4,4.4,2.9,4,5.6
				C941.9-5.3,939.9-3.6,937.5-3.6z M882.9-10.1c-0.1,0-0.3,0-0.4,0c-8.7-0.7-15.9-1.4-22.8-2.4c-2.7-0.4-4.5-2.9-4.1-5.5
				c0.4-2.7,2.8-4.5,5.5-4.1c6.6,1,13.7,1.6,22.2,2.3c2.7,0.2,4.7,2.6,4.4,5.3C887.5-12,885.4-10.1,882.9-10.1z M829.5-21.7
				c-0.7,0-1.5-0.2-2.2-0.5c-2.2-1.1-4.4-2.3-6.6-3.6c-4.6-2.7-9.1-5.7-13.4-9c-2.1-1.6-2.6-4.7-0.9-6.8c1.6-2.1,4.7-2.6,6.8-0.9
				c3.9,3,8.1,5.8,12.4,8.3c2,1.2,4,2.3,6,3.2c2.4,1.2,3.4,4.1,2.2,6.5C833-22.7,831.3-21.7,829.5-21.7z M788.4-57.2
				c-1.7,0-3.3-0.9-4.2-2.5c-3.7-6.5-5.6-13.1-5.6-19.6c0-0.9,0-1.8,0.1-2.6c0.1-0.9,0.2-1.8,0.3-2.6c0.4-2.6,2.9-4.5,5.6-4
				c2.6,0.4,4.4,2.9,4,5.6c-0.1,0.6-0.2,1.2-0.2,1.9c-0.1,0.6-0.1,1.3-0.1,1.9c0,4.8,1.5,9.7,4.3,14.8c1.3,2.3,0.5,5.3-1.8,6.6
				C790-57.4,789.2-57.2,788.4-57.2z M1128.7-87.5c-0.4,0-0.9-0.1-1.3-0.2l-5.8-1.6c-2.6-0.7-4.1-3.4-3.4-6c0.7-2.6,3.4-4.1,6-3.4
				l5.9,1.7c2.6,0.7,4.1,3.4,3.3,6C1132.8-88.9,1130.8-87.5,1128.7-87.5z M1091.6-97.5c-0.4,0-0.8,0-1.2-0.2
				c-6.7-1.7-14.1-3.6-21.9-5.4c-2.6-0.6-4.2-3.2-3.6-5.9c0.6-2.6,3.2-4.2,5.8-3.6c7.9,1.9,15.3,3.7,22.1,5.5
				c2.6,0.7,4.2,3.3,3.5,5.9C1095.7-99,1093.7-97.5,1091.6-97.5z M801.6-105.1c-1.4,0-2.8-0.6-3.8-1.8c-1.7-2.1-1.3-5.2,0.8-6.8
				c4.9-3.8,9.5-6.7,12.6-8.6c2.3-1.4,4.8-2.8,7.5-4c2.4-1.1,5.3-0.1,6.5,2.3c1.1,2.4,0.1,5.3-2.3,6.5c-2.3,1.1-4.5,2.3-6.5,3.5
				c-2.9,1.8-7.2,4.5-11.6,8C803.7-105.4,802.7-105.1,801.6-105.1z M1038-110.1c-0.3,0-0.7,0-1-0.1c-7.4-1.6-14.9-3.1-22.1-4.5
				c-2.6-0.5-4.3-3.1-3.8-5.7c0.5-2.6,3-4.3,5.7-3.8c7.3,1.4,14.8,3,22.3,4.6c2.6,0.6,4.3,3.1,3.7,5.8
				C1042.2-111.7,1040.2-110.1,1038-110.1z M983.9-120.3c-0.3,0-0.5,0-0.8-0.1c-7.6-1.2-15.1-2.3-22.3-3.3c-2.7-0.4-4.5-2.8-4.2-5.5
				c0.4-2.7,2.8-4.5,5.5-4.2c7.3,1,14.9,2.1,22.6,3.3c2.6,0.4,4.4,2.9,4,5.6C988.3-122,986.2-120.3,983.9-120.3z M851.7-126.1
				c-2.3,0-4.4-1.7-4.8-4.1c-0.4-2.6,1.4-5.1,4-5.6c7.1-1.1,14.8-1.9,23-2.4c2.6-0.1,5,1.9,5.1,4.6c0.1,2.7-1.9,5-4.6,5.1
				c-7.9,0.4-15.3,1.2-22,2.3C852.3-126.1,852-126.1,851.7-126.1z M929.3-127.2c-0.1,0-0.3,0-0.4,0c-7.8-0.7-15.3-1.1-22.4-1.4
				c-2.7-0.1-4.8-2.4-4.7-5c0.1-2.7,2.4-4.7,5-4.7c7.3,0.3,14.9,0.8,22.8,1.4c2.7,0.2,4.7,2.6,4.4,5.2
				C933.9-129.1,931.8-127.2,929.3-127.2z M911,405.8c-1.1-0.2-2.2-0.8-3-1.8c-8.6-11.2-9.4-22.9-9.4-23.4c-0.2-2.7,1.9-5,4.6-5.1
				c2.7-0.1,5,1.9,5.1,4.5l0,0c0,0.1,0.7,9.4,7.4,18.1c1.6,2.1,1.2,5.2-0.9,6.8C913.7,405.8,912.3,406,911,405.8z M899.5,361.9
				c-1-0.6-1.8-1.5-2.2-2.7c-4.1-13.5-0.7-24.8-0.6-25.2c0.8-2.6,3.5-4,6.1-3.2s4,3.5,3.2,6.1l0,0c0,0.1-2.6,9,0.6,19.5
				c0.8,2.6-0.7,5.3-3.2,6.1C902,362.8,900.6,362.6,899.5,361.9z"/>
			<path class="st4" d="M364.1,247.3c-0.5,0-0.8-0.3-0.8-0.9l0.3-4.7c0-0.3,0.1-0.5,0.2-0.6c0.1-0.1,0.3-0.1,0.7-0.2l13-0.6
				c0.3,0,0.5,0.1,0.6,0.2s0.1,0.3,0.1,0.6l0.3,4.7c0,0.3-0.1,0.5-0.2,0.6c-0.1,0.1-0.3,0.2-0.6,0.2l-4.5-0.1l6.4,28.1l6.8-32.9
				c0.1-0.4,0.3-0.6,0.7-0.6l4.2-0.3c0.4,0,0.6,0.3,0.7,0.6l7.4,33.2l5.6-28.2l-4.3-0.1c-0.2,0-0.4,0-0.5-0.1
				c-0.1-0.1-0.1-0.3-0.2-0.5l0.1-4.6c0-0.5,0.3-0.8,0.8-0.8l12.5,0.4c0.4,0,0.6,0.3,0.6,0.9l-0.3,4.4c0,0.3-0.1,0.5-0.2,0.6
				s-0.3,0.2-0.6,0.2l-2.7-0.1l-8.8,36.4c-0.1,0.4-0.3,0.6-0.7,0.6l-4.4,0.2c-0.4,0-0.6-0.3-0.7-0.6l-6.9-30l-6.7,29.9
				c-0.1,0.4-0.3,0.6-0.7,0.6l-4.7,0.2c-0.3,0-0.6-0.2-0.7-0.6l-9.3-36.3L364.1,247.3z"/>
			<path class="st4" d="M441.8,264c0-4.2-1.5-6.2-4.5-6.2c-1.7,0-3.6,0.4-5.8,1.3c-0.7,0.3-1.3,0.5-1.8,0.8l-0.1,18.5l3.4,0.3
				c0.3,0,0.4,0.2,0.4,0.5l-0.5,3.6c-0.1,0.4-0.3,0.6-0.6,0.6l-11.9,0.2c-0.3,0-0.4-0.2-0.4-0.7l0.5-5c0-0.2,0.1-0.3,0.2-0.4
				c0.1-0.1,0.2-0.1,0.5-0.1l2.1,0.2v-23.4l0.6-10.3l-4,0.3c-0.4,0-0.6-0.2-0.6-0.7v-4.3c0-0.3,0.2-0.5,0.7-0.6l9.5-0.4
				c0.4,0,0.6,0.2,0.6,0.7l-0.7,15.6c3.4-2.2,6.8-3.3,10.1-3.3c4.6,0,7.2,2.5,8,7.4c0.2,1.5,0.4,3.8,0.4,6.7c0,3-0.2,7.1-0.6,12.6
				l3.4-0.2c0.4,0,0.6,0.2,0.6,0.6v4.1c0,0.4-0.2,0.6-0.6,0.6l-12.1,0.3c-0.3,0-0.5-0.2-0.5-0.7l0.6-3.8c0-0.2,0.1-0.4,0.2-0.5
				c0.1-0.1,0.2-0.1,0.4-0.1l2.4-0.1c0-1.1,0-2.4,0.1-3.7v-3.9c0-1.3,0-2.6,0-3.7L441.8,264L441.8,264z"/>
			<path class="st4" d="M459.5,268c0-3.2,0.3-5.9,0.8-8s1.3-3.8,2.4-5.1c1.9-2.3,5.1-3.5,9.5-3.5c3.1,0,5.3,0.3,6.7,0.9
				c1.4,0.6,2.5,1.3,3.3,2.1c0.8,0.8,1.5,1.8,2.1,3c1.2,2.5,1.7,5.7,1.7,9.6c0,3.8-0.3,6.8-0.8,8.9c-0.5,2.1-1.3,3.8-2.4,5
				c-2,2.3-5.2,3.4-9.7,3.4c-4.7,0-8-1.1-10.2-3.4C460.7,278.4,459.5,274.1,459.5,268z M478.6,276.7c0.6-0.7,1-1.8,1.3-3.2
				c0.3-1.3,0.4-3,0.4-5c0-1.9-0.1-3.5-0.3-4.7s-0.5-2.2-0.9-3s-0.8-1.4-1.3-1.9s-1.1-0.8-1.7-1c-0.9-0.3-2.1-0.5-3.6-0.5
				s-2.7,0.1-3.5,0.3c-0.9,0.2-1.6,0.7-2.2,1.4c-1.1,1.4-1.7,4.3-1.7,8.6c0,6.1,1.7,9.6,5,10.4c1,0.2,2.1,0.4,3.3,0.4
				c1.2,0,2.2-0.1,3.1-0.4C477.4,278,478.1,277.5,478.6,276.7z"/>
			<path class="st4" d="M494.5,268c0-3.2,0.3-5.9,0.8-8s1.3-3.8,2.4-5.1c1.9-2.3,5.1-3.5,9.5-3.5c3.1,0,5.3,0.3,6.7,0.9
				c1.4,0.6,2.5,1.3,3.3,2.1s1.5,1.8,2.1,3c1.2,2.5,1.7,5.7,1.7,9.6c0,3.8-0.3,6.8-0.8,8.9c-0.5,2.1-1.3,3.8-2.4,5
				c-2,2.3-5.2,3.4-9.7,3.4c-4.7,0-8-1.1-10.2-3.4C495.7,278.4,494.5,274.1,494.5,268z M513.7,276.7c0.6-0.7,1-1.8,1.3-3.2
				c0.3-1.3,0.4-3,0.4-5c0-1.9-0.1-3.5-0.3-4.7c-0.2-1.2-0.5-2.2-0.9-3c-0.4-0.8-0.8-1.4-1.3-1.9s-1.1-0.8-1.7-1
				c-0.9-0.3-2.1-0.5-3.6-0.5s-2.7,0.1-3.5,0.3c-0.9,0.2-1.6,0.7-2.2,1.4c-1.1,1.4-1.7,4.3-1.7,8.6c0,6.1,1.7,9.6,5,10.4
				c1,0.2,2.1,0.4,3.3,0.4s2.2-0.1,3.1-0.4C512.4,278,513.1,277.5,513.7,276.7z"/>
			<path class="st4" d="M529.4,296.7c-0.4,0-0.6-0.2-0.6-0.7l0.3-4.6c0-0.2,0.1-0.4,0.2-0.5c0.1-0.1,0.2-0.1,0.4-0.1l1.9,0.3V258
				l-4.6,0.4c-0.4,0-0.6-0.2-0.6-0.5l-0.1-5.8c0.1-0.3,0.3-0.5,0.6-0.6l7.8,0.3c0.3,0,0.5,0.2,0.5,0.6l0.2,1.8
				c3.3-1.8,6.3-2.7,8.8-2.7s4.6,0.3,6.1,1s2.8,1.7,3.7,3.1c1.7,2.5,2.5,6.6,2.5,12.4c0,8.1-2.1,13.1-6.4,14.9
				c-1.4,0.6-3.4,0.9-5.8,0.9c-2.4,0-4.9-0.5-7.4-1.4l0.4,8.9l5.3-0.2c0.4,0,0.6,0.2,0.6,0.6l-0.3,4.1c0,0.4-0.3,0.6-0.6,0.6
				L529.4,296.7z M537,277c2.3,0.6,4.4,0.8,6.1,0.8c1.7,0,3-0.1,3.9-0.4c0.9-0.3,1.6-0.8,2.2-1.5c1.1-1.4,1.6-4.1,1.6-8.1
				c0-3.9-0.4-6.6-1.3-8.1s-2.7-2.3-5.4-2.3c-1.8,0-4,0.4-6.5,1.2L537,277z"/>
			<path class="st4" d="M585.7,259.8c-5.1-1.7-8.6-2.6-10.7-2.6c-2.3,0-3.8,0.6-4.6,1.7c-0.3,0.4-0.5,1-0.5,1.6s0.1,1.2,0.2,1.7
				c0.1,0.5,0.4,0.9,0.8,1.2c0.8,0.8,2.3,1.3,4.6,1.7c2.2,0.4,4.2,0.7,5.9,1.2c1.7,0.4,3,1,4.1,1.6c1,0.7,1.8,1.5,2.2,2.5
				c0.4,1,0.7,2.3,0.7,3.9c0,1.6-0.2,3-0.7,4.2s-1.1,2.3-2,3.1c-1.7,1.7-4.2,2.5-7.3,2.5c-2.1,0-4.6-0.3-7.3-0.8l0.5,2.3
				c0,0.3-0.2,0.5-0.6,0.5l-5,0.4c-0.7,0-1.1-0.4-1.2-1.1L564,277c0-0.3,0.2-0.5,0.7-0.6l4.4-0.8c0.3,0,0.5,0.2,0.6,0.6l0.3,1.9
				c2.7,0.4,5,0.6,6.7,0.6s3.1-0.4,3.9-1.1c0.9-0.7,1.3-1.7,1.3-2.9c0-1.1-0.5-2-1.4-2.4c-0.8-0.4-2.4-0.9-4.7-1.2
				c-2.4-0.4-4.3-0.8-5.8-1.2s-2.8-1-3.7-1.8c-1.9-1.4-2.8-3.7-2.8-7.1c0-2.9,0.9-5.2,2.6-6.9c1.9-1.8,4.5-2.7,7.8-2.7
				c2,0,4.2,0.7,6.8,2l-0.5-2.2c0-0.4,0.2-0.7,0.6-0.7l5.6-0.4c0.3,0,0.5,0.2,0.5,0.6l-0.6,8.6C586.2,259.6,586,259.8,585.7,259.8z"
				/>
			<path class="st4" d="M602.6,278.4c0.2,0.5,0.4,1,0.5,1.6c0.1,0.6,0.2,1.1,0.2,1.6s-0.2,0.9-0.5,1.3c-0.3,0.4-0.8,0.7-1.3,1
				c-1.1,0.5-2.2,0.8-3.3,0.8c-1.1,0-1.8-0.2-2.2-0.5c-0.4-0.3-0.7-0.7-1-1.2c-0.5-0.9-0.7-1.9-0.7-2.8c0-0.9,0.2-1.6,0.6-2
				s0.9-0.7,1.5-1c1-0.4,2.1-0.6,3.1-0.6s1.7,0.2,2.1,0.5C602,277.5,602.3,277.9,602.6,278.4z"/>
			<path class="st4" d="M618.4,278.4c0.2,0.5,0.4,1,0.5,1.6c0.1,0.6,0.2,1.1,0.2,1.6s-0.2,0.9-0.5,1.3c-0.3,0.4-0.8,0.7-1.3,1
				c-1.1,0.5-2.2,0.8-3.3,0.8s-1.8-0.2-2.2-0.5s-0.7-0.7-1-1.2c-0.5-0.9-0.7-1.9-0.7-2.8c0-0.9,0.2-1.6,0.6-2s0.9-0.7,1.5-1
				c1-0.4,2.1-0.6,3.1-0.6s1.7,0.2,2.1,0.5C617.9,277.5,618.2,277.9,618.4,278.4z"/>
			<path class="st4" d="M634.3,278.4c0.2,0.5,0.4,1,0.5,1.6s0.2,1.1,0.2,1.6s-0.2,0.9-0.5,1.3c-0.3,0.4-0.8,0.7-1.3,1
				c-1.1,0.5-2.2,0.8-3.3,0.8s-1.8-0.2-2.2-0.5c-0.4-0.3-0.7-0.7-1-1.2c-0.5-0.9-0.7-1.9-0.7-2.8c0-0.9,0.2-1.6,0.6-2
				c0.4-0.4,0.9-0.7,1.5-1c1-0.4,2.1-0.6,3.1-0.6s1.7,0.2,2.1,0.5C633.7,277.5,634,277.9,634.3,278.4z"/>
			<path class="st4" d="M659.6,277.6c0.3,0,0.4,0.2,0.4,0.5l-0.4,4.7c0,0.4-0.3,0.6-0.7,0.6l-16.2,0.2c-0.3,0-0.5-0.2-0.5-0.7
				l0.1-4.9c0-0.3,0.1-0.5,0.4-0.5l4.4,0.4v-31.5l-4.4,0.4c-0.2,0-0.4-0.1-0.5-0.2c-0.1-0.2-0.2-0.3-0.2-0.6l0.3-3.9
				c0-0.5,0.3-0.8,0.8-0.9s1.1-0.2,1.9-0.3c0.8-0.1,1.7-0.2,2.6-0.3c0.9-0.1,1.9-0.2,2.9-0.2c1-0.1,2-0.1,3.1-0.2
				c2.2-0.1,4.3-0.1,6.4-0.1s4.1,0.3,6.1,0.8s3.7,1.3,5.1,2.4c2.7,2.2,4,5.6,4,10.3c0,6.7-3.1,10.7-9.4,12c-1.9,0.4-4,0.6-6.2,0.6
				c-2.2,0-4.4-0.1-6.6-0.3v12.2L659.6,277.6z M653.3,260.6c1.8,0.2,3.6,0.3,5.3,0.3s3.2-0.1,4.4-0.3c1.2-0.2,2.2-0.6,3.1-1.1
				c1.8-1.2,2.7-3.2,2.7-6.1c0-5.1-2.8-7.7-8.5-7.7c-2.1,0-4.5,0.1-7.1,0.3v14.6H653.3z"/>
			<path class="st4" d="M699.1,251.4c5.6,0,8.3,3.5,8.3,10.4c0,1.6,0,3.7-0.1,6.3l-0.2,5.5c0,1.1-0.1,2.2-0.1,3.2l-0.1,2.7l1.7-0.1
				c0.6,0,1.3-0.1,2.1-0.2c0.4,0,0.6,0.2,0.6,0.5l-0.5,4.4c-0.1,0.3-0.3,0.5-0.6,0.6l-8.1,0.5c-0.3,0-0.4-0.2-0.4-0.6l0.4-3.3
				c-3.1,2.4-6.5,3.6-10.2,3.6c-2.9,0-5.2-0.8-7.1-2.5c-2-1.8-3-4.1-3-7.1c0-3.9,1.3-6.6,4-8.2c2.4-1.4,6.3-2.1,11.7-2.1
				c1.1,0,2.3,0,3.6,0.1c0-0.5,0-0.9,0-1.3v-1.1c0-3.7-1.6-5.5-4.8-5.5c-1.7,0-3.7,0.5-6.2,1.5l0.1,1.1c0,0.4,0.1,0.6,0.1,0.8
				c0,0.4-0.2,0.6-0.6,0.6l-4.8,0.1c-0.3-0.1-0.5-0.3-0.6-0.6l-0.5-8c0-0.5,0.2-0.7,0.6-0.8l4.7-0.6c0.4,0,0.6,0.2,0.6,0.6v2.3
				C693.1,252.3,696.2,251.4,699.1,251.4z M693.7,279.6c2.2,0,4.5-0.6,7.1-1.9c0-1.2,0.1-2.6,0.1-4.1s0-3,0.1-4.4
				c-4.9,0-8.4,0.4-10.3,1.3c-1.8,0.8-2.6,2.1-2.6,3.9C688.1,277.8,690,279.6,693.7,279.6z"/>
			<path class="st4" d="M744.7,251.7c0.5,0,0.8,0.3,0.8,1l-0.4,4.4c0,0.4-0.3,0.6-0.6,0.6l-5.1-1c2,2.1,3,4.1,3,5.8
				s-0.2,3.3-0.7,4.7s-1.2,2.6-2.2,3.5c-2.1,1.9-5.4,2.9-9.8,2.9c-1.8,0-3.4-0.2-4.8-0.6c-0.4,1-0.7,1.9-0.7,2.5
				c0,0.7,0,1.1,0.1,1.4s0.3,0.5,0.6,0.7c0.5,0.3,1.3,0.5,2.3,0.5s2,0,2.9-0.1c2.4-0.1,4.3-0.2,5.7-0.2c1.4,0,2.7,0.2,3.9,0.7
				c1.2,0.5,2.1,1.1,2.8,1.9c1.4,1.5,2.1,3.6,2.1,6.1c0,3.1-1.2,5.6-3.7,7.6c-2.7,2.2-6.5,3.2-11.4,3.2c-4.1,0-7.1-0.5-8.9-1.5
				c-2.1-1.2-3.2-3-3.2-5.4s1.1-5,3.2-7.8c-1.5-0.8-2.2-2.2-2.2-4.1c0-1.9,1.1-4.1,3.3-6.8c-3-1.8-4.6-4.8-4.6-9.1
				c0-3.8,1.2-6.6,3.7-8.6c2.2-1.8,5.3-2.7,9.2-2.7c2,0,3.9,0,5.6,0.1C739.7,251.6,742.7,251.7,744.7,251.7z M736.4,264.7
				c0.2-0.7,0.3-1.6,0.3-2.4c0-0.9-0.1-1.7-0.4-2.4s-0.6-1.4-1.2-1.9c-1.1-1.1-2.7-1.7-4.9-1.7c-3.4,0-5.6,1.1-6.6,3.4
				c-0.4,0.8-0.5,1.8-0.5,3c0,3.8,2.4,5.8,7.1,5.8C733.7,268.5,735.7,267.3,736.4,264.7z M733.9,283.5l-7.7,0.2c-0.8,0-1.4,0-2-0.1
				c-0.6,1.5-0.9,3-0.9,4.5s0.6,2.5,1.7,3.1s2.7,0.9,4.6,0.9c1.9,0,3.5-0.1,4.5-0.4c1.1-0.2,2-0.6,2.7-1c1.5-0.9,2.2-2,2.2-3.4
				c0-1.2-0.2-2-0.7-2.5C737.4,283.9,735.9,283.5,733.9,283.5z"/>
			<path class="st4" d="M772.8,283.6c-2.4,0.6-5.4,0.9-9.1,0.9c-3.8,0-6.5-1.2-8.2-3.5c-1.8-2.4-2.7-6.3-2.7-11.5
				c0-5.5,0.8-9.6,2.3-12.4c1.7-3,4.5-4.8,8.3-5.5c1.3-0.2,2.8-0.3,4.4-0.3c3.5,0,6,0.9,7.6,2.6c1.6,1.7,2.4,4.3,2.4,7.8
				c0,2.3-0.4,4.1-1.2,5.3c-0.3,0.4-0.6,0.8-1.1,1.3c-0.4,0.5-1.3,0.9-2.5,1.3c-1.2,0.4-2.6,0.7-4.2,0.9c-2.4,0.3-5.7,0.5-10,0.5
				c0.2,3.2,1,5.3,2.3,6.5c1,0.9,2.7,1.3,5.2,1.3c2.3,0,4.6-0.2,6.9-0.6l0.1-1.5c0-0.2,0.1-0.4,0.2-0.4c0.1-0.1,0.2-0.1,0.5-0.2
				l4.1-0.9c0.4,0,0.6,0.2,0.7,0.5s0.1,0.9,0.2,1.9c0.1,0.9,0.1,1.7,0.2,2.4s0.1,1.3,0.1,1.9l0.1,1.6c0,0.5,0,0.9,0,1.2
				c0,0.6-0.4,0.9-1.2,1l-4.7,0.6c-0.4,0-0.6-0.2-0.6-0.6L772.8,283.6z M771.1,263.7c0.1-0.6,0.2-1.2,0.2-2s-0.1-1.5-0.2-2.1
				c-0.1-0.6-0.4-1.1-0.7-1.5c-0.7-0.9-1.9-1.3-3.6-1.3c-3.2,0-5.3,0.8-6.4,2.4c-1,1.5-1.6,4.1-1.7,7.8c6.5-0.1,10.4-0.7,11.5-1.7
				C770.7,264.7,771,264.2,771.1,263.7z"/>
			<path class="st4" d="M843.5,246.5c0,0.4-0.2,0.6-0.6,0.6l-3.6-0.1l-0.1,35.7c0,0.5-0.2,0.8-0.7,0.8l-6.8,0.4
				c-0.2,0-0.5-0.2-0.6-0.6l-16.6-36.8l0.7,30.8l4.4-0.3c0.3,0,0.4,0.2,0.4,0.5l0.5,5.6c0,0.4-0.3,0.6-0.7,0.6l-13.6-0.1
				c-0.3,0-0.4-0.2-0.5-0.7l-0.5-4.7c0-0.4,0.2-0.5,0.5-0.5l4.4-0.1v-30.4l-5.1,0.2c-0.2,0-0.3-0.1-0.4-0.2c0-0.1-0.1-0.2-0.1-0.5
				l0.3-5c0-0.4,0.3-0.6,0.7-0.6l12.4-0.6c0.5,0,0.8,0.3,1,0.8l16,35.8l-0.7-30.4l-4.4-0.1c-0.2,0-0.3,0-0.4-0.1
				c-0.1-0.1-0.1-0.3-0.1-0.5l0.2-4.7c0-0.4,0.3-0.6,0.7-0.6l12.6-0.1c0.2,0,0.3,0.1,0.4,0.2c0.1,0.1,0.1,0.2,0.1,0.5L843.5,246.5z"
				/>
			<path class="st4" d="M850.2,268c0-3.2,0.3-5.9,0.8-8s1.3-3.8,2.4-5.1c1.9-2.3,5.1-3.5,9.5-3.5c3.1,0,5.3,0.3,6.7,0.9
				c1.4,0.6,2.5,1.3,3.3,2.1s1.5,1.8,2.1,3c1.2,2.5,1.7,5.7,1.7,9.6c0,3.8-0.3,6.8-0.8,8.9c-0.5,2.1-1.3,3.8-2.4,5
				c-2,2.3-5.2,3.4-9.7,3.4c-4.7,0-8-1.1-10.2-3.4C851.4,278.4,850.2,274.1,850.2,268z M869.4,276.7c0.6-0.7,1-1.8,1.3-3.2
				c0.3-1.3,0.4-3,0.4-5c0-1.9-0.1-3.5-0.3-4.7s-0.5-2.2-0.9-3s-0.8-1.4-1.3-1.9s-1.1-0.8-1.7-1c-0.9-0.3-2.1-0.5-3.6-0.5
				s-2.7,0.1-3.5,0.3c-0.9,0.2-1.6,0.7-2.2,1.4c-1.1,1.4-1.7,4.3-1.7,8.6c0,6.1,1.7,9.6,5,10.4c1,0.2,2.1,0.4,3.3,0.4
				s2.2-0.1,3.1-0.4C868.1,278,868.8,277.5,869.4,276.7z"/>
			<path class="st4" d="M898.9,283.6c-0.9,0.1-2.2,0.1-4,0.1s-3.2-0.2-4.3-0.5c-1.1-0.4-2-0.9-2.7-1.7c-1.4-1.6-2.1-4.1-2.1-7.5
				c0-2.2,0-4.4,0.1-6.4s0.1-3.8,0.2-5.4c0-1.6,0.1-3.2,0.2-4.7l-3.7-0.3c-0.4,0-0.6-0.3-0.6-0.8v-3.2c0-0.4,0.2-0.6,0.6-0.6
				l3.9-0.1c0-1,0.1-1.9,0.1-2.8l0.2-4.2c0.1-1,0.1-1.6,0.2-1.7c0.1-0.1,0.3-0.2,0.5-0.3l5.2-0.6c0.4,0,0.6,0.2,0.6,0.6
				c0,0.6-0.1,2-0.3,4.1l-0.4,4.8l11-0.3c0.4,0,0.6,0.2,0.6,0.7v4.6c0,0.4-0.2,0.6-0.6,0.6l-11.4-0.5c-0.3,4.4-0.5,8.2-0.5,11.5
				s0.1,5.4,0.2,6.3c0.1,1,0.4,1.7,0.8,2.2c0.6,0.9,2,1.3,4.1,1.3c0.6,0,1.1,0,1.6-0.1c-0.1-0.7-0.1-1.2-0.1-1.5s0.2-0.5,0.5-0.6
				l4.7-0.6c0.4,0,0.6,0.2,0.6,0.6l0.1,7.1c0,0.3-0.1,0.5-0.4,0.6l-4.2,0.7c-0.4,0-0.7-0.2-0.7-0.5L898.9,283.6z"/>
			<path class="st4" d="M928.7,246.9c-0.3-0.1-0.4-0.2-0.4-0.5l0.4-5.2c0-0.4,0.2-0.7,0.5-0.7l20.6,0.5v-1.5c0-0.4,0.2-0.7,0.6-0.7
				l4.4-0.4c0.3,0,0.5,0.2,0.6,0.6l1.5,11.8c0,0.3-0.2,0.5-0.6,0.5l-5.1,0.4c-0.7,0-1.1-0.4-1.2-1.1l-0.1-3.9l-11.1-0.3l-0.2,13.4
				l14.5-0.1c0.3,0,0.5,0.2,0.5,0.5l-0.2,4.6c0,0.4-0.3,0.6-0.8,0.6l-14.2-0.4l-0.2,12.6l7.3-0.4c0.4,0,0.6,0.2,0.6,0.6l0.3,5
				c0,0.2-0.1,0.4-0.1,0.5c-0.1,0.1-0.2,0.1-0.4,0.1l-16.9,0.3c-0.2,0-0.4-0.1-0.5-0.2c-0.1-0.1-0.2-0.2-0.2-0.4L928,278
				c0-0.4,0.2-0.6,0.5-0.6l3.5,0.2l0.2-31.2L928.7,246.9z"/>
			<path class="st4" d="M963.7,268c0-3.2,0.3-5.9,0.8-8s1.3-3.8,2.4-5.1c2-2.3,5.1-3.5,9.5-3.5c3.1,0,5.3,0.3,6.7,0.9
				c1.4,0.6,2.5,1.3,3.3,2.1s1.5,1.8,2.1,3c1.2,2.5,1.7,5.7,1.7,9.6c0,3.8-0.3,6.8-0.8,8.9c-0.5,2.1-1.3,3.8-2.4,5
				c-2,2.3-5.2,3.4-9.7,3.4c-4.7,0-8-1.1-10.2-3.4C964.9,278.4,963.7,274.1,963.7,268z M982.9,276.7c0.6-0.7,1-1.8,1.3-3.2
				c0.3-1.3,0.4-3,0.4-5c0-1.9-0.1-3.5-0.3-4.7s-0.5-2.2-0.9-3s-0.8-1.4-1.3-1.9s-1.1-0.8-1.7-1c-0.9-0.3-2.1-0.5-3.6-0.5
				s-2.7,0.1-3.5,0.3c-0.9,0.2-1.6,0.7-2.2,1.4c-1.1,1.4-1.7,4.3-1.7,8.6c0,6.1,1.7,9.6,5,10.4c1,0.2,2.1,0.4,3.3,0.4
				s2.2-0.1,3.1-0.4C981.6,278,982.3,277.5,982.9,276.7z"/>
			<path class="st4" d="M1023.3,252.8c0.3,0,0.4,0.2,0.4,0.7l0.3,23.7l3.8-0.1c0.4,0,0.6,0.2,0.6,0.7l-0.5,5.1
				c0,0.4-0.2,0.6-0.7,0.6h-7c-0.6,0-1-0.4-1.2-1.1l-0.7-2.8c-3.1,2.7-6.6,4-10.6,4c-5.5,0-8.3-3.5-8.3-10.6c0-2.5,0.1-5.2,0.4-8.2
				l0.6-6.4l-3.6,0.1c-0.4,0-0.6-0.2-0.6-0.7l0.6-5c0-0.2,0.1-0.4,0.2-0.4c0.1-0.1,0.2-0.1,0.5-0.1l8.9,0.2c0.3,0,0.4,0.2,0.4,0.6
				c-0.1,0.9-0.2,1.9-0.3,3c-0.8,8.5-1.2,13.7-1.2,15.7s0.4,3.4,1.1,4.3c0.8,0.9,2.1,1.3,4.1,1.3s4.4-1,7.5-2.9v-16l-3.5-0.2
				c-0.3,0-0.4-0.2-0.5-0.5l0.5-4.6c0.1-0.4,0.3-0.6,0.6-0.6L1023.3,252.8z"/>
			<path class="st4" d="M1052.7,258.4c-2.4,0-5.1,1-8.2,2.9l0.3,16.9l3.1-0.3c0.3,0,0.5,0.2,0.5,0.5l-0.5,4.4
				c-0.1,0.4-0.3,0.6-0.6,0.6h-11.7c-0.3,0-0.4-0.2-0.4-0.7l0.6-4.3c0.1-0.4,0.3-0.6,0.6-0.6h2.4v-18.6l-4.3-0.1
				c-0.4,0-0.6-0.2-0.6-0.7l0.5-4.9c0-0.3,0.3-0.5,0.7-0.6l7.8-1.2c0.3,0,0.5,0.2,0.5,0.6v4.9c3.9-3.9,7.7-5.8,11.4-5.8
				c4.3,0,6.8,2,7.7,6.1c0.3,1.3,0.4,2.6,0.4,3.8s0,2.2,0,3s0,1.7-0.1,2.6l-0.1,2.9c0,1-0.1,2.1-0.1,3.1l-0.1,3c0,1-0.1,1.8-0.1,2.6
				l3.2-0.1c0.4,0,0.6,0.2,0.6,0.7v4.1c0,0.2-0.1,0.4-0.2,0.4c-0.1,0.1-0.3,0.1-0.5,0.1l-8.2,0.6c-0.4,0-0.6-0.2-0.6-0.6
				c0.1-2,0.1-4,0.1-5.8l0.1-4.7c0-1.3,0-2.6,0-3.7v-5.2c0-2.3-0.2-3.8-0.6-4.5c-0.4-0.6-0.9-1.1-1.4-1.3
				C1054.2,258.5,1053.5,258.4,1052.7,258.4z"/>
			<path class="st4" d="M1088.9,244c-0.4,0-0.6-0.2-0.6-0.7l0.3-4.5c0-0.4,0.3-0.6,0.6-0.6l9.7,0.5c0.3,0,0.5,0.3,0.5,0.6v39.5
				l3-0.3c0.4,0,0.6,0.2,0.6,0.5l-0.5,4.4c-0.1,0.3-0.3,0.5-0.6,0.6l-7,1.1c-0.4,0-0.5-0.2-0.5-0.6l0.2-2.8c-3.2,1.3-6,1.9-8.5,1.9
				s-4.5-0.3-6-1s-2.7-1.7-3.7-3c-1.7-2.5-2.5-6.6-2.5-12.4c0-8.3,2.1-13.4,6.4-15.1c1.4-0.6,3.4-0.9,5.9-0.9s5.1,0.5,7.8,1.6
				l-0.4-8.9L1088.9,244z M1094.1,258.6c-2.7-0.7-4.9-1-6.6-1s-3,0.1-3.9,0.4c-0.9,0.3-1.6,0.8-2.2,1.5c-1.1,1.4-1.6,4.1-1.6,8.1
				s0.4,6.6,1.3,8c0.9,1.5,2.7,2.3,5.4,2.3c2.2,0,4.5-0.4,7-1.1L1094.1,258.6z"/>
			<path class="st4" d="M1116.6,256.8c0.2,0.5,0.4,1,0.5,1.6s0.2,1.1,0.2,1.6s-0.2,0.9-0.5,1.3c-0.3,0.4-0.8,0.7-1.3,1
				c-1.1,0.5-2.2,0.8-3.3,0.8c-1.1,0-1.8-0.2-2.2-0.5s-0.7-0.7-1-1.2c-0.5-0.9-0.7-1.9-0.7-2.8c0-0.9,0.2-1.6,0.6-2
				c0.4-0.4,0.9-0.7,1.5-1c1-0.4,2.1-0.6,3.1-0.6s1.7,0.2,2.1,0.5C1116.1,255.9,1116.4,256.3,1116.6,256.8z M1116.6,278.4
				c0.2,0.5,0.4,1,0.5,1.6s0.2,1.1,0.2,1.6s-0.2,0.9-0.5,1.3c-0.3,0.4-0.8,0.7-1.3,1c-1.1,0.5-2.2,0.8-3.3,0.8
				c-1.1,0-1.8-0.2-2.2-0.5s-0.7-0.7-1-1.2c-0.5-0.9-0.7-1.9-0.7-2.8c0-0.9,0.2-1.6,0.6-2c0.4-0.4,0.9-0.7,1.5-1
				c1-0.4,2.1-0.6,3.1-0.6s1.7,0.2,2.1,0.5C1116.1,277.5,1116.4,277.9,1116.6,278.4z"/>
			<path class="st4" d="M1131.9,277.6c0.4,2.3,0.9,3.9,1.5,4.8c0.6,0.9,1.3,1.3,2.1,1.3s1.4,0,1.9-0.1c0.3,0,0.5,0.2,0.5,0.7
				l-0.3,4.3c0,0.3-0.3,0.5-0.6,0.5c-1,0.1-1.7,0.1-2.3,0.1c-3.5,0-5.9-2.2-7.3-6.6c-1.2-3.8-1.8-9.9-1.8-18.4
				c0-8.8,0.7-15.3,2.2-19.4c1.6-4.6,4.5-6.9,8.4-6.9c1.3,0,2,0.1,2.1,0.2c0.1,0.1,0.1,0.3,0.2,0.5l0.3,4.4c0,0.4-0.1,0.5-0.4,0.5
				c-0.2,0-0.6-0.1-1.1-0.1c-1.3,0-2.3,0.4-3.1,1.2c-0.8,0.8-1.4,2-1.8,3.6c-0.7,2.7-1,7.8-1,15.4
				C1131.2,270.6,1131.5,275.3,1131.9,277.6z"/>
			<path class="st6" d="M360.8,244.1c-0.5,0-0.8-0.3-0.8-0.9l0.3-4.7c0-0.3,0.1-0.5,0.2-0.6s0.3-0.1,0.7-0.2l13-0.6
				c0.3,0,0.5,0.1,0.6,0.2c0.1,0.1,0.1,0.3,0.1,0.6l0.3,4.7c0,0.3-0.1,0.5-0.2,0.6s-0.3,0.2-0.6,0.2l-4.5-0.1l6.4,28.1l6.8-32.9
				c0.1-0.4,0.3-0.6,0.7-0.6l4.2-0.3c0.4,0,0.6,0.3,0.7,0.6l7.4,33.2l5.6-28.2l-4.3-0.1c-0.2,0-0.4,0-0.5-0.1s-0.1-0.3-0.2-0.5
				l0.1-4.6c0-0.5,0.3-0.8,0.8-0.8l12.5,0.4c0.4,0,0.6,0.3,0.6,0.9l-0.3,4.4c0,0.3-0.1,0.5-0.2,0.6c-0.1,0.1-0.3,0.2-0.6,0.2
				l-2.7-0.1l-8.8,36.4c-0.1,0.4-0.3,0.6-0.7,0.6l-4.4,0.2c-0.4,0-0.6-0.3-0.7-0.6l-6.9-30l-6.6,29.8c-0.1,0.4-0.3,0.6-0.7,0.6
				l-4.7,0.2c-0.3,0-0.6-0.2-0.7-0.6l-9.3-36.3L360.8,244.1z"/>
			<path class="st6" d="M438.6,260.7c0-4.2-1.5-6.2-4.5-6.2c-1.7,0-3.6,0.4-5.8,1.3c-0.7,0.3-1.3,0.5-1.8,0.8l-0.1,18.5l3.4,0.3
				c0.3,0,0.4,0.2,0.4,0.5l-0.5,3.6c-0.1,0.4-0.3,0.6-0.6,0.6l-11.9,0.2c-0.3,0-0.4-0.2-0.4-0.7l0.5-5c0-0.2,0.1-0.3,0.2-0.4
				c0.1-0.1,0.2-0.1,0.5-0.1l2.1,0.2v-23.4l0.6-10.3l-4,0.3c-0.4,0-0.6-0.2-0.6-0.7v-4.3c0-0.3,0.2-0.5,0.7-0.6l9.5-0.4
				c0.4,0,0.6,0.2,0.6,0.7l-0.7,15.6c3.4-2.2,6.8-3.3,10.1-3.3c4.6,0,7.2,2.5,8,7.4c0.2,1.5,0.4,3.8,0.4,6.7c0,3-0.2,7.1-0.6,12.6
				l3.4-0.2c0.4,0,0.6,0.2,0.6,0.6v4.1c0,0.4-0.2,0.6-0.6,0.6l-12.1,0.3c-0.3,0-0.5-0.2-0.5-0.7l0.6-3.8c0-0.2,0.1-0.4,0.2-0.5
				s0.2-0.1,0.4-0.1l2.4-0.1c0-1.1,0-2.4,0.1-3.7V267c0-1.3,0-2.6,0-3.7L438.6,260.7L438.6,260.7z"/>
			<path class="st6" d="M456.2,264.7c0-3.2,0.3-5.9,0.8-8s1.3-3.8,2.4-5.1c1.9-2.3,5.1-3.5,9.5-3.5c3.1,0,5.3,0.3,6.7,0.9
				c1.4,0.6,2.5,1.3,3.3,2.1s1.5,1.8,2.1,3c1.2,2.5,1.7,5.7,1.7,9.6c0,3.8-0.3,6.8-0.8,8.9c-0.5,2.1-1.3,3.8-2.4,5
				c-2,2.3-5.2,3.4-9.7,3.4c-4.7,0-8-1.1-10.2-3.4C457.4,275.2,456.2,270.8,456.2,264.7z M475.4,273.5c0.6-0.7,1-1.8,1.3-3.2
				c0.3-1.3,0.4-3,0.4-5s-0.1-3.5-0.3-4.7s-0.5-2.2-0.9-3s-0.8-1.4-1.3-1.9s-1.1-0.8-1.7-1c-0.9-0.3-2.1-0.5-3.6-0.5
				s-2.7,0.1-3.5,0.3c-0.9,0.2-1.6,0.7-2.2,1.4c-1.1,1.4-1.7,4.3-1.7,8.6c0,6.1,1.7,9.6,5,10.4c1,0.2,2.1,0.4,3.3,0.4
				c1.2,0,2.2-0.1,3.1-0.4C474.1,274.7,474.8,274.2,475.4,273.5z"/>
			<path class="st6" d="M491.3,264.7c0-3.2,0.3-5.9,0.8-8s1.3-3.8,2.4-5.1c1.9-2.3,5.1-3.5,9.5-3.5c3.1,0,5.3,0.3,6.7,0.9
				c1.4,0.6,2.5,1.3,3.3,2.1s1.5,1.8,2.1,3c1.2,2.5,1.7,5.7,1.7,9.6c0,3.8-0.3,6.8-0.8,8.9c-0.5,2.1-1.3,3.8-2.4,5
				c-2,2.3-5.2,3.4-9.7,3.4c-4.7,0-8-1.1-10.2-3.4C492.5,275.2,491.3,270.8,491.3,264.7z M510.4,273.5c0.6-0.7,1-1.8,1.3-3.2
				c0.3-1.3,0.4-3,0.4-5s-0.1-3.5-0.3-4.7s-0.5-2.2-0.9-3s-0.8-1.4-1.3-1.9s-1.1-0.8-1.7-1c-0.9-0.3-2.1-0.5-3.6-0.5
				s-2.7,0.1-3.5,0.3c-0.9,0.2-1.6,0.7-2.2,1.4c-1.1,1.4-1.7,4.3-1.7,8.6c0,6.1,1.7,9.6,5,10.4c1,0.2,2.1,0.4,3.3,0.4
				c1.2,0,2.2-0.1,3.1-0.4C509.2,274.7,509.9,274.2,510.4,273.5z"/>
			<path class="st6" d="M526.2,293.4c-0.4,0-0.6-0.2-0.6-0.7l0.3-4.6c0-0.2,0.1-0.4,0.2-0.5c0.1-0.1,0.2-0.1,0.4-0.1l1.9,0.3v-33.1
				l-4.6,0.4c-0.4,0-0.6-0.2-0.6-0.5l-0.1-5.8c0.1-0.3,0.3-0.5,0.6-0.6l7.8,0.3c0.3,0,0.5,0.2,0.5,0.6l0.2,1.8
				c3.3-1.8,6.3-2.7,8.8-2.7s4.6,0.3,6.1,1s2.8,1.7,3.7,3.1c1.7,2.5,2.5,6.6,2.5,12.4c0,8.1-2.1,13.1-6.4,14.9
				c-1.4,0.6-3.4,0.9-5.8,0.9s-4.9-0.5-7.4-1.4l0.4,8.9l5.3-0.2c0.4,0,0.6,0.2,0.6,0.6l-0.3,4.1c0,0.4-0.3,0.6-0.6,0.6L526.2,293.4z
				 M533.7,273.7c2.3,0.6,4.4,0.8,6.1,0.8s3-0.1,3.9-0.4c0.9-0.3,1.6-0.8,2.2-1.5c1.1-1.4,1.6-4.1,1.6-8.1c0-3.9-0.4-6.6-1.3-8.1
				c-0.9-1.5-2.7-2.3-5.4-2.3c-1.8,0-4,0.4-6.5,1.2L533.7,273.7z"/>
			<path class="st6" d="M582.4,256.5c-5.1-1.7-8.6-2.6-10.7-2.6c-2.3,0-3.8,0.6-4.6,1.7c-0.3,0.4-0.5,1-0.5,1.6s0.1,1.2,0.2,1.7
				s0.4,0.9,0.8,1.2c0.8,0.8,2.3,1.3,4.6,1.7c2.2,0.4,4.2,0.7,5.9,1.2c1.7,0.4,3,1,4.1,1.6c1,0.7,1.8,1.5,2.2,2.5
				c0.4,1,0.7,2.3,0.7,3.9c0,1.6-0.2,3-0.7,4.2s-1.1,2.3-2,3.1c-1.7,1.7-4.2,2.5-7.3,2.5c-2.1,0-4.6-0.3-7.3-0.8l0.5,2.3
				c0,0.3-0.2,0.5-0.6,0.5l-4.8,0.4c-0.7,0-1.1-0.4-1.2-1.1l-0.8-8.4c0-0.3,0.2-0.5,0.7-0.6l4.4-0.8c0.3,0,0.5,0.2,0.6,0.6l0.3,1.9
				c2.7,0.4,5,0.6,6.7,0.6s3.1-0.4,3.9-1.1c0.9-0.7,1.3-1.7,1.3-2.9c0-1.1-0.5-2-1.4-2.4c-0.8-0.4-2.4-0.9-4.7-1.2
				c-2.4-0.4-4.3-0.8-5.8-1.2s-2.8-1-3.7-1.8c-1.9-1.4-2.8-3.7-2.8-7.1c0-2.9,0.9-5.2,2.6-6.9c1.9-1.8,4.5-2.7,7.8-2.7
				c2,0,4.2,0.7,6.8,2l-0.5-2.2c0-0.4,0.2-0.7,0.6-0.7l5.6-0.4c0.3,0,0.5,0.2,0.5,0.6l-0.6,8.6C583,256.3,582.8,256.5,582.4,256.5z"
				/>
			<path class="st6" d="M599.3,275.1c0.2,0.5,0.4,1,0.5,1.6s0.2,1.1,0.2,1.6s-0.2,0.9-0.5,1.3c-0.3,0.4-0.8,0.7-1.3,1
				c-1.1,0.5-2.2,0.8-3.3,0.8s-1.8-0.2-2.2-0.5c-0.4-0.3-0.7-0.7-1-1.2c-0.5-0.9-0.7-1.9-0.7-2.8c0-0.9,0.2-1.6,0.6-2
				c0.4-0.4,0.9-0.7,1.5-1c1-0.4,2.1-0.6,3.1-0.6s1.7,0.2,2.1,0.5C598.8,274.2,599.1,274.7,599.3,275.1z"/>
			<path class="st6" d="M615.2,275.1c0.2,0.5,0.4,1,0.5,1.6s0.2,1.1,0.2,1.6s-0.2,0.9-0.5,1.3c-0.3,0.4-0.8,0.7-1.3,1
				c-1.1,0.5-2.2,0.8-3.3,0.8s-1.8-0.2-2.2-0.5c-0.4-0.3-0.7-0.7-1-1.2c-0.5-0.9-0.7-1.9-0.7-2.8c0-0.9,0.2-1.6,0.6-2
				c0.4-0.4,0.9-0.7,1.5-1c1-0.4,2.1-0.6,3.1-0.6s1.7,0.2,2.1,0.5C614.6,274.2,614.9,274.7,615.2,275.1z"/>
			<path class="st6" d="M631,275.1c0.2,0.5,0.4,1,0.5,1.6s0.2,1.1,0.2,1.6s-0.2,0.9-0.5,1.3c-0.3,0.4-0.8,0.7-1.3,1
				c-1.1,0.5-2.2,0.8-3.3,0.8c-1.1,0-1.8-0.2-2.2-0.5s-0.7-0.7-1-1.2c-0.5-0.9-0.7-1.9-0.7-2.8c0-0.9,0.2-1.6,0.6-2
				c0.4-0.4,0.9-0.7,1.5-1c1-0.4,2.1-0.6,3.1-0.6s1.7,0.2,2.1,0.5C630.5,274.2,630.8,274.7,631,275.1z"/>
			<path class="st6" d="M656.4,274.4c0.3,0,0.4,0.2,0.4,0.5l-0.4,4.7c0,0.4-0.3,0.6-0.7,0.6l-16.2,0.2c-0.3,0-0.5-0.2-0.5-0.7
				l0.1-4.9c0-0.3,0.1-0.5,0.4-0.5l4.4,0.4v-31.5l-4.4,0.4c-0.2,0-0.4-0.1-0.5-0.2c-0.1-0.2-0.2-0.3-0.2-0.6l0.3-3.9
				c0-0.5,0.3-0.8,0.8-0.9s1.1-0.2,1.9-0.3c0.8-0.1,1.7-0.2,2.6-0.3c0.9-0.1,1.9-0.2,2.9-0.2c1-0.1,2-0.1,3.1-0.2
				c2.2-0.1,4.3-0.1,6.4-0.1s4.1,0.3,6.1,0.8s3.7,1.3,5.1,2.4c2.7,2.2,4,5.6,4,10.3c0,6.7-3.1,10.7-9.4,12c-1.9,0.4-4,0.6-6.2,0.6
				c-2.2,0-4.4-0.1-6.6-0.3v12.2L656.4,274.4z M650.1,257.4c1.8,0.2,3.6,0.3,5.3,0.3c1.7,0,3.2-0.1,4.4-0.3s2.2-0.6,3.1-1.1
				c1.8-1.2,2.7-3.2,2.7-6.1c0-5.1-2.8-7.7-8.5-7.7c-2.1,0-4.5,0.1-7.1,0.3L650.1,257.4L650.1,257.4z"/>
			<path class="st6" d="M695.8,248.2c5.6,0,8.3,3.5,8.3,10.4c0,1.6,0,3.7-0.1,6.3l-0.2,5.5c0,1.1-0.1,2.2-0.1,3.2l-0.1,2.7l1.7-0.1
				c0.6,0,1.3-0.1,2.1-0.2c0.4,0,0.6,0.2,0.6,0.5l-0.5,4.4c-0.1,0.3-0.3,0.5-0.6,0.6l-8.1,0.5c-0.3,0-0.4-0.2-0.4-0.6l0.4-3.3
				c-3.1,2.4-6.5,3.6-10.2,3.6c-2.9,0-5.2-0.8-7.1-2.5c-2-1.8-3-4.1-3-7.1c0-3.9,1.3-6.6,4-8.2c2.4-1.4,6.3-2.1,11.7-2.1
				c1.1,0,2.3,0,3.6,0.1c0-0.5,0-0.9,0-1.3v-1.1c0-3.7-1.6-5.5-4.8-5.5c-1.7,0-3.7,0.5-6.2,1.5l0.1,1.1c0,0.4,0.1,0.6,0.1,0.8
				c0,0.4-0.2,0.6-0.6,0.6l-4.8,0.1c-0.3-0.1-0.5-0.3-0.6-0.6l-0.5-8c0-0.5,0.2-0.7,0.6-0.8l4.7-0.6c0.4,0,0.6,0.2,0.6,0.6v2.3
				C689.8,249.1,693,248.2,695.8,248.2z M690.5,276.3c2.2,0,4.5-0.6,7.1-1.9c0-1.2,0.1-2.6,0.1-4.1s0-3,0.1-4.4
				c-4.9,0-8.4,0.4-10.3,1.3c-1.8,0.8-2.6,2.1-2.6,3.9C684.8,274.6,686.7,276.3,690.5,276.3z"/>
			<path class="st6" d="M741.5,248.4c0.5,0,0.8,0.3,0.8,1l-0.4,4.4c0,0.4-0.3,0.6-0.6,0.6l-5.1-1c2,2.1,3,4.1,3,5.8
				s-0.2,3.3-0.7,4.7s-1.2,2.6-2.2,3.5c-2.1,1.9-5.4,2.9-9.8,2.9c-1.8,0-3.4-0.2-4.8-0.6c-0.4,1-0.7,1.9-0.7,2.5
				c0,0.7,0,1.1,0.1,1.4s0.3,0.5,0.6,0.7c0.5,0.3,1.3,0.5,2.3,0.5s2,0,2.9-0.1c2.4-0.1,4.3-0.2,5.7-0.2s2.7,0.2,3.9,0.7
				c1.2,0.5,2.1,1.1,2.8,1.9c1.4,1.5,2.1,3.6,2.1,6.1c0,3.1-1.2,5.6-3.7,7.6c-2.7,2.2-6.5,3.2-11.4,3.2c-4.1,0-7.1-0.5-8.9-1.5
				c-2.1-1.2-3.2-3-3.2-5.4s1.1-5,3.2-7.8c-1.5-0.8-2.2-2.2-2.2-4.1c0-1.9,1.1-4.1,3.3-6.8c-3-1.8-4.6-4.8-4.6-9.1
				c0-3.8,1.2-6.6,3.7-8.6c2.2-1.8,5.3-2.7,9.2-2.7c2,0,3.9,0,5.6,0.1C736.4,248.4,739.4,248.4,741.5,248.4z M733.2,261.5
				c0.2-0.7,0.3-1.6,0.3-2.4c0-0.9-0.1-1.7-0.4-2.4c-0.3-0.7-0.6-1.4-1.2-1.9c-1.1-1.1-2.7-1.7-4.9-1.7c-3.4,0-5.6,1.1-6.6,3.4
				c-0.4,0.8-0.5,1.8-0.5,3c0,3.8,2.4,5.8,7.1,5.8C730.4,265.3,732.5,264,733.2,261.5z M730.7,280.3l-7.7,0.2c-0.8,0-1.4,0-2-0.1
				c-0.6,1.5-0.9,3-0.9,4.5s0.6,2.5,1.7,3.1c1.1,0.6,2.7,0.9,4.6,0.9s3.5-0.1,4.5-0.4c1.1-0.2,2-0.6,2.7-1c1.5-0.9,2.2-2,2.2-3.4
				c0-1.2-0.2-2-0.7-2.5C734.2,280.7,732.7,280.3,730.7,280.3z"/>
			<path class="st6" d="M769.5,280.4c-2.4,0.6-5.4,0.9-9.1,0.9c-3.8,0-6.5-1.2-8.2-3.5c-1.8-2.4-2.7-6.3-2.7-11.5
				c0-5.5,0.8-9.6,2.3-12.4c1.7-3,4.5-4.8,8.3-5.5c1.3-0.2,2.8-0.3,4.4-0.3c3.5,0,6,0.9,7.6,2.6c1.6,1.7,2.4,4.3,2.4,7.8
				c0,2.3-0.4,4.1-1.2,5.3c-0.3,0.4-0.6,0.8-1.1,1.3c-0.4,0.5-1.3,0.9-2.5,1.3c-1.2,0.4-2.6,0.7-4.2,0.9c-2.4,0.3-5.7,0.5-10,0.5
				c0.2,3.2,1,5.3,2.3,6.5c1,0.9,2.7,1.3,5.2,1.3c2.3,0,4.6-0.2,6.9-0.6l0.1-1.5c0-0.2,0.1-0.4,0.2-0.4c0.1-0.1,0.2-0.1,0.5-0.2
				l4.1-0.9c0.4,0,0.6,0.2,0.7,0.5s0.1,0.9,0.2,1.9c0.1,0.9,0.1,1.7,0.2,2.4s0.1,1.3,0.1,1.9l0.1,1.6c0,0.5,0,0.9,0,1.2
				c0,0.6-0.4,0.9-1.2,1l-4.7,0.6c-0.4,0-0.6-0.2-0.6-0.6L769.5,280.4z M767.8,260.4c0.1-0.6,0.2-1.2,0.2-2s-0.1-1.5-0.2-2.1
				s-0.4-1.1-0.7-1.5c-0.7-0.9-1.9-1.3-3.6-1.3c-3.2,0-5.3,0.8-6.4,2.4c-1,1.5-1.6,4.1-1.7,7.8c6.5-0.1,10.4-0.7,11.5-1.7
				C767.4,261.5,767.7,261,767.8,260.4z"/>
			<path class="st6" d="M840.3,243.3c0,0.4-0.2,0.6-0.6,0.6l-3.6-0.1l-0.1,35.7c0,0.5-0.2,0.8-0.7,0.8l-6.8,0.4
				c-0.2,0-0.5-0.2-0.6-0.6l-16.6-36.7l0.7,30.8l4.4-0.3c0.3,0,0.4,0.2,0.4,0.5l0.5,5.6c0,0.4-0.3,0.6-0.7,0.6l-13.6-0.1
				c-0.3,0-0.4-0.2-0.5-0.7l-0.5-4.7c0-0.4,0.2-0.5,0.5-0.5l4.4-0.1v-30.4l-5.1,0.2c-0.2,0-0.3-0.1-0.4-0.2c0-0.1-0.1-0.2-0.1-0.5
				l0.3-5c0-0.4,0.3-0.6,0.7-0.6l12.4-0.6c0.5,0,0.8,0.3,1,0.8l16,35.8l-0.7-30.4l-4.4-0.1c-0.2,0-0.3,0-0.4-0.1
				c-0.1-0.1-0.1-0.3-0.1-0.5l0.2-4.7c0-0.4,0.3-0.6,0.7-0.6l12.6-0.1c0.2,0,0.3,0.1,0.4,0.2c0.1,0.1,0.1,0.2,0.1,0.5L840.3,243.3z"
				/>
			<path class="st6" d="M847,264.7c0-3.2,0.3-5.9,0.8-8s1.3-3.8,2.4-5.1c1.9-2.3,5.1-3.5,9.5-3.5c3.1,0,5.3,0.3,6.7,0.9
				c1.4,0.6,2.5,1.3,3.3,2.1s1.5,1.8,2.1,3c1.2,2.5,1.7,5.7,1.7,9.6c0,3.8-0.3,6.8-0.8,8.9c-0.5,2.1-1.3,3.8-2.4,5
				c-2,2.3-5.2,3.4-9.7,3.4c-4.7,0-8-1.1-10.2-3.4C848.2,275.2,847,270.8,847,264.7z M866.1,273.5c0.6-0.7,1-1.8,1.3-3.2
				c0.3-1.3,0.4-3,0.4-5s-0.1-3.5-0.3-4.7s-0.5-2.2-0.9-3s-0.8-1.4-1.3-1.9s-1.1-0.8-1.7-1c-0.9-0.3-2.1-0.5-3.6-0.5
				s-2.7,0.1-3.5,0.3c-0.9,0.2-1.6,0.7-2.2,1.4c-1.1,1.4-1.7,4.3-1.7,8.6c0,6.1,1.7,9.6,5,10.4c1,0.2,2.1,0.4,3.3,0.4
				s2.2-0.1,3.1-0.4C864.9,274.7,865.6,274.2,866.1,273.5z"/>
			<path class="st6" d="M895.6,280.4c-0.9,0.1-2.2,0.1-4,0.1s-3.2-0.2-4.3-0.5c-1.1-0.4-2-0.9-2.7-1.7c-1.4-1.6-2.1-4.1-2.1-7.5
				c0-2.2,0-4.4,0.1-6.4s0.1-3.8,0.2-5.4c0-1.6,0.1-3.2,0.2-4.7l-3.7-0.3c-0.4,0-0.6-0.3-0.6-0.8V250c0-0.4,0.2-0.6,0.6-0.6l3.9-0.1
				c0-1,0.1-1.9,0.1-2.8l0.2-4.2c0.1-1,0.1-1.6,0.2-1.7c0.1-0.1,0.3-0.2,0.5-0.3l5.2-0.6c0.4,0,0.6,0.2,0.6,0.6c0,0.6-0.1,2-0.3,4.1
				l-0.4,4.8l11-0.3c0.4,0,0.6,0.2,0.6,0.7v4.6c0,0.4-0.2,0.6-0.6,0.6l-11.4-0.5c-0.3,4.4-0.5,8.2-0.5,11.5s0.1,5.4,0.2,6.3
				c0.1,1,0.4,1.7,0.8,2.2c0.6,0.9,2,1.3,4.1,1.3c0.6,0,1.1,0,1.6-0.1c-0.1-0.7-0.1-1.2-0.1-1.5s0.2-0.5,0.5-0.6l4.7-0.6
				c0.4,0,0.6,0.2,0.6,0.6l0.1,7.1c0,0.3-0.1,0.5-0.4,0.6l-4.2,0.7c-0.4,0-0.7-0.2-0.7-0.5L895.6,280.4z"/>
			<path class="st6" d="M925.4,243.7c-0.3-0.1-0.4-0.2-0.4-0.5l0.4-5.2c0-0.4,0.2-0.7,0.5-0.7l20.6,0.5v-1.5c0-0.4,0.2-0.7,0.6-0.7
				l4.4-0.4c0.3,0,0.5,0.2,0.6,0.6l1.5,11.8c0,0.3-0.2,0.5-0.6,0.5l-5.1,0.4c-0.7,0-1.1-0.4-1.2-1.1l-0.1-3.9l-11.1-0.3l-0.2,13.4
				l14.5-0.1c0.3,0,0.5,0.2,0.5,0.5l-0.2,4.6c0,0.4-0.3,0.6-0.8,0.6l-14.2-0.4l-0.2,12.6l7.3-0.4c0.4,0,0.6,0.2,0.6,0.6l0.3,5
				c0,0.2-0.1,0.4-0.1,0.5c-0.1,0.1-0.2,0.1-0.4,0.1l-16.9,0.3c-0.2,0-0.4-0.1-0.5-0.2c-0.1-0.1-0.2-0.2-0.2-0.4l-0.3-5.1
				c0-0.4,0.2-0.6,0.5-0.6l3.5,0.2l0.2-31.2L925.4,243.7z"/>
			<path class="st6" d="M960.5,264.7c0-3.2,0.3-5.9,0.8-8s1.3-3.8,2.4-5.1c2-2.3,5.1-3.5,9.5-3.5c3.1,0,5.3,0.3,6.7,0.9
				c1.4,0.6,2.5,1.3,3.3,2.1s1.5,1.8,2.1,3c1.2,2.5,1.7,5.7,1.7,9.6c0,3.8-0.3,6.8-0.8,8.9c-0.5,2.1-1.3,3.8-2.4,5
				c-2,2.3-5.2,3.4-9.7,3.4c-4.7,0-8-1.1-10.2-3.4C961.7,275.2,960.5,270.8,960.5,264.7z M979.7,273.5c0.6-0.7,1-1.8,1.3-3.2
				c0.3-1.3,0.4-3,0.4-5s-0.1-3.5-0.3-4.7s-0.5-2.2-0.9-3s-0.8-1.4-1.3-1.9s-1.1-0.8-1.7-1c-0.9-0.3-2.1-0.5-3.6-0.5
				s-2.7,0.1-3.5,0.3c-0.9,0.2-1.6,0.7-2.2,1.4c-1.1,1.4-1.7,4.3-1.7,8.6c0,6.1,1.7,9.6,5,10.4c1,0.2,2.1,0.4,3.3,0.4
				s2.2-0.1,3.1-0.4C978.4,274.7,979.1,274.2,979.7,273.5z"/>
			<path class="st6" d="M1020.1,249.6c0.3,0,0.4,0.2,0.4,0.7l0.3,23.7l3.8-0.1c0.4,0,0.6,0.2,0.6,0.7l-0.5,5.1
				c0,0.4-0.2,0.6-0.7,0.6h-7c-0.6,0-1-0.4-1.2-1.1l-0.7-2.8c-3.1,2.7-6.6,4-10.6,4c-5.5,0-8.3-3.5-8.3-10.6c0-2.5,0.1-5.2,0.4-8.2
				l0.6-6.4l-3.6,0.1c-0.4,0-0.6-0.2-0.6-0.7l0.6-5c0-0.2,0.1-0.4,0.2-0.4c0.1-0.1,0.2-0.1,0.5-0.1l8.9,0.2c0.3,0,0.4,0.2,0.4,0.6
				c-0.1,0.9-0.2,1.9-0.3,3c-0.8,8.5-1.2,13.7-1.2,15.7s0.4,3.4,1.1,4.3c0.8,0.9,2.1,1.3,4.1,1.3s4.4-1,7.5-2.9v-16.2l-3.5-0.2
				c-0.3,0-0.4-0.2-0.5-0.5l0.5-4.6c0.1-0.4,0.3-0.6,0.6-0.6L1020.1,249.6z"/>
			<path class="st6" d="M1049.4,255.1c-2.4,0-5.1,1-8.2,2.9l0.3,16.9l3.1-0.3c0.3,0,0.5,0.2,0.5,0.5l-0.5,4.4
				c-0.1,0.4-0.3,0.6-0.6,0.6h-11.7c-0.3,0-0.4-0.2-0.4-0.7l0.6-4.3c0.1-0.4,0.3-0.6,0.6-0.6h2.4v-18.6l-4.3-0.1
				c-0.4,0-0.6-0.2-0.6-0.7l0.5-4.9c0-0.3,0.3-0.5,0.7-0.6l7.8-1.2c0.3,0,0.5,0.2,0.5,0.6v4.9c3.9-3.9,7.7-5.8,11.4-5.8
				c4.3,0,6.8,2,7.7,6.1c0.3,1.3,0.4,2.6,0.4,3.8s0,2.2,0,3s0,1.7-0.1,2.6l-0.1,2.9c0,1-0.1,2.1-0.1,3.1l-0.1,3c0,1-0.1,1.8-0.1,2.6
				l3.2-0.1c0.4,0,0.6,0.2,0.6,0.7v4.1c0,0.2-0.1,0.4-0.2,0.4c-0.1,0.1-0.3,0.1-0.5,0.1l-8.2,0.6c-0.4,0-0.6-0.2-0.6-0.6
				c0.1-2,0.1-4,0.1-5.8l0.1-4.7c0-1.3,0-2.6,0-3.7V261c0-2.3-0.2-3.8-0.6-4.5c-0.4-0.6-0.9-1.1-1.4-1.3
				C1051,255.2,1050.3,255.1,1049.4,255.1z"/>
			<path class="st6" d="M1085.6,240.7c-0.4,0-0.6-0.2-0.6-0.7l0.3-4.5c0-0.4,0.3-0.6,0.6-0.6l9.7,0.5c0.3,0,0.5,0.3,0.5,0.6v39.5
				l3-0.3c0.4,0,0.6,0.2,0.6,0.5l-0.5,4.4c-0.1,0.3-0.3,0.5-0.6,0.6l-7,1.1c-0.4,0-0.5-0.2-0.5-0.6l0.2-2.8c-3.2,1.3-6,1.9-8.5,1.9
				s-4.5-0.3-6-1s-2.7-1.7-3.7-3c-1.7-2.5-2.5-6.6-2.5-12.4c0-8.3,2.1-13.4,6.4-15.1c1.4-0.6,3.4-0.9,5.9-0.9s5.1,0.5,7.8,1.6
				l-0.4-8.9L1085.6,240.7z M1090.9,255.4c-2.7-0.7-4.9-1-6.6-1s-3,0.1-3.9,0.4c-0.9,0.3-1.6,0.8-2.2,1.5c-1.1,1.4-1.6,4.1-1.6,8.1
				s0.4,6.6,1.3,8c0.9,1.5,2.7,2.3,5.4,2.3c2.2,0,4.5-0.4,7-1.1L1090.9,255.4z"/>
			<path class="st6" d="M1113.3,253.6c0.2,0.5,0.4,1,0.5,1.6c0.1,0.6,0.2,1.1,0.2,1.6s-0.2,0.9-0.5,1.3c-0.3,0.4-0.8,0.7-1.3,1
				c-1.1,0.5-2.2,0.8-3.3,0.8s-1.8-0.2-2.2-0.5c-0.4-0.3-0.7-0.7-1-1.2c-0.5-0.9-0.7-1.9-0.7-2.8c0-0.9,0.2-1.6,0.6-2s0.9-0.7,1.5-1
				c1-0.4,2.1-0.6,3.1-0.6s1.7,0.2,2.1,0.5C1112.8,252.7,1113.1,253.1,1113.3,253.6z M1113.3,275.1c0.2,0.5,0.4,1,0.5,1.6
				c0.1,0.6,0.2,1.1,0.2,1.6s-0.2,0.9-0.5,1.3c-0.3,0.4-0.8,0.7-1.3,1c-1.1,0.5-2.2,0.8-3.3,0.8s-1.8-0.2-2.2-0.5
				c-0.4-0.3-0.7-0.7-1-1.2c-0.5-0.9-0.7-1.9-0.7-2.8c0-0.9,0.2-1.6,0.6-2s0.9-0.7,1.5-1c1-0.4,2.1-0.6,3.1-0.6s1.7,0.2,2.1,0.5
				C1112.8,274.2,1113.1,274.7,1113.3,275.1z"/>
			<path class="st6" d="M1128.7,274.4c0.4,2.3,0.9,3.9,1.5,4.8c0.6,0.9,1.3,1.3,2.1,1.3c0.8,0,1.4,0,1.9-0.1c0.3,0,0.5,0.2,0.5,0.7
				l-0.3,4.3c0,0.3-0.3,0.5-0.6,0.5c-1,0.1-1.7,0.1-2.3,0.1c-3.5,0-5.9-2.2-7.3-6.6c-1.2-3.8-1.8-9.9-1.8-18.4
				c0-8.8,0.7-15.3,2.2-19.4c1.6-4.6,4.5-6.9,8.4-6.9c1.3,0,2,0.1,2.1,0.2s0.1,0.3,0.2,0.5l0.3,4.4c0,0.4-0.1,0.5-0.4,0.5
				c-0.2,0-0.6-0.1-1.1-0.1c-1.3,0-2.3,0.4-3.1,1.2c-0.8,0.8-1.4,2-1.8,3.6c-0.7,2.7-1,7.8-1,15.4
				C1128,267.4,1128.2,272.1,1128.7,274.4z"/>
			<polygon class="st7" points="1265,-62.9 1135.2,-59.6 1148,-107.9 			"/>
			<polygon class="st5" points="1148,-107.9 1148,-33.7 1296.8,-70.8 			"/>
			<polygon class="st7" points="1296.8,-70.8 1156.7,-124.2 1156.7,-105.7 			"/>
			<g class="st0">
				<path class="st8" d="M919.8,413.2H550.9c-21.4,0-38.8-17.5-38.8-38.8v-9.7c0-21.4,17.5-38.8,38.8-38.8h368.9
					c21.4,0,38.8,17.5,38.8,38.8v9.7C958.6,395.7,941.1,413.2,919.8,413.2z"/>
				<g class="st2">
					<path class="st9" d="M913.3,408.4H544.4c-22.3,0-40.4-18.1-40.4-40.4v-9.7c0-22.3,18.1-40.4,40.4-40.4h368.9
						c22.3,0,40.4,18.1,40.4,40.4v9.7C953.8,390.2,935.6,408.4,913.3,408.4z M544.4,321c-20.5,0-37.2,16.7-37.2,37.2v9.7
						c0,20.5,16.7,37.2,37.2,37.2h368.9c20.5,0,37.2-16.7,37.2-37.2v-9.7c0-20.5-16.7-37.2-37.2-37.2H544.4z"/>
				</g>
				<g class="st2">
					<g>
						<path class="st4" d="M913.3,406.8H544.4c-21.4,0-38.8-17.5-38.8-38.8v-9.7c0-21.4,17.5-38.8,38.8-38.8h368.9
							c21.4,0,38.8,17.5,38.8,38.8v9.7C952.2,389.3,934.7,406.8,913.3,406.8z"/>
					</g>
					<path class="st6" d="M607.2,366.7c-0.4-0.1-0.6-0.3-0.6-0.6l0.1-5c0-0.4,0.2-0.6,0.7-0.6l13.7-0.9c0.7,0,1.1,0.4,1.1,1.2
						l-0.1,4.8c0,0.2-0.1,0.4-0.2,0.5s-0.2,0.2-0.3,0.2l-1.5,0.1l0.5,16.7c0,0.5-0.3,0.8-0.7,0.8c-1.1,0-2.8-0.6-5.3-1.9
						c-2.5,1.5-5.3,2.2-8.2,2.2s-5.4-0.4-7.5-1.3c-2.1-0.9-3.8-2.2-5.2-4.1c-2.9-3.8-4.3-9.6-4.3-17.4c0-11,3.1-17.6,9.3-20
						c2-0.8,4.2-1.1,6.6-1.1c3.5,0,6.4,0.9,8.6,2.7l0.6-3.4c0.1-0.5,0.3-0.7,0.6-0.7l4.4-0.4c0.5,0,0.7,0.2,0.7,0.6l0.3,10.3
						c0,0.4-0.2,0.6-0.6,0.6l-5.3,0.7c-1.1-1.5-2.2-2.6-3-3.1c-1.6-1-3.2-1.5-4.9-1.5c-1.7,0-3.2,0.2-4.6,0.7s-2.6,1.3-3.5,2.4
						c-2,2.4-3.1,6.5-3.1,12.1c0,9.1,2.3,14.4,6.9,16c1.4,0.5,3.2,0.7,5.3,0.7c2.1,0,4.3-0.4,6.6-1.2l-0.1-10.3L607.2,366.7z"/>
					<path class="st6" d="M662.1,362.4c0,14.3-5.3,21.4-15.8,21.4c-5.5,0-9.7-1.8-12.5-5.4c-2.8-3.6-4.2-8.9-4.2-16
						c0-10.9,3-17.8,8.9-20.7c2-1,4.3-1.5,7-1.5s5,0.4,7.1,1.2c2.1,0.8,3.8,2.1,5.2,3.9C660.6,348.9,662.1,354.6,662.1,362.4z
						 M655.7,362c0-2.9-0.2-5.4-0.7-7.5s-1.1-3.7-2-4.9s-1.9-2-3.2-2.4s-2.7-0.7-4.4-0.7c-1.7,0-3.2,0.3-4.4,1
						c-1.2,0.6-2.2,1.6-3,2.9c-1.4,2.4-2.1,6.4-2.1,11.8c0,5.6,0.9,9.5,2.6,11.9c1.6,2.2,4.3,3.2,8,3.2c3.4,0,5.8-1.2,7.2-3.6
						C655,371.5,655.7,367.6,655.7,362z"/>
					<path class="st6" d="M703.2,376.7c0.3,0,0.5,0.2,0.5,0.5l-0.4,5.3c0,0.4-0.3,0.6-0.7,0.6l-13.1,0.2c-0.3,0-0.5-0.2-0.5-0.7
						l0.1-5c0-0.3,0.1-0.5,0.4-0.5l3,0.1v-30.4h-3.7c-0.2,0-0.3,0-0.4-0.1c-0.1-0.1-0.1-0.3-0.1-0.5l-0.3-5c0-0.2,0.1-0.4,0.2-0.4
						c0.1-0.1,0.3-0.1,0.5-0.2l14,0.2c0.3,0,0.5,0.3,0.5,0.6l-0.1,5c0,0.4-0.2,0.6-0.6,0.6l-3.7-0.2v12.4L714,359v-12.9l-3.9-0.1
						c-0.2,0-0.3,0-0.4-0.1s-0.1-0.3-0.1-0.5l0.2-4.7c0-0.4,0.3-0.6,0.7-0.6l13.1-0.1c0.2,0,0.3,0.1,0.4,0.2
						c0.1,0.1,0.1,0.2,0.1,0.5l0.4,5c0,0.4-0.2,0.6-0.6,0.6l-3.6-0.1l-0.1,31.3l4.3-0.1c0.3,0,0.5,0.2,0.5,0.5l-0.4,5
						c0,0.4-0.3,0.6-0.7,0.6l-13.3-0.4c-0.3,0-0.5-0.2-0.5-0.7l0.1-4.7c0-0.3,0.2-0.5,0.5-0.5l3.4,0.3v-12.8l-15.3,0.1v12.1
						L703.2,376.7z"/>
					<path class="st6" d="M764.7,362.4c0,14.3-5.3,21.4-15.8,21.4c-5.5,0-9.7-1.8-12.5-5.4c-2.8-3.6-4.2-8.9-4.2-16
						c0-10.9,3-17.8,8.9-20.7c2-1,4.3-1.5,7-1.5c2.7,0,5,0.4,7.1,1.2s3.8,2.1,5.2,3.9C763.2,348.9,764.7,354.6,764.7,362.4z
						 M758.3,362c0-2.9-0.2-5.4-0.7-7.5s-1.1-3.7-2-4.9s-1.9-2-3.2-2.4s-2.7-0.7-4.4-0.7c-1.7,0-3.2,0.3-4.4,1
						c-1.2,0.6-2.2,1.6-3,2.9c-1.4,2.4-2.1,6.4-2.1,11.8c0,5.6,0.9,9.5,2.6,11.9c1.6,2.2,4.3,3.2,8,3.2c3.4,0,5.8-1.2,7.2-3.6
						C757.6,371.5,758.3,367.6,758.3,362z"/>
					<path class="st6" d="M807.6,383.4c-0.4,0-0.6-0.2-0.7-0.6l0.2-4.7c0-0.4,0.2-0.5,0.5-0.5h1.9l-1.7-31.7l-9,37.3
						c-0.1,0.4-0.3,0.6-0.7,0.6l-6,0.1c-0.3,0-0.6-0.2-0.6-0.6l-9.3-36.1l-0.8,30.2l2.6-0.1c0.2,0,0.4,0.2,0.4,0.5l0.5,5
						c0,0.4-0.3,0.6-0.7,0.6l-12.2,0.2c-0.3,0-0.5-0.2-0.5-0.7l0.3-5.3c0-0.3,0.2-0.5,0.5-0.5l3.7,0.3l1.7-30.4l-3.5,0.3
						c-0.4,0-0.6-0.2-0.6-0.6l-0.3-5.2c0-0.4,0.3-0.6,0.7-0.6l11.5-0.6c0.5,0,0.9,0.3,1,0.8l8.9,35.7l8.9-35.4
						c0.1-0.5,0.5-0.8,1-0.8l11.1,0.1c0.2,0,0.4,0.1,0.5,0.2c0.1,0.1,0.2,0.2,0.2,0.4l0.3,5.5c0,0.2-0.1,0.4-0.1,0.5
						s-0.2,0.1-0.4,0.1h-3.5l1.9,30.1l3.7-0.1c0.3,0.1,0.4,0.2,0.4,0.5l-0.5,4.7c-0.1,0.4-0.2,0.7-0.5,0.7L807.6,383.4z"/>
					<path class="st6" d="M859,384.6c-0.1,0.4-0.3,0.6-0.6,0.6l-5.3-0.1c-0.4,0-0.6-0.2-0.6-0.7l-0.1-1.7l-25.1,0.7
						c-0.4,0-0.7-0.2-0.7-0.7l0.2-5.2c0-0.3,0.1-0.5,0.4-0.5l3.5,0.5l-0.2-30.6l-3.5,0.3c-0.3,0-0.5-0.2-0.5-0.6l0.3-5.1
						c0-0.4,0.3-0.6,0.7-0.6l28.1-1.1c0.6,0,0.8,0.3,0.8,0.8l-0.6,10.3c0,0.4-0.2,0.6-0.5,0.6l-4.7-0.2c-0.3,0-0.4-0.1-0.5-0.2
						c-0.1-0.1-0.1-0.3-0.1-0.5l-0.2-4.8l-13.3,0.7l0.2,13.1l13.8-0.9c0.5,0,0.7,0.2,0.8,0.6l0.2,4.7c0,0.4-0.2,0.6-0.6,0.6
						l-14.1,0.2l0.2,12.9l15.2-0.5l-0.1-3.7c0-0.7,0.4-1.1,1.2-1.1l4.6,0.1c0.4,0,0.6,0.2,0.6,0.5L859,384.6z"/>
				</g>
			</g>
			<polygon class="st5" points="1156.7,-124.2 1135.2,-148.4 1296.8,-70.8 			"/>
		</g>
	</g>
	<g id="_x34_04-D3" class="st0">
	</g>
	<g id="_x34_04-D4" class="st0">
	</g>
	<g id="CRM-D1">
	</g>
	<g id="CRM-R1" class="st0">
	</g>
	<g id="Mes-D1" class="st0">
	</g>
	<g id="Mes-R1" class="st0">
	</g>
	<g id="Mes-D2" class="st0">
	</g>
	<g id="Mes-R2" class="st0">
	</g>
	<g id="Reg-D1">
	</g>
	<g id="Reg-R1">
	</g>
	<g id="Regla_All" class="st0">
	</g>
	<g id="Colors" class="st0">
	</g>
</g>
</svg>
