<?xml version="1.0" encoding="utf-8"?>
<!-- Generator: Adobe Illustrator 19.1.0, SVG Export Plug-In . SVG Version: 6.00 Build 0)  -->
<svg version="1.1" id="Capa_1" xmlns="http://www.w3.org/2000/svg" xmlns:xlink="http://www.w3.org/1999/xlink" x="0px" y="0px"
	 viewBox="-99 98.3 201 205.7" style="enable-background:new -99 98.3 201 205.7;" xml:space="preserve">
<style type="text/css">
	.st0{display:none;}
	.st1{display:none;opacity:0.82;enable-background:new    ;}
	.st2{display:inline;}
	.st3{clip-path:url(#SVGID_2_);}
	.st4{clip-path:url(#SVGID_4_);fill:#6582C4;}
	.st5{clip-path:url(#SVGID_6_);}
	.st6{fill:#FAAB9E;}
	.st7{fill:#ED998D;}
	.st8{fill:#FDC0AE;}
	.st9{fill:#F7B9AA;}
	.st10{fill:#C3634B;}
	.st11{fill:#471A12;}
	.st12{fill:#FFFFFF;}
	.st13{fill:#DDD1C2;}
	.st14{fill:#C1B7AE;}
	.st15{fill:#F7AD9E;}
	.st16{fill:#A9E1F7;}
	.st17{fill:#F4A8E9;}
</style>
<g id="Img">
</g>
<g id="Ini-D1" class="st0">
</g>
<g id="Ini-R-1" class="st0">
</g>
<g id="Ini-D-2">
	<g class="st1">
		<g class="st2">
			<g>
				<defs>
					<rect id="SVGID_1_" x="-948.9" y="-59.9" width="1920" height="937.5"/>
				</defs>
				<clipPath id="SVGID_2_">
					<use xlink:href="#SVGID_1_"  style="overflow:visible;"/>
				</clipPath>
				<g class="st3">
					
						<image style="overflow:visible;enable-background:new    ;" width="1922" height="1282" xlink:href="6AB0DEE.jpg"  transform="matrix(1 0 0 1 -949.3521 -193.1092)">
					</image>
				</g>
			</g>
		</g>
	</g>
	<g>
		<g>
			<g>
				<defs>
					<circle id="SVGID_3_" cx="3.7" cy="204.9" r="89.5"/>
				</defs>
				<clipPath id="SVGID_4_">
					<use xlink:href="#SVGID_3_"  style="overflow:visible;"/>
				</clipPath>
				<circle class="st4" cx="3.7" cy="204.9" r="89.5"/>
			</g>
		</g>
		<g>
			<g>
				<defs>
					<circle id="SVGID_5_" cx="3.7" cy="204.9" r="89.5"/>
				</defs>
				<clipPath id="SVGID_6_">
					<use xlink:href="#SVGID_5_"  style="overflow:visible;"/>
				</clipPath>
				<g class="st5">
					<g>
						<g>
							<path class="st6" d="M16.7,218.4c-2.2-4.3-0.9-14.2-0.9-14.2l-12.1-0.9l-12.1,0.9c0,0,1.3,9.9-0.9,14.2
								c-2.2,4.3-22,6.5-22,6.5s0,5.2,3.5,12.1c2.7,5.4,20.7,7.9,28.2,8.7c2.2,0.2,4.4,0.2,6.5,0c7.5-0.8,25.5-3.3,28.2-8.7
								c3.5-6.9,3.5-12.1,3.5-12.1S18.8,222.8,16.7,218.4z"/>
						</g>
						<g>
							<path class="st7" d="M16.7,218.4c-2.2-4.3-0.9-14.2-0.9-14.2l-12.1-0.9l-12.1,0.9c0,0,0.4,3.2,0.4,6.8
								c4.3,4.9,10,8.9,17.8,10.5c5.7,1.2,10.8,1.4,15.4,1C21.1,221.5,17.5,220.2,16.7,218.4z"/>
						</g>
					</g>
					<g>
						<g>
							<g>
								<path class="st6" d="M-25.8,176.4c0,0-2.8-6.4-8.1-3.9s-0.8,14,4.5,15.4c5.3,1.4,6.7-1.1,6.2-4.8
									C-23.9,179.5-25.8,176.4-25.8,176.4z"/>
							</g>
							<g>
								<path class="st7" d="M-25.3,180.1c0,0-4.2-7.7-7.7-5.2c-2.6,1.8,0.5,7.3,0.6,6.1c0.1-1.3-1.8-4-0.4-4.6
									c1.4-0.6,3.8,0.8,3.2,2c-0.6,1.2-1.4,3.9-0.2,3.8c1.1-0.2,2.1-0.9,2.1-0.2c0,0.8-1.4,0.9-0.7,2.5c0.7,1.6,3.6,1.7,3.8-0.5
									C-24.5,181.9-25.3,180.1-25.3,180.1z"/>
							</g>
						</g>
						<g>
							<g>
								<path class="st6" d="M33.3,176.4c0,0,2.8-6.4,8.1-3.9s0.8,14-4.5,15.4c-5.3,1.4-6.7-1.1-6.2-4.8
									C31.3,179.5,33.3,176.4,33.3,176.4z"/>
							</g>
							<g>
								<path class="st7" d="M33,180.1c0,0,4.2-7.7,7.7-5.2c2.6,1.8-0.5,7.3-0.6,6.1c-0.1-1.3,1.8-4,0.4-4.6c-1.4-0.6-3.8,0.8-3.2,2
									c0.6,1.2,1.4,3.9,0.2,3.8c-1.1-0.2-2.1-0.9-2.1-0.2c0,0.8,1.4,0.9,0.7,2.5c-0.7,1.6-3.6,1.7-3.8-0.5
									C32.2,181.9,33,180.1,33,180.1z"/>
							</g>
						</g>
						<g>
							<path class="st8" d="M35.1,146.7c-6.2-18.8-31.4-18.8-31.4-18.8s-25.2,0-31.4,18.8c-4.7,14.4-1.7,41.5,8.1,55
								c2.4,3.3,5.1,5.9,7.7,7.9c9.2,7,21.9,7,31.1,0c2.6-2,5.3-4.6,7.7-7.9C36.8,188.2,39.8,161.1,35.1,146.7z"/>
						</g>
						<path class="st9" d="M35.1,146.7c-2.3-7.1-7.3-11.5-12.7-14.2c-0.1,4.9,0,8.3,0,8.3s12,20.3-0.8,48.9
							c-9.7,21.5-23.6,21.9-34.1,19.4c0.2,0.2,0.5,0.4,0.7,0.5c9.2,7,21.9,7,31.1,0c2.6-2,5.3-4.6,7.7-7.9
							C36.8,188.2,39.8,161.1,35.1,146.7z"/>
						<g>
							<path class="st10" d="M3.9,190.9c-0.2,0-0.4,0-0.5,0c-0.3-0.1-0.5-0.3-0.4-0.6s0.4-0.5,0.6-0.4c0.7,0.1,4.7-0.5,6.1-2.5
								c0.9-1.3-1.2-5-2.8-7.7c-0.6-1.1-1.2-2.2-1.7-3c-1.4-2.9,0.8-5.3,2.1-6.2c0.2-0.2,0.6-0.1,0.7,0.1c0.2,0.2,0.1,0.6-0.1,0.7
								c-0.1,0.1-3,2.1-1.7,4.9c0.4,0.8,1,1.9,1.6,2.9c2,3.4,4,7,2.7,8.8C9.1,190,5.5,190.9,3.9,190.9z"/>
						</g>
						<g>
							<path class="st10" d="M4.5,200.1c-8,0-10.9-5-11.1-5.2c-0.1-0.3-0.1-0.6,0.2-0.7c0.3-0.1,0.6-0.1,0.7,0.2
								c0.2,0.3,4,6.7,15.3,4.1c0.3-0.1,0.6,0.1,0.6,0.4c0.1,0.3-0.1,0.6-0.4,0.6C7.9,199.9,6.1,200.1,4.5,200.1z"/>
						</g>
						<g>
							<circle class="st11" cx="-10.2" cy="174.8" r="3.6"/>
						</g>
						<g>
							<circle class="st11" cx="18.1" cy="174.8" r="3.6"/>
						</g>
						<circle class="st12" cx="-9.1" cy="175.7" r="0.8"/>
						<circle class="st12" cx="19.1" cy="175.5" r="0.8"/>
						<g>
							<path class="st11" d="M-28.4,179.4c0,0-5.5-15.9-4.4-27.6c1.2-11.7,7.2-18.2,11.4-19.4c0,0,0-9.8,12.4-12.6
								s27.1,5.4,35.9,6.3c8.9,0.9,13.1-5.6,13.5-2.8c0.5,2.8-0.7,8.2-2.6,10c0,0,5.1-2.6,4.9-0.5c-0.2,2.1-1.9,5.4-4.7,7.5
								c0,0,2.6,7,1.6,16.6c-0.9,9.6-4,21.1-4,21.1s-3-10.3-4.6-16.4c-1.6-6.1-0.7-12.4-0.7-12.4s-8.4-7.2-15.9-6.3
								c-7.5,0.9-17.7,6.5-23.6,6.3c-5.8-0.2-7.5-2.1-7.5-2.1s2.8,8.6-4,12.6C-27.1,163.7-28.4,179.4-28.4,179.4z"/>
						</g>
						<g>
							<path class="st11" d="M-6.3,166.3c0,0-3.2-3.4-6.9-2s-4.9,4.1-4.9,4.1S-12.1,164.2-6.3,166.3z"/>
						</g>
						<g>
							<path class="st11" d="M13.3,166.3c0,0,3.2-3.4,6.9-2s4.9,4.1,4.9,4.1S19,164.2,13.3,166.3z"/>
						</g>
					</g>
					<g>
						<g>
							<path class="st13" d="M67.7,296.4H-60.2c0,0,1.7-49.9,10.1-62.5c7.6-11.3,33-14.8,38-15.4c1.5,7.5,8,13.2,15.8,13.2
								S18,226,19.5,218.5c5,0.6,30.4,4.1,38,15.4C66,246.5,67.7,296.4,67.7,296.4z"/>
						</g>
					</g>
					<g>
						<path class="st13" d="M67.7,289.8c0,0-1.7-45.7-10.2-57.2c-7.6-10.3-33-13.6-38-14.1c-0.3,1.5-0.9,3-1.7,4.3
							c1.2,0.2,11.8,2.8,17.1,16.7c3.9,10.3,0.3,35.5-1.4,50.3H67.7L67.7,289.8z"/>
					</g>
					<g>
						<path class="st14" d="M-15.1,218.8c1.7,8.3,9.4,14.6,18.8,14.6c9.3,0,17.1-6.3,18.8-14.6c-1.3-0.2-2.3-0.3-3-0.4
							c-1.5,6.9-8,12.1-15.8,12.1s-14.3-5.2-15.8-12.1C-12.7,218.5-13.8,218.7-15.1,218.8z"/>
					</g>
					<g>
						<g>
							<g>
								<path class="st14" d="M-34.9,255.7c0,0.2-3.1,14.7-4,34.1h-2c0.9-19.6,4-34.4,4.1-34.5c0.1-0.5,0.7-0.9,1.2-0.8
									C-35.2,254.6-34.8,255.1-34.9,255.7z"/>
							</g>
						</g>
						<g>
							<g>
								<path class="st14" d="M48.4,289.8h-2c-0.9-19.4-4-33.9-4-34.1c-0.1-0.5,0.2-1.1,0.8-1.2c0.5-0.1,1.1,0.2,1.2,0.8
									C44.4,255.4,47.5,270.1,48.4,289.8z"/>
							</g>
						</g>
					</g>
					<circle class="st15" cx="-13" cy="187.5" r="4.8"/>
					<circle class="st15" cx="20.7" cy="187.5" r="4.8"/>
					<g id="Logo_Xacalli_13_">
						<g>
							<path class="st12" d="M-17.9,258.8c-0.5-0.7-2.2-2.9-4.9-6.7c-0.7,0.9-2.1,2.8-4.1,5.6l-0.7,1H-30c0.6-0.7,1.4-1.6,2.4-2.9
								c1-1.3,1.7-2.2,2-2.6c0.3-0.4,0.9-1.2,1.8-2.4c-3.1-4.2-4.9-6.8-5.6-7.6h3l4.4,6.1c1.4-1.7,2.8-3.8,4.4-6.1h2.2
								c-1.5,1.9-3.4,4.3-5.7,7.4c3.1,4.3,5.1,7,6,8.1L-17.9,258.8L-17.9,258.8z"/>
							<path class="st12" d="M-13.1,253.1c0.7-0.6,1.8-0.9,3.1-0.9c0.5,0,1,0.1,1.6,0.2c0.5,0.1,1,0.3,1.4,0.6v-0.6
								c-0.1-2.3-1-3.5-2.6-3.5c-0.5,0-1,0.1-1.2,0.4c-0.3,0.2-0.5,0.5-0.6,0.7s-0.2,0.4-0.3,0.4c-0.2,0.1-0.4,0.1-0.6,0.1
								c-0.3,0-0.5-0.1-0.7-0.2s-0.3-0.3-0.3-0.6c0-0.3,0.1-0.6,0.4-0.9c0.3-0.3,0.7-0.5,1.3-0.7s1.2-0.3,2-0.3
								c1.5,0,2.7,0.4,3.5,1.2s1.3,1.9,1.3,3.4c0,1,0,1.8,0.1,2.5v0.6c0,0.6,0.1,1,0.2,1.3c0.1,0.3,0.2,0.5,0.4,0.7
								c0.2,0.2,0.5,0.2,1,0.2v1c-0.3,0.2-0.7,0.2-1.4,0.2c-1.1,0-1.8-0.7-2.1-2c-0.3,0.6-0.8,1.1-1.4,1.5c-0.6,0.4-1.3,0.6-2.1,0.6
								c-0.7,0-1.3-0.1-1.9-0.4c-0.6-0.3-1.1-0.7-1.5-1.2s-0.6-1.1-0.6-1.8C-14.2,254.6-13.9,253.7-13.1,253.1z M-11.3,257.1
								c0.5,0.4,1.1,0.6,1.8,0.6c0.4,0,0.8-0.1,1.2-0.4c0.4-0.2,0.7-0.6,1-1c0.2-0.4,0.3-0.8,0.3-1.3v-1.1c-0.7-0.6-1.6-0.8-2.5-0.8
								c-0.8,0-1.4,0.2-1.8,0.6c-0.4,0.4-0.6,0.9-0.6,1.6C-12,256.1-11.8,256.7-11.3,257.1z"/>
							<path class="st12" d="M-1.2,250.5c0.5-0.9,1.1-1.5,1.9-2c0.8-0.5,1.7-0.7,2.7-0.7c0.8,0,1.4,0.1,2.1,0.4
								c0.6,0.2,1.1,0.5,1.5,0.9c0.4,0.4,0.7,0.8,0.8,1.2c0,0.1,0,0.1,0,0.2c0,0.2-0.1,0.4-0.3,0.6c-0.2,0.2-0.4,0.3-0.6,0.3
								c-0.1,0-0.3,0-0.5,0s-0.3,0-0.4,0c-0.3-0.8-0.6-1.4-1.1-1.9s-1-0.7-1.6-0.7c-0.9,0-1.6,0.4-2.1,1.2s-0.8,1.8-0.8,3
								c0,0.9,0.2,1.7,0.5,2.4c0.3,0.7,0.8,1.2,1.4,1.6c0.6,0.4,1.2,0.6,1.9,0.6c0.6,0,1.1-0.1,1.7-0.4c0.6-0.3,1-0.7,1.3-1.2
								c0.2,0,0.3,0.1,0.5,0.2c0.1,0.1,0.2,0.3,0.2,0.4c0,0.4-0.3,0.8-0.6,1.2c-0.4,0.4-0.9,0.7-1.5,0.9s-1.3,0.4-2.1,0.4
								c-1,0-1.9-0.2-2.7-0.7s-1.5-1.2-2-2c-0.5-0.9-0.7-1.8-0.7-2.9C-1.9,252.3-1.7,251.3-1.2,250.5z"/>
							<path class="st12" d="M10.6,253.1c0.7-0.6,1.8-0.9,3.1-0.9c0.5,0,1,0.1,1.6,0.2c0.5,0.1,1,0.3,1.4,0.6v-0.6
								c-0.1-2.3-1-3.5-2.6-3.5c-0.5,0-1,0.1-1.2,0.4c-0.3,0.2-0.5,0.5-0.6,0.7s-0.2,0.4-0.3,0.4c-0.2,0.1-0.4,0.1-0.6,0.1
								c-0.3,0-0.5-0.1-0.7-0.2s-0.3-0.3-0.3-0.6c0-0.3,0.1-0.6,0.4-0.9c0.3-0.3,0.7-0.5,1.3-0.7s1.2-0.3,2-0.3
								c1.5,0,2.7,0.4,3.5,1.2s1.3,1.9,1.3,3.4c0,1,0,1.8,0.1,2.5v0.6c0,0.6,0.1,1,0.2,1.3c0.1,0.3,0.2,0.5,0.4,0.7
								c0.2,0.2,0.5,0.2,1,0.2v1c-0.3,0.2-0.7,0.2-1.4,0.2c-1.1,0-1.8-0.7-2.1-2c-0.3,0.6-0.8,1.1-1.4,1.5c-0.6,0.4-1.3,0.6-2.1,0.6
								c-0.7,0-1.3-0.1-1.9-0.4c-0.6-0.3-1.1-0.7-1.5-1.2s-0.6-1.1-0.6-1.8C9.5,254.6,9.9,253.7,10.6,253.1z M12.4,257.1
								c0.5,0.4,1.1,0.6,1.8,0.6c0.4,0,0.8-0.1,1.2-0.4c0.4-0.2,0.7-0.6,1-1c0.2-0.4,0.3-0.8,0.3-1.3v-1.1c-0.7-0.6-1.6-0.8-2.5-0.8
								c-0.8,0-1.4,0.2-1.8,0.6c-0.4,0.4-0.6,0.9-0.6,1.6C11.7,256.1,12,256.7,12.4,257.1z"/>
							<path class="st12" d="M25,257c0.1,0.3,0.3,0.5,0.5,0.6c0.2,0.1,0.5,0.1,0.8,0.1v1c-0.4,0.2-0.8,0.2-1.4,0.2
								c-0.8,0-1.3-0.3-1.7-0.8s-0.6-1.3-0.6-2.2v-11c0-0.5-0.1-1-0.1-1.2c-0.1-0.3-0.2-0.5-0.3-0.7c0-0.5,0.6-0.7,1.9-0.7
								c0.5,0,0.7,0.1,0.7,0.3v0.4c0,2.7-0.1,5.4-0.1,8v4.6C24.8,256.2,24.8,256.7,25,257z"/>
							<path class="st12" d="M31,257c0.1,0.3,0.3,0.5,0.5,0.6c0.2,0.1,0.5,0.1,0.8,0.1v1c-0.4,0.2-0.8,0.2-1.4,0.2
								c-0.8,0-1.3-0.3-1.7-0.8s-0.6-1.3-0.6-2.2v-11c0-0.5-0.1-1-0.1-1.2c-0.1-0.3-0.2-0.5-0.3-0.7c0-0.5,0.6-0.7,1.9-0.7
								c0.5,0,0.7,0.1,0.7,0.3v0.4c0,2.7-0.1,5.4-0.1,8v4.6C30.9,256.2,30.9,256.7,31,257z"/>
							<path class="st12" d="M34.8,258.8c0-1.5,0.1-4.2,0.1-8.3c0-0.5-0.1-1-0.1-1.2c-0.1-0.3-0.2-0.5-0.3-0.7
								c0-0.5,0.6-0.7,1.9-0.7c0.5,0,0.7,0.1,0.7,0.3v0.4c0,0.6,0,2.1,0,4.4c0,3,0,5,0,5.9L34.8,258.8L34.8,258.8z M34.9,243.5
								c0.3-0.2,0.6-0.3,1-0.3s0.7,0.1,1,0.3s0.4,0.5,0.4,0.9c0,0.4-0.1,0.7-0.4,0.9c-0.3,0.2-0.6,0.3-1,0.3s-0.7-0.1-1-0.3
								c-0.3-0.2-0.4-0.5-0.4-0.9C34.5,244.1,34.6,243.8,34.9,243.5z"/>
							<path class="st12" d="M-23,265.6c1,0.4,1.7,1.1,2.2,1.9c0.5,0.8,0.8,1.7,0.8,2.8s-0.3,1.9-0.8,2.7s-1.2,1.4-2.2,1.8
								c-0.9,0.4-2,0.6-3.3,0.6h-2.9c0,2.8,0,4.4,0,5.1h-2.3c0-0.4,0-3.1,0-7.9c0-4.8,0-7.3,0-7.6h5.1C-25,265-23.9,265.2-23,265.6z
								 M-26.1,274c1.2,0,2.1-0.3,2.8-1c0.7-0.6,1-1.5,1-2.6c0-1.3-0.4-2.2-1.2-2.9c-0.8-0.7-1.8-1.1-3.1-1.1h-1.7
								c-0.2,0-0.4,0-0.6,0.1c-0.1,0-0.2,0.1-0.3,0.3c0,1.2,0,3.5,0,7.1c0.4,0.1,0.9,0.2,1.7,0.2L-26.1,274L-26.1,274L-26.1,274z"/>
							<path class="st12" d="M-17.6,279.2c-1-1-1.5-2.4-1.5-4.2c0-1.1,0.2-2,0.7-2.9c0.5-0.9,1.1-1.5,1.9-2s1.7-0.7,2.8-0.7
								c1.7,0,3,0.5,4,1.5s1.5,2.4,1.5,4.2c0,1.1-0.2,2-0.7,2.9c-0.5,0.8-1.1,1.5-1.9,2c-0.8,0.5-1.7,0.7-2.8,0.7
								C-15.3,280.7-16.6,280.2-17.6,279.2z M-11.2,278.5c0.5-0.8,0.7-1.7,0.7-2.8s-0.2-2-0.5-2.7c-0.3-0.8-0.7-1.3-1.3-1.7
								c-0.5-0.4-1.2-0.6-1.8-0.6c-0.8,0-1.5,0.4-2,1.1c-0.5,0.8-0.8,1.7-0.8,2.9c0,1,0.2,1.9,0.5,2.7c0.3,0.8,0.7,1.3,1.3,1.7
								c0.5,0.4,1.2,0.6,1.9,0.6C-12.4,279.6-11.7,279.2-11.2,278.5z"/>
							<path class="st12" d="M-4.6,280.2c-0.7-0.3-1.2-0.7-1.5-1.1c-0.3-0.4-0.5-0.8-0.5-1c0-0.3,0.1-0.6,0.4-0.8
								c0.2-0.2,0.5-0.3,0.9-0.3c0.1,0,0.3,0,0.6,0.1c0.3,0.8,0.6,1.4,1.2,1.9c0.5,0.5,1.1,0.7,1.8,0.7c0.6,0,1.1-0.1,1.5-0.4
								c0.4-0.3,0.6-0.6,0.6-1.1s-0.2-1-0.7-1.4c-0.5-0.4-1.2-0.7-2.1-1c-1.2-0.4-2-0.8-2.7-1.2c-0.6-0.5-0.9-1.1-0.9-2
								c0-0.9,0.4-1.6,1.1-2.2c0.7-0.6,1.7-0.8,3-0.8c1.1,0,1.9,0.1,2.5,0.4c0.6,0.3,1.1,0.6,1.3,1c0.3,0.4,0.4,0.7,0.4,1
								c0,0.3-0.1,0.5-0.4,0.7c-0.3,0.1-0.6,0.2-1,0.2c-0.1,0-0.3,0-0.5,0c-0.4-1.4-1.3-2.1-2.6-2.1c-0.5,0-1,0.1-1.4,0.4
								s-0.6,0.6-0.6,1.1c0,0.4,0.1,0.8,0.4,1c0.3,0.3,0.5,0.4,0.8,0.5c0.3,0.1,0.9,0.3,1.7,0.5c1.2,0.4,2.1,0.8,2.7,1.3
								s0.9,1.2,0.9,2.1c0,1-0.4,1.8-1.2,2.3c-0.8,0.6-1.8,0.9-3.2,0.9C-3,280.7-3.9,280.6-4.6,280.2z"/>
							<path class="st12" d="M5.3,274.9c0.7-0.6,1.8-0.9,3.1-0.9c0.5,0,1,0.1,1.6,0.2c0.5,0.1,1,0.3,1.4,0.6v-0.6
								c-0.1-2.3-1-3.5-2.6-3.5c-0.5,0-1,0.1-1.2,0.4c-0.3,0.2-0.5,0.5-0.6,0.7c-0.1,0.2-0.2,0.4-0.3,0.4c-0.2,0.1-0.4,0.1-0.6,0.1
								c-0.3,0-0.5-0.1-0.7-0.2c-0.2-0.1-0.3-0.3-0.3-0.6c0-0.3,0.1-0.6,0.4-0.9c0.3-0.3,0.7-0.5,1.3-0.7c0.6-0.2,1.2-0.3,2-0.3
								c1.5,0,2.7,0.4,3.5,1.2s1.3,1.9,1.3,3.4c0,1,0,1.8,0.1,2.5v0.6c0,0.6,0.1,1,0.2,1.3c0.1,0.3,0.2,0.5,0.4,0.7s0.5,0.2,1,0.2v1
								c-0.3,0.2-0.7,0.2-1.4,0.2c-1.1,0-1.8-0.7-2.1-2c-0.3,0.6-0.8,1.1-1.4,1.5s-1.3,0.6-2.1,0.6c-0.7,0-1.3-0.1-1.9-0.4
								c-0.6-0.3-1.1-0.7-1.5-1.2s-0.6-1.1-0.6-1.8C4.2,276.3,4.5,275.5,5.3,274.9z M7.1,278.8c0.5,0.4,1.1,0.6,1.8,0.6
								c0.4,0,0.8-0.1,1.2-0.4c0.4-0.2,0.7-0.6,1-1c0.2-0.4,0.3-0.8,0.3-1.3v-1.1c-0.7-0.6-1.6-0.8-2.5-0.8c-0.8,0-1.4,0.2-1.8,0.6
								c-0.4,0.4-0.6,0.9-0.6,1.6C6.4,277.8,6.6,278.4,7.1,278.8z"/>
							<path class="st12" d="M17.1,272.1c0.4-0.8,1-1.5,1.7-1.9c0.7-0.5,1.6-0.7,2.5-0.7c0.5,0,1,0.1,1.5,0.2
								c0.6,0.2,1.1,0.4,1.5,0.7v-3.8c0-0.5,0-1-0.1-1.2c-0.1-0.3-0.2-0.5-0.3-0.7c0-0.5,0.6-0.7,1.9-0.7c0.5,0,0.7,0.1,0.7,0.3v0.4
								c0,1.3,0,3.4,0,6.2c0,2.9,0,5,0,6.4c0,0.6,0.1,1.1,0.2,1.4c0.1,0.3,0.3,0.5,0.5,0.6c0.2,0.1,0.5,0.1,0.8,0.1v1
								c-0.4,0.2-0.8,0.2-1.4,0.2s-1-0.2-1.4-0.6c-0.3-0.4-0.6-0.9-0.7-1.7c-0.4,0.7-0.9,1.3-1.5,1.7s-1.3,0.6-2,0.6
								c-0.9,0-1.7-0.2-2.4-0.7s-1.3-1.2-1.7-2c-0.4-0.9-0.6-1.9-0.6-3C16.5,273.9,16.7,272.9,17.1,272.1z M19.6,278.2
								c0.6,0.8,1.3,1.2,2.2,1.2c0.5,0,0.9-0.2,1.3-0.5c0.4-0.3,0.7-0.8,0.9-1.4c0.2-0.6,0.3-1.2,0.3-2v-3.9
								c-0.3-0.3-0.7-0.6-1.3-0.8c-0.5-0.2-1-0.3-1.5-0.3c-0.9,0-1.5,0.4-2.1,1.2c-0.5,0.8-0.8,1.8-0.8,3.1
								C18.8,276.2,19,277.3,19.6,278.2z"/>
							<path class="st12" d="M31,274.9c0.7-0.6,1.8-0.9,3.1-0.9c0.5,0,1,0.1,1.6,0.2c0.5,0.1,1,0.3,1.4,0.6v-0.6
								c-0.1-2.3-1-3.5-2.6-3.5c-0.5,0-1,0.1-1.2,0.4c-0.3,0.2-0.5,0.5-0.6,0.7c-0.1,0.2-0.2,0.4-0.3,0.4c-0.2,0.1-0.4,0.1-0.6,0.1
								c-0.3,0-0.5-0.1-0.7-0.2c-0.2-0.1-0.3-0.3-0.3-0.6c0-0.3,0.1-0.6,0.4-0.9c0.3-0.3,0.7-0.5,1.3-0.7c0.6-0.2,1.2-0.3,2-0.3
								c1.5,0,2.7,0.4,3.5,1.2s1.3,1.9,1.3,3.4c0,1,0,1.8,0.1,2.5v0.6c0,0.6,0.1,1,0.2,1.3c0.1,0.3,0.2,0.5,0.4,0.7s0.5,0.2,1,0.2v1
								c-0.3,0.2-0.7,0.2-1.4,0.2c-1.1,0-1.8-0.7-2.1-2c-0.3,0.6-0.8,1.1-1.4,1.5c-0.6,0.4-1.3,0.6-2.1,0.6c-0.7,0-1.3-0.1-1.9-0.4
								c-0.6-0.3-1.1-0.7-1.5-1.2s-0.6-1.1-0.6-1.8C29.9,276.3,30.2,275.5,31,274.9z M32.8,278.8c0.5,0.4,1.1,0.6,1.8,0.6
								c0.4,0,0.8-0.1,1.2-0.4c0.4-0.2,0.7-0.6,1-1c0.2-0.4,0.3-0.8,0.3-1.3v-1.1c-0.7-0.6-1.6-0.8-2.5-0.8c-0.8,0-1.4,0.2-1.8,0.6
								c-0.4,0.4-0.6,0.9-0.6,1.6C32.1,277.8,32.3,278.4,32.8,278.8z"/>
						</g>
					</g>
				</g>
			</g>
		</g>
	</g>
</g>
<g id="Ini-R-2" class="st0">
	<g class="st2">
		<rect x="-868.6" y="-145.7" class="st16" width="960" height="937.5"/>
		<rect x="91.4" y="-145.7" class="st17" width="960" height="937.5"/>
	</g>
</g>
<g id="Ini-D3">
</g>
<g id="Ini-R-3">
</g>
<g id="Ini-04" class="st0">
</g>
<g id="Ini-R-4" class="st0">
</g>
<g id="_x34_04-D1" class="st0">
</g>
<g id="_x34_04-D2">
</g>
<g id="_x34_04-D3" class="st0">
</g>
<g id="_x34_04-D4" class="st0">
</g>
<g id="CRM-D1">
</g>
<g id="CRM-R1" class="st0">
</g>
<g id="Mes-D1" class="st0">
</g>
<g id="Mes-R1" class="st0">
</g>
<g id="Mes-D2" class="st0">
</g>
<g id="Mes-R2" class="st0">
</g>
<g id="Reg-D1">
</g>
<g id="Reg-R1">
</g>
<g id="Regla_All" class="st0">
</g>
<g id="Colors" class="st0">
	
		<image style="display:inline;overflow:visible;enable-background:new    ;" width="1004" height="1004" xlink:href="6AB0DEB.jpeg"  transform="matrix(0.5618 0 0 0.5618 -178.7475 -158.6485)">
	</image>
</g>
</svg>
