<?xml version="1.0" encoding="utf-8"?>
<!-- Generator: Adobe Illustrator 19.1.0, SVG Export Plug-In . SVG Version: 6.00 Build 0)  -->
<svg version="1.1" id="Layer_3" xmlns="http://www.w3.org/2000/svg" xmlns:xlink="http://www.w3.org/1999/xlink" x="0px" y="0px"
	 viewBox="19 -13.6 437 426.6" style="enable-background:new 19 -13.6 437 426.6;" xml:space="preserve">
<style type="text/css">
	.st0{fill:#678DC9;}
	.st1{fill:#EAEAEA;}
	.st2{fill:#284268;}
</style>
<path class="st0" d="M411.7,39.5h-13.9v27.7c0,7.7-6.2,13.9-13.9,13.9H370c-7.7,0-13.9-6.2-13.9-13.9V39.5H120.7v27.7
	c0,7.7-6.2,13.9-13.9,13.9H93c-7.7,0-13.9-6.2-13.9-13.9V39.5H65.2c-15.3,0-27.7,12.4-27.7,27.7v83.1h401.8V67.2
	C439.4,51.9,427,39.5,411.7,39.5z M314.7,115.7H162.3V74.1h152.4V115.7z"/>
<path class="st1" d="M37.6,358.2c0,15.3,12.4,27.7,27.7,27.7h346.4c15.3,0,27.7-12.4,27.7-27.7V150.3H37.6V358.2z"/>
<g>
	<path class="st0" d="M93,81.1h13.9c7.7,0,13.9-6.2,13.9-13.9V39.5V-2.1c0-7.7-6.2-13.9-13.9-13.9H93c-7.7,0-13.9,6.2-13.9,13.9
		v41.6v27.7C79.2,74.9,85.4,81.1,93,81.1z"/>
	<path class="st0" d="M370.1,81.1H384c7.7,0,13.9-6.2,13.9-13.9V39.5V-2.1c0-7.7-6.2-13.9-13.9-13.9h-13.9
		c-7.7,0-13.9,6.2-13.9,13.9v41.6v27.7C356.3,74.9,362.5,81.1,370.1,81.1z"/>
</g>
<rect x="162.3" y="74.1" class="st1" width="152.4" height="41.6"/>
<g>
	<path class="st2" d="M411.7,32.6h-6.9V-2.1c0-11.5-9.3-20.8-20.8-20.8h-13.9c-11.5,0-20.8,9.3-20.8,20.8v34.6H127.7V-2.1
		c0-11.5-9.3-20.8-20.8-20.8H93c-11.5,0-20.8,9.3-20.8,20.8v34.6h-6.9c-19.1,0-34.6,15.5-34.6,34.6v291c0,19.1,15.5,34.6,34.6,34.6
		h346.4c19.1,0,34.6-15.5,34.6-34.6v-291C446.3,48.1,430.8,32.6,411.7,32.6z M363.2-2.1c0-3.8,3.1-6.9,6.9-6.9H384
		c3.8,0,6.9,3.1,6.9,6.9v41.6v27.7c0,3.8-3.1,6.9-6.9,6.9h-13.9c-3.8,0-6.9-3.1-6.9-6.9V39.5V-2.1z M86.1-2.1C86.1-5.9,89.2-9,93-9
		h13.9c3.8,0,6.9,3.1,6.9,6.9v41.6v27.7c0,3.8-3.1,6.9-6.9,6.9H93c-3.8,0-6.9-3.1-6.9-6.9V39.5V-2.1z M65.3,46.4h6.9v20.8
		C72.2,78.7,81.5,88,93,88h13.9c11.5,0,20.8-9.3,20.8-20.8V46.4h221.7v20.8c0,11.5,9.3,20.8,20.8,20.8H384
		c11.5,0,20.8-9.3,20.8-20.8V46.4h6.9c11.5,0,20.8,9.3,20.8,20.8v76.2h-388V67.2C44.5,55.8,53.8,46.4,65.3,46.4z M411.7,379H65.3
		c-11.5,0-20.8-9.3-20.8-20.8V157.3h388v200.9C432.5,369.6,423.2,379,411.7,379z"/>
	<path class="st2" d="M162.3,122.6h152.4c3.8,0,6.9-3.1,6.9-6.9V74.1c0-3.8-3.1-6.9-6.9-6.9H162.3c-3.8,0-6.9,3.1-6.9,6.9v41.6
		C155.4,119.5,158.5,122.6,162.3,122.6z M169.2,81.1h138.6v27.7H169.2V81.1z"/>
	<path class="st2" d="M120.7,178.1H79.1c-3.8,0-6.9,3.1-6.9,6.9v34.6c0,3.8,3.1,6.9,6.9,6.9h41.6c3.8,0,6.9-3.1,6.9-6.9V185
		C127.7,181.2,124.6,178.1,120.7,178.1z M113.8,212.7H86.1v-20.8h27.7V212.7z"/>
	<path class="st2" d="M210.8,178.1h-41.6c-3.8,0-6.9,3.1-6.9,6.9v34.6c0,3.8,3.1,6.9,6.9,6.9h41.6c3.8,0,6.9-3.1,6.9-6.9V185
		C217.7,181.2,214.6,178.1,210.8,178.1z M203.9,212.7h-27.7v-20.8h27.7V212.7z"/>
	<path class="st2" d="M266.2,226.6h41.6c3.8,0,6.9-3.1,6.9-6.9v-34.6c0-3.8-3.1-6.9-6.9-6.9h-41.6c-3.8,0-6.9,3.1-6.9,6.9v34.6
		C259.3,223.5,262.4,226.6,266.2,226.6z M273.1,191.9h27.7v20.8h-27.7V191.9z"/>
	<path class="st2" d="M397.8,178.1h-41.6c-3.8,0-6.9,3.1-6.9,6.9v34.6c0,3.8,3.1,6.9,6.9,6.9h41.6c3.8,0,6.9-3.1,6.9-6.9V185
		C404.8,181.2,401.7,178.1,397.8,178.1z M390.9,212.7h-27.7v-20.8h27.7V212.7z"/>
	<path class="st2" d="M120.7,247.3H79.1c-3.8,0-6.9,3.1-6.9,6.9v34.6c0,3.8,3.1,6.9,6.9,6.9h41.6c3.8,0,6.9-3.1,6.9-6.9v-34.6
		C127.7,250.4,124.6,247.3,120.7,247.3z M113.8,282H86.1v-20.8h27.7V282z"/>
	<path class="st2" d="M210.8,247.3h-41.6c-3.8,0-6.9,3.1-6.9,6.9v34.6c0,3.8,3.1,6.9,6.9,6.9h41.6c3.8,0,6.9-3.1,6.9-6.9v-34.6
		C217.7,250.4,214.6,247.3,210.8,247.3z M203.9,282h-27.7v-20.8h27.7V282z"/>
	<path class="st2" d="M266.2,295.8h41.6c3.8,0,6.9-3.1,6.9-6.9v-34.6c0-3.8-3.1-6.9-6.9-6.9h-41.6c-3.8,0-6.9,3.1-6.9,6.9v34.6
		C259.3,292.7,262.4,295.8,266.2,295.8z M273.1,261.2h27.7V282h-27.7V261.2z"/>
	<path class="st2" d="M397.8,247.3h-41.6c-3.8,0-6.9,3.1-6.9,6.9v34.6c0,3.8,3.1,6.9,6.9,6.9h41.6c3.8,0,6.9-3.1,6.9-6.9v-34.6
		C404.8,250.4,401.7,247.3,397.8,247.3z M390.9,282h-27.7v-20.8h27.7V282z"/>
	<path class="st2" d="M120.7,316.6H79.1c-3.8,0-6.9,3.1-6.9,6.9v34.6c0,3.8,3.1,6.9,6.9,6.9h41.6c3.8,0,6.9-3.1,6.9-6.9v-34.6
		C127.7,319.7,124.6,316.6,120.7,316.6z M113.8,351.3H86.1v-20.8h27.7V351.3z"/>
	<path class="st2" d="M210.8,316.6h-41.6c-3.8,0-6.9,3.1-6.9,6.9v34.6c0,3.8,3.1,6.9,6.9,6.9h41.6c3.8,0,6.9-3.1,6.9-6.9v-34.6
		C217.7,319.7,214.6,316.6,210.8,316.6z M203.9,351.3h-27.7v-20.8h27.7V351.3z"/>
	<path class="st2" d="M279.6,347.9l-15.4-15.4l-9.8,9.8l20.8,20.8c1.3,1.3,3.1,2,4.9,2c0.1,0,0.2,0,0.3,0c1.9-0.1,3.8-1,5-2.5
		L320,321l-10.6-8.9L279.6,347.9z"/>
	<path class="st2" d="M362.7,347.9l-15.4-15.4l-9.8,9.8l20.8,20.8c1.3,1.3,3.1,2,4.9,2c0.1,0,0.2,0,0.3,0c1.9-0.1,3.8-1,5-2.5
		l34.6-41.6l-10.6-8.9L362.7,347.9z"/>
</g>
</svg>
