<?xml version="1.0" encoding="utf-8"?>
<!-- Generator: Adobe Illustrator 19.1.0, SVG Export Plug-In . SVG Version: 6.00 Build 0)  -->
<svg version="1.1" id="Capa_1" xmlns="http://www.w3.org/2000/svg" xmlns:xlink="http://www.w3.org/1999/xlink" x="0px" y="0px"
	 viewBox="-81 188.9 433 465" style="enable-background:new -81 188.9 433 465;" xml:space="preserve">
<style type="text/css">
	.st0{fill:#8686C4;stroke:#161616;stroke-width:12;stroke-miterlimit:10;}
	.st1{fill:#C3C3DD;stroke:#161616;stroke-width:12;stroke-miterlimit:10;}
</style>
<g>
	<g>
		<path class="st0" d="M127.5,202.8h36.3v89.9h-36.3V202.8z"/>
	</g>
	<g>
		<path class="st0" d="M186,213.2l29.1,21.6L161.5,307l-29.1-21.6L186,213.2z"/>
	</g>
	<g>
		<path class="st0" d="M158.6,285.4L129.5,307L76,234.8l29.1-21.6L158.6,285.4z"/>
	</g>
	<g>
		<path class="st0" d="M303.5,640h-113l-44.8-14.2L100.5,640H-12.3V385h315.8V640z"/>
	</g>
	<g>
		<path class="st1" d="M190.6,640h-90.1v-88.3c0-24.9,20.2-45,45-45s45,20.2,45,45V640H190.6z"/>
	</g>
	<g>
		<path class="st1" d="M-51.2,443.8C-79.4,411.7,80,279.1,145.6,247c65.6,32.1,225,164.7,196.8,196.8
			C211.2,443.8,80,443.8-51.2,443.8L-51.2,443.8z"/>
	</g>
</g>
</svg>
