<?xml version="1.0" encoding="utf-8"?>
<!-- Generator: Adobe Illustrator 19.1.0, SVG Export Plug-In . SVG Version: 6.00 Build 0)  -->
<svg version="1.1" id="Capa_1" xmlns="http://www.w3.org/2000/svg" xmlns:xlink="http://www.w3.org/1999/xlink" x="0px" y="0px"
	 viewBox="96 -105 591.1 610" style="enable-background:new 96 -105 591.1 610;" xml:space="preserve">
<style type="text/css">
	.st0{fill:#284268;}
	.st1{fill:#678DC9;}
	.st2{fill:#3090FC;}
	.st3{fill:#80AAFF;}
	.st4{fill:#49BDFF;}
</style>
<g>
	<g>
		<g>
			<g>
				<g>
					<path class="st0" d="M126.5,93.6c-2.9-2.7-3.9-6-3.8-10c0.2-9,0.5-18.1,0-27.2c-1.3-20.1,14.4-37.8,35.9-37.7
						c5.8,0,10.6-2.2,14.7-7c-3.9-2.9-7.6-6-10.6-9.7c-6.4-8.1-9.9-17.3-9.9-27.7c0-8-0.8-15.9,0.7-23.9
						c4.2-22.6,25.1-38.8,47.7-36.8c23.2,2,41.2,21.1,41.5,44.2c0.1,7,0.4,14.1-0.3,21.1c-1.3,12.5-7.1,22.9-17.3,30.5
						c-3,2.2-2.7,3.4,0,5.3c3.4,2.4,7.1,3.9,11.3,4.1c23.1,1,36.5,15.2,36.4,38.1c0,8.9-0.2,17.8,0.1,26.7c0.1,4-0.9,7.3-3.9,10
						C221.6,93.6,174.1,93.6,126.5,93.6z"/>
					<path class="st1" d="M197.8,19.1c3.5,0,6.8-0.4,10-1.2c2.3,3.6,5.2,6.7,8.5,9.2c-10.5,8.8-26.6,8.8-37.1,0
						c3.3-2.5,6.2-5.6,8.5-9.2C191,18.6,194.3,19.1,197.8,19.1L197.8,19.1z"/>
					<path class="st1" d="M137.9,53.4c0-10.8,8.8-19.6,19.6-19.6h1.1c1.9,0,3.8-0.2,5.7-0.5L167,36c8.2,8.2,19.3,12.7,30.9,12.7
						c11.7,0,22.7-4.5,30.9-12.8l2.7-2.7c1.8,0.3,3.7,0.5,5.7,0.5h1.1c10.8,0,19.6,8.8,19.6,19.6v25.4h-120V53.4z"/>
					<path class="st1" d="M167.9-34.5c0.2-4-0.3-8.7,0.8-13.3c3.4-14.4,17.4-25,31.3-23.5c15.8,1.7,27.7,14.1,27.8,29.5
						c0.1,7,0.8,14.1-0.6,21C224-4.7,210.8,5,194.1,3.6c-14.4-1.3-26.1-14.6-26.2-30C167.8-28.9,167.9-31.4,167.9-34.5z"/>
				</g>
				<g>
					<path class="st0" d="M352.5,93.7c-2.9-2.7-3.9-6-3.8-10c0.2-9,0.5-18.1,0-27.2c-1.2-20.1,14.4-37.8,35.9-37.7
						c5.8,0,10.6-2.2,14.7-7c-3.9-2.9-7.6-6-10.6-9.7c-6.4-8.1-9.9-17.3-9.9-27.7c0-8-0.8-15.9,0.7-23.9
						c4.2-22.6,25.1-38.8,47.7-36.8c23.2,2,41.2,21.1,41.5,44.2c0.1,7,0.4,14.1-0.3,21.1c-1.3,12.5-7.1,22.9-17.3,30.5
						c-3,2.2-2.7,3.4,0,5.3c3.4,2.4,7.1,3.9,11.3,4.1c23.1,1,36.5,15.2,36.4,38.1c0,8.9-0.2,17.8,0.1,26.7c0.1,4-0.9,7.3-3.9,10
						C447.6,93.7,400.1,93.7,352.5,93.7z"/>
					<path class="st1" d="M423.8,19.2c3.5,0,6.8-0.4,10-1.2c2.3,3.6,5.2,6.7,8.5,9.2c-10.5,8.8-26.6,8.8-37.1,0
						c3.3-2.5,6.2-5.6,8.5-9.2C417,18.7,420.3,19.2,423.8,19.2L423.8,19.2z"/>
					<path class="st1" d="M363.9,53.5c0-10.8,8.8-19.6,19.6-19.6h1.1c1.9,0,3.8-0.2,5.7-0.5l2.7,2.7c8.2,8.3,19.3,12.8,30.9,12.8
						c11.7,0,22.7-4.5,30.9-12.8l2.7-2.7c1.8,0.3,3.7,0.5,5.7,0.5h1.1c10.8,0,19.6,8.8,19.6,19.6v25.4h-120V53.5z"/>
					<path class="st1" d="M393.9-34.4c0.2-4-0.3-8.7,0.8-13.3c3.4-14.4,17.4-25,31.3-23.5c15.8,1.7,27.7,14.1,27.8,29.5
						c0.1,7,0.8,14.1-0.6,21C450-4.6,436.8,5.1,420.1,3.7c-14.4-1.2-26.1-14.5-26.3-29.9C393.8-28.8,393.9-31.3,393.9-34.4z"/>
				</g>
				<g>
					<path class="st0" d="M244.4,107.9c-2.9-2.7-3.9-6-3.8-10c0.2-9,0.5-18.1,0-27.2C239.4,50.6,255,32.9,276.5,33
						c5.8,0,10.6-2.2,14.7-7c-3.9-2.9-7.6-6-10.6-9.7c-6.4-8.1-9.9-17.3-9.9-27.7c0-8-0.8-15.9,0.7-23.9
						c4.2-22.6,25.1-38.8,47.7-36.8c23.2,2,41.2,21.1,41.5,44.2c0.1,7,0.4,14.1-0.3,21.1C359,5.7,353.2,16.1,343,23.7
						c-3,2.2-2.7,3.4,0,5.3c3.4,2.4,7.1,3.9,11.3,4.1c23.1,1,36.5,15.2,36.4,38.1c0,8.9-0.2,17.8,0.1,26.7c0.1,4-0.9,7.3-3.9,10
						C339.5,107.9,292,107.9,244.4,107.9z"/>
					<path class="st2" d="M315.7,33.4c3.5,0,6.8-0.4,10-1.2c2.3,3.6,5.2,6.7,8.5,9.2c-10.5,8.8-26.6,8.8-37.1,0
						c3.3-2.5,6.2-5.6,8.5-9.2C308.9,32.9,312.2,33.4,315.7,33.4L315.7,33.4z"/>
					<path class="st2" d="M255.8,67.7c0-10.8,8.8-19.6,19.6-19.6h1.1c1.9,0,3.8-0.2,5.7-0.5l2.7,2.7c8.2,8.3,19.3,12.8,30.9,12.8
						c11.7,0,22.7-4.5,30.9-12.8l2.7-2.7c1.8,0.3,3.7,0.5,5.7,0.5h1.1c10.8,0,19.6,8.8,19.6,19.6v25.4h-120V67.7z"/>
					<path class="st2" d="M285.8-20.2c0.2-4-0.3-8.7,0.8-13.3c3.4-14.4,17.4-25,31.3-23.5c15.8,1.7,27.7,14.1,27.8,29.5
						c0.1,7,0.8,14.1-0.6,21c-3.1,16-16.4,25.8-33.1,24.3c-14.4-1.2-26.1-14.5-26.3-29.9C285.7-14.6,285.8-17.1,285.8-20.2z"/>
				</g>
			</g>
			<path class="st1" d="M682.3,294.9c-5.8-39.9-40.9-70.8-84.6-74.4v-146l28.1,25.8c2.2,2,5.3,2.8,8.3,2.1c3-0.7,5.3-2.8,6.1-5.6
				c0.8-2.7-0.1-5.6-2.3-7.6L595.2,50c-0.1-0.1-0.2-0.1-0.3-0.2c-0.7-0.6-1.6-1.2-2.5-1.5l0,0c-0.1,0-0.1,0-0.2-0.1
				c-0.9-0.3-1.8-0.5-2.7-0.5c-0.3,0-0.5,0-0.8,0c-0.7,0-1.5,0.2-2.2,0.4c-0.3,0.1-0.5,0.2-0.8,0.3c-0.9,0.4-1.8,0.9-2.5,1.6
				l-42.8,39.2c-3.3,3.1-3.3,8,0,11.1s8.7,3.1,12.1,0l28.1-25.8v146.1c-8.3,0.7-16.5,2.4-24.3,5c-41.1,14.1-66.1,52.3-60.2,92.2
				c5.9,39.9,40.9,70.8,84.6,74.4v63.1c0,8.7-7.6,15.7-17.1,15.7H392.9c-4.7,0-8.5,3.5-8.5,7.8s3.8,7.8,8.5,7.8h170.7
				c18.8,0,34.1-14,34.1-31.3v-63c8.3-0.7,16.5-2.4,24.3-5.1C663,373.1,688.1,334.8,682.3,294.9z M636.2,361.8
				c-26.5,18.9-63.2,19.8-90.7,2.2C518,346.5,506,314.6,516,285.2c10-29.4,39.6-49.4,73.1-49.4h0.1h0.1c32,0.1,60.6,18.4,71.9,45.9
				C672.7,310.5,662.7,343,636.2,361.8z"/>
			<path class="st1" d="M617,269.1l1.1-2.3c1.9-3.9,0.1-8.6-4.2-10.4c-4.3-1.8-9.3-0.1-11.3,3.9l-1.1,2.3
				c-13.7-3.5-28.2,2.1-34.9,13.6c-5,12.2-0.2,26,11.7,33.1l-9.6,19.4c-1.1-1.1-2.1-2.3-2.9-3.6c-1.5-2.5-1.8-5.5-0.7-8.2
				c1.3-2.5,1-5.5-0.8-7.8c-1.8-2.3-4.7-3.5-7.8-3.3c-3,0.3-5.7,2-7,4.6c-3.3,7-3,15,1,21.8c2.6,4.5,6.2,8.4,10.7,11.4l-1.1,2.3
				c-2,3.9-0.1,8.6,4.2,10.4c4.3,1.8,9.4,0.1,11.3-3.9l1.1-2.2c2.6,0.5,5.3,0.8,7.9,0.8c11.3,0.5,21.9-5.2,27-14.5
				c3.3-7,3-15-1-21.8c-2.6-4.5-6.2-8.4-10.7-11.4l9.6-19.4c3.6,2.9,5,7.6,3.5,11.8c-2,3.9-0.1,8.6,4.2,10.4
				c4.3,1.8,9.4,0.1,11.3-3.9C633.7,290.1,628.9,276.3,617,269.1z M582.1,282.7L582.1,282.7c2.5-3.8,7.2-5.9,12-5.3l-8.5,17.1
				C582,291.6,580.6,287,582.1,282.7z M596.1,330c-2.5,3.8-7.2,5.9-12,5.3l8.5-17.1c1.1,1.1,2.1,2.3,2.9,3.6l0,0
				C597,324.3,597.3,327.3,596.1,330z"/>
			<g>
				<path class="st3" d="M507.1,98.6v38.9c0,0.7-0.2,1.6-0.5,2.2h-390c-0.3-0.7-0.5-1.5-0.5-2.2V98.6c0-3,2.7-5.5,6-5.5H501
					C504.4,93.1,507.1,95.6,507.1,98.6z"/>
				<path class="st4" d="M116.6,139.7h389.9c-0.3,0.6-0.7,1.1-1.2,1.7L358.1,282.2c-1.1,1-1.7,2.4-1.7,3.9v136.8h-89.7V286
					c0-1.4-0.6-2.8-1.7-3.8L117.8,141.4C117.3,140.8,116.9,140.4,116.6,139.7z"/>
				<path class="st3" d="M356.5,422.8v50.5c0,3-2.7,5.5-6,5.5h-77.7c-3.3,0-6-2.5-6-5.5v-50.5H356.5z"/>
				<path class="st1" d="M146.1,98.6c0-3,2.7-5.5,6-5.5h-30c-3.3,0-6,2.5-6,5.5v38.9c0,0.7,0.2,1.6,0.5,2.2h30
					c-0.3-0.7-0.5-1.5-0.5-2.2C146.1,137.5,146.1,98.6,146.1,98.6z"/>
				<path class="st2" d="M295.1,282.2L147.8,141.4c-0.5-0.5-0.9-1-1.2-1.7h-30c0.3,0.6,0.7,1.1,1.2,1.7l147.3,140.9
					c1.1,1,1.7,2.4,1.7,3.9v136.7h30V286C296.7,284.6,296.1,283.2,295.1,282.2L295.1,282.2z"/>
				<path class="st1" d="M296.7,473.3v-50.5h-30v50.5c0,3,2.7,5.5,6,5.5h30C299.4,478.8,296.7,476.3,296.7,473.3z"/>
				<g>
					<path class="st0" d="M291.6,311.6c3.3,0,6-2.5,6-5.5v-4.4c0-3-2.7-5.5-6-5.5c-3.3,0-6,2.5-6,5.5v4.4
						C285.6,309.1,288.3,311.6,291.6,311.6z"/>
					<path class="st0" d="M291.6,381.4c3.3,0,6-2.5,6-5.5v-49.8c0-3-2.7-5.5-6-5.5c-3.3,0-6,2.5-6,5.5v49.8
						C285.6,378.9,288.3,381.4,291.6,381.4z"/>
					<path class="st0" d="M512.6,98.6c0-6.1-4.9-11-11.5-11h-379c-6.6,0-11.5,5-11.5,11v38.9c-0.1,2.8,1,5.5,3,7.6l147,140.9v187.3
						c0.1,6.2,5.5,11,12.1,11h77.7c6.7,0,12.1-4.9,12.1-11V286l147.3-140.6h-0.3c2-2.2,3.1-5.1,3.1-7.9V98.6z M272.6,473.3v-45h78
						v45H272.6z M500.6,134.4h-288c-3.3,0-6,2.5-6,5.5s2.7,5.5,6,5.5H493L353.9,278.5c-2.1,2-3.3,4.8-3.3,7.5v131.2h-78V286
						c0-2.8-1.1-5.5-3.3-7.5L130.2,145.4h40.4c3.3,0,6-2.5,6-5.5s-2.7-5.5-6-5.5h-48V98.6h378V134.4z"/>
				</g>
			</g>
		</g>
	</g>
</g>
</svg>
