<?xml version="1.0" encoding="utf-8"?>
<!-- Generator: Adobe Illustrator 19.1.0, SVG Export Plug-In . SVG Version: 6.00 Build 0)  -->
<svg version="1.1" id="Layer_3" xmlns="http://www.w3.org/2000/svg" xmlns:xlink="http://www.w3.org/1999/xlink" x="0px" y="0px"
	 viewBox="13 16.4 448 349.7" style="enable-background:new 13 16.4 448 349.7;" xml:space="preserve">
<style type="text/css">
	.st0{fill:#F4EFED;}
	.st1{fill:#D6D1CF;}
	.st2{fill:#FFFFFF;}
	.st3{fill:#526FAA;}
	.st4{fill:#34518C;}
	.st5{fill:#708DC8;}
	.st6{fill:#690589;}
	.st7{fill:#8852A8;}
	.st8{fill:#6A348A;}
	.st9{fill:#A670C6;}
	.st10{fill:#FCC24C;}
</style>
<g>
	<g>
		<path class="st0" d="M434.8,300.2H40.2c-8.4,0-15.2-6.8-15.2-15.2V42.1c0-8.4,6.8-15.2,15.2-15.2h394.6c8.4,0,15.2,6.8,15.2,15.2
			V285C449.9,293.4,443.2,300.2,434.8,300.2z"/>
	</g>
	<g>
		<path class="st1" d="M434.8,26.9h-17.1c8.4,0,15.2,6.8,15.2,15.2V285c0,8.4-6.8,15.2-15.2,15.2h17.1c8.4,0,15.2-6.8,15.2-15.2
			V42.1C449.9,33.7,443.2,26.9,434.8,26.9z"/>
	</g>
	<g>
		<path class="st2" d="M40.2,300.2h17.1c-8.4,0-15.2-6.8-15.2-15.2V42.1c0-8.4,6.8-15.2,15.2-15.2H40.2c-8.4,0-15.2,6.8-15.2,15.2
			V285C25.1,293.4,31.8,300.2,40.2,300.2z"/>
	</g>
	<g>
		<path class="st3" d="M376.1,356.5H98.9v-20.3c0-8.4,6.8-15.2,15.2-15.2h246.9c8.4,0,15.2,6.8,15.2,15.2V356.5z"/>
	</g>
	<g>
		<path class="st4" d="M360.9,321h-17.1c8.4,0,15.2,6.8,15.2,15.2v20.3h17.1v-20.3C376.1,327.8,369.3,321,360.9,321z"/>
	</g>
	<g>
		<path class="st5" d="M114.1,321h17.1c-8.4,0-15.2,6.8-15.2,15.2v20.3H98.9v-20.3C98.9,327.8,105.7,321,114.1,321z"/>
	</g>
	<g>
		<path class="st4" d="M156.1,300.2h162.7V321H156.1L156.1,300.2z"/>
	</g>
	<g>
		<path class="st6" d="M38.8,90.7c-1.9,0-3.4-1.5-3.4-3.4V66.7c0-1.9,1.5-3.4,3.4-3.4c1.9,0,3.4,1.5,3.4,3.4v20.6
			C42.2,89.1,40.7,90.7,38.8,90.7z"/>
	</g>
	<g>
		<path class="st6" d="M376.1,359.9H98.9c-1.9,0-3.4-1.5-3.4-3.4v-20.3c0-10.3,8.3-18.6,18.6-18.6h246.9c10.3,0,18.6,8.3,18.6,18.6
			v20.3C379.5,358.4,378,359.9,376.1,359.9z M102.3,353h270.4v-16.9c0-6.5-5.3-11.7-11.7-11.7H114.1c-6.5,0-11.7,5.3-11.7,11.7
			L102.3,353L102.3,353z"/>
	</g>
	<g>
		<path class="st6" d="M318.9,324.4H156.1c-1.9,0-3.4-1.5-3.4-3.4v-20.8c0-1.9,1.5-3.4,3.4-3.4h162.7c1.9,0,3.4,1.5,3.4,3.4V321
			C322.3,322.9,320.8,324.4,318.9,324.4z M159.6,317.6h155.9v-14H159.6V317.6z"/>
	</g>
	<g>
		<path class="st6" d="M434.8,303.6H40.2c-10.2,0-18.6-8.3-18.6-18.6V42.1c0-10.2,8.3-18.6,18.6-18.6h394.6
			c10.2,0,18.6,8.3,18.6,18.6V285C453.4,295.3,445,303.6,434.8,303.6L434.8,303.6z M40.2,30.3c-6.5,0-11.7,5.3-11.7,11.7V285
			c0,6.5,5.3,11.7,11.7,11.7h394.6c6.5,0,11.7-5.3,11.7-11.7V42.1c0-6.5-5.3-11.7-11.7-11.7L40.2,30.3z"/>
	</g>
	<g>
		<path class="st7" d="M308.3,252H166.7c-47.8,0-86.6-38.8-86.6-86.6s38.8-86.6,86.6-86.6h141.6c47.8,0,86.6,38.8,86.6,86.6
			C394.9,213.2,356.1,252,308.3,252z"/>
	</g>
	<g>
		<path class="st8" d="M308.3,78.8h-15.4c47.8,0,86.6,38.8,86.6,86.6S340.7,252,292.9,252h15.4c47.8,0,86.6-38.8,86.6-86.6
			S356.1,78.8,308.3,78.8L308.3,78.8z"/>
	</g>
	<g>
		<path class="st9" d="M166.7,252h15.4c-47.8,0-86.6-38.8-86.6-86.6s38.8-86.6,86.6-86.6h-15.4c-47.8,0-86.6,38.8-86.6,86.6
			S118.9,252,166.7,252z"/>
	</g>
	<g>
		<path class="st6" d="M308.3,255.4H166.7c-49.6,0-90-40.4-90-90s40.4-90,90-90h141.6c49.6,0,90,40.4,90,90S357.9,255.4,308.3,255.4
			L308.3,255.4z M166.7,82.2c-45.9,0-83.2,37.3-83.2,83.2s37.3,83.2,83.2,83.2h141.6c45.9,0,83.2-37.3,83.2-83.2
			s-37.3-83.2-83.2-83.2H166.7z"/>
	</g>
	<g>
		<path class="st0" d="M176.1,186.9H147l-5.9,15.5c-1.1,2.6-3.6,4.2-6.2,4.2c-0.8,0-1.6-0.1-2.3-0.4c-3.5-1.3-5.1-5.1-3.9-8.6
			l26.4-70.4c1.1-2.6,3.7-4.3,6.3-4.2c2.7-0.1,5.3,1.6,6.3,4.2l26.4,70.4c1.2,3.5-0.5,7.3-3.9,8.6c-0.6,0.2-1.4,0.4-2.3,0.4
			c-2.6,0-5.1-1.6-6.1-4.2L176.1,186.9z M171.2,173.7l-9.7-25.7l-9.7,25.7H171.2z"/>
	</g>
	<g>
		<path class="st0" d="M210.7,200v-70.6c0-3.7,2.9-6.6,6.6-6.6h14.1c23.1,0,41.7,18.8,41.7,41.7c0,23.2-18.7,42-41.7,42h-14.1
			C213.5,206.6,210.7,203.6,210.7,200z M223.9,193.3h7.4c15.8-0.1,28.5-12.8,28.5-28.7c0-15.7-12.7-28.5-28.5-28.5h-7.4L223.9,193.3
			z"/>
	</g>
	<g>
		<path class="st0" d="M282.7,185.8c2.2-2.6,6.1-3,8.7-0.8c5.3,4.3,14.3,9.3,22.8,9.2c6,0,11.4-1.8,14.9-4.4
			c3.6-2.6,5.1-5.6,5.1-8.6c0-1.6-0.4-2.6-1.1-3.8c-0.7-1.2-1.8-2.4-3.6-3.6c-3.5-2.3-9.3-4.3-16.4-5.6h-0.2
			c-5.6-1.1-10.9-2.5-15.4-4.7c-4.5-2.2-8.5-5.1-11.1-9.3c-1.8-2.9-2.7-6.2-2.7-9.8c0-7.2,4.1-13.4,9.6-17.5
			c5.6-4.1,12.9-6.3,20.7-6.3c11.5,0,20,5.6,26.1,9.6c2.8,1.9,3.6,5.7,1.7,8.5c-1.8,2.9-5.6,3.7-8.5,1.8c-6.1-4.1-12-7.7-19.3-7.7
			c-5.4,0-10.2,1.7-13.4,4.1c-3.2,2.4-4.5,5-4.5,7.5c0,1.4,0.2,2.4,0.8,3.3c0.6,1,1.7,2,3.2,3.1c3.1,2.2,8.5,4.1,14.9,5.3h0.2
			c6.1,1.2,11.7,2.7,16.5,5c4.9,2.4,9.2,5.5,12,9.9c1.8,2.9,2.9,6.5,2.9,10.2c0,7.7-4.3,14.2-10.3,18.5c-5.9,4.3-13.6,6.8-22.1,6.8
			c-12.9-0.1-23.8-6.6-30.6-12C281,192.4,280.6,188.4,282.7,185.8L282.7,185.8z"/>
	</g>
	<g>
		<path class="st10" d="M388.1,249l-11.9,37.5L360,245.6l-16.2-40.9l40.9,16.2l40.9,16.2L388.1,249z"/>
	</g>
	<g>
		<path class="st6" d="M376.1,289.9c-1.4,0-2.7-0.9-3.2-2.2L340.6,206c-0.5-1.3-0.2-2.7,0.8-3.7c1-1,2.4-1.3,3.7-0.8l81.7,32.3
			c1.3,0.5,2.2,1.9,2.2,3.3c0,1.4-1,2.7-2.4,3.1l-35.8,11.4l-11.4,35.8c-0.4,1.4-1.7,2.3-3.1,2.4
			C376.2,289.9,376.2,289.9,376.1,289.9L376.1,289.9z M349.9,210.9l25.9,65.4l9-28.3c0.3-1.1,1.2-1.9,2.2-2.2l28.3-9L349.9,210.9z"
			/>
	</g>
</g>
</svg>
