<?xml version="1.0" encoding="utf-8"?>
<!-- Generator: Adobe Illustrator 19.1.0, SVG Export Plug-In . SVG Version: 6.00 Build 0)  -->
<svg version="1.1" id="Capa_1" xmlns="http://www.w3.org/2000/svg" xmlns:xlink="http://www.w3.org/1999/xlink" x="0px" y="0px"
	 viewBox="-41 164.9 512 512" style="enable-background:new -41 164.9 512 512;" xml:space="preserve">
<style type="text/css">
	.st0{fill:#F8F7F8;}
	.st1{fill:#EFEDEE;}
	.st2{fill:#E2E2E2;}
	.st3{fill:#FFFFFF;}
</style>
<g>
	<g>
		<path class="st0" d="M198.2,214h33.5v75.7h-33.5V214z"/>
		<path class="st0" d="M141.7,402.9h146.7v203.2H141.7V402.9z"/>
		<path class="st0" d="M435.1,457.8c0-102.2-82.9-185.1-185.1-185.1h-69C78.8,272.7-4.1,355.6-4.1,457.8v25.1h439.3V457.8z"/>
		<path class="st1" d="M434.1,437.9H123.6c-22.8,0-38.8-22.4-31.5-43.9c19.5-57.3,64.9-102.4,122.2-121.3H181
			C78.8,272.7-4.1,355.6-4.1,457.8v25.1h66.2h19.8h353.3v-25.1C435.1,451.1,434.8,444.4,434.1,437.9z"/>
		<path class="st0" d="M402.5,611.9h-375v-28.5c0-21.2,17.2-38.4,38.4-38.4h298.2c21.2,0,38.4,17.2,38.4,38.4L402.5,611.9
			L402.5,611.9z"/>
		<path class="st1" d="M66,605.2c0-21.2,17.2-38.4,38.4-38.4h294.5c-6.2-12.9-19.4-21.8-34.7-21.8H66c-21.2,0-38.4,17.2-38.4,38.4
			v28.5H66L66,605.2z"/>
		<g>
			<path class="st2" d="M413.1,650.6H16.9c-9.7,0-17.7-7.9-17.7-17.7v-17.4c0-9.7,7.9-17.7,17.7-17.7h396.2
				c9.7,0,17.7,7.9,17.7,17.7V633C430.7,642.7,422.8,650.6,413.1,650.6z"/>
			<path class="st1" d="M52.4,626.4c-9.7,0-17.7-7.9-17.7-17.7v-10.8H16.9c-9.7,0-17.7,7.9-17.7,17.7V633c0,9.7,7.9,17.7,17.7,17.7
				h396.2c9.7,0,17.7-7.9,17.7-17.7v-6.6H52.4z"/>
			<path class="st0" d="M446.3,499.7H-16.3c-9.5,0-17.2-7.7-17.2-17.2V475c0-9.5,7.7-17.2,17.2-17.2h462.7c9.5,0,17.2,7.7,17.2,17.2
				v7.5C463.5,492,455.8,499.7,446.3,499.7z"/>
			<path class="st1" d="M11.5,480.5c-9.5,0-17.2-7.7-17.2-17.2v-5.4h-10.6c-9.5,0-17.2,7.7-17.2,17.2v7.5c0,9.5,7.7,17.2,17.2,17.2
				h462.7c9.5,0,17.2-7.7,17.2-17.2v-2.1H11.5z"/>
			<path class="st1" d="M249.3,229.9h-68.7c-10.7,0-19.4-8.7-19.4-19.4c0-10.7,8.7-19.4,19.4-19.4h68.7c10.7,0,19.4,8.7,19.4,19.4
				C268.7,221.2,260,229.9,249.3,229.9z"/>
		</g>
	</g>
	<g>
		<path class="st3" d="M446.3,450.4h-3.9c-2.4-61-33.5-117.4-84.3-151.9c-3.4-2.3-8.1-1.4-10.4,2c-2.3,3.4-1.4,8.1,2,10.4
			c46.7,31.8,75.4,83.5,77.7,139.6H71.1c-4.1,0-7.5,3.3-7.5,7.5s3.3,7.5,7.5,7.5h375.3c5.3,0,9.7,4.4,9.7,9.7v7.5
			c0,5.3-4.4,9.7-9.7,9.7H-16.3c-5.3,0-9.7-4.4-9.7-9.7V475c0-5.3,4.4-9.7,9.7-9.7h55.5c4.1,0,7.5-3.3,7.5-7.5s-3.3-7.5-7.5-7.5H3.5
			c3.9-94.5,82-170.2,177.5-170.2h69c25.4,0,50,5.3,73,15.6c3.8,1.7,8.2,0,9.9-3.7c1.7-3.8,0-8.2-3.7-9.9
			c-24.9-11.3-51.6-17-79.2-17h-10.7v-27.8h10.1c14.8,0,26.9-12.1,26.9-26.9c0-14.8-12.1-26.9-26.9-26.9h-68.7
			c-14.8,0-26.9,12.1-26.9,26.9s12.1,26.9,26.9,26.9h10.1v27.8H181c-103.7,0-188.5,82.4-192.5,185.1h-4.9
			c-13.6,0-24.7,11.1-24.7,24.7v7.5c0,13.6,11.1,24.7,24.7,24.7h150.5v30.3H65.9c-25.3,0-45.9,20.6-45.9,45.9v7.1h-3.1
			c-13.9,0-25.1,11.3-25.1,25.1V633c0,13.9,11.3,25.1,25.1,25.1h396.2c13.9,0,25.1-11.3,25.1-25.1v-17.4c0-13.9-11.3-25.1-25.1-25.1
			H410v-7.1c0-25.3-20.6-45.9-45.9-45.9h-68.3v-30.3h150.5c13.6,0,24.7-11.1,24.7-24.7V475C471,461.4,459.9,450.4,446.3,450.4
			L446.3,450.4z M168.8,210.5c0-6.6,5.3-11.9,11.9-11.9h68.7c6.6,0,11.9,5.3,11.9,11.9c0,6.6-5.3,11.9-11.9,11.9h-68.7
			C174.1,222.4,168.8,217.1,168.8,210.5z M205.7,237.4h18.6v27.8h-18.6V237.4z M395,583.4v7.1h-44.2c-4.1,0-7.5,3.3-7.5,7.5
			s3.3,7.5,7.5,7.5h62.2c5.6,0,10.2,4.6,10.2,10.2V633c0,5.6-4.6,10.2-10.2,10.2H16.9c-5.6,0-10.2-4.6-10.2-10.2v-17.4
			c0-5.6,4.6-10.2,10.2-10.2H319c4.1,0,7.5-3.3,7.5-7.5s-3.3-7.5-7.5-7.5H35v-7.1c0-17.1,13.9-30.9,30.9-30.9h298.2
			C381.2,552.4,395,566.3,395,583.4L395,583.4z M280.9,537.5H149.1v-30.3h131.7V537.5z"/>
		<path class="st3" d="M388.2,263.5c10.9,0,19.8,8.9,19.8,19.8v2.4c0,4.1,3.3,7.5,7.5,7.5s7.5-3.3,7.5-7.5v-2.4
			c0-19.2-15.6-34.8-34.8-34.8c-4.1,0-7.5,3.3-7.5,7.5C380.7,260.2,384,263.5,388.2,263.5z"/>
		<path class="st3" d="M388.2,233.6c27.4,0,49.7,22.3,49.7,49.7v2.4c0,4.1,3.3,7.5,7.5,7.5s7.5-3.3,7.5-7.5v-2.4
			c0-35.7-29-64.7-64.7-64.7c-4.1,0-7.5,3.3-7.5,7.5S384,233.6,388.2,233.6z"/>
		<path class="st3" d="M42.8,248.5C23.6,248.5,8,264.2,8,283.3v2.4c0,4.1,3.3,7.5,7.5,7.5s7.5-3.3,7.5-7.5v-2.4
			c0-10.9,8.9-19.8,19.8-19.8c4.1,0,7.5-3.3,7.5-7.5C50.3,251.9,46.9,248.5,42.8,248.5z"/>
		<path class="st3" d="M-14.4,293.2c4.1,0,7.5-3.3,7.5-7.5v-2.4c0-27.4,22.3-49.7,49.7-49.7c4.1,0,7.5-3.3,7.5-7.5s-3.3-7.5-7.5-7.5
			c-35.7,0-64.7,29-64.7,64.7v2.4C-21.9,289.9-18.5,293.2-14.4,293.2z"/>
	</g>
</g>
</svg>
