<?xml version="1.0" encoding="utf-8"?>
<!-- Generator: Adobe Illustrator 19.1.0, SVG Export Plug-In . SVG Version: 6.00 Build 0)  -->
<svg version="1.1" id="Layer_3" xmlns="http://www.w3.org/2000/svg" xmlns:xlink="http://www.w3.org/1999/xlink" x="0px" y="0px"
	 viewBox="19 -13.6 437 426.6" style="enable-background:new 19 -13.6 437 426.6;" xml:space="preserve">
<style type="text/css">
	.st0{fill:#284268;}
	.st1{fill:#EAEAEA;}
	.st2{display:none;}
	.st3{display:inline;fill:#FFFFFF;}
	.st4{display:inline;}
	.st5{fill:#678DC9;}
	.st6{fill:#FFBFAB;}
	.st7{fill:#7BD8E8;}
	.st8{fill:#99EBFA;}
	.st9{fill:#FFC144;}
	.st10{fill:#FFBC53;}
	.st11{display:inline;fill:#FFCDAC;}
</style>
<g>
	<path class="st0" d="M30.7,338c-5.6-5.2-7.6-11.5-7.4-19.2c0.5-17.4,1-34.9-0.1-52.3c-2.4-38.7,27.8-72.8,69.2-72.5
		c11.1,0.1,20.3-4.3,28.2-13.5c-7.6-5.6-14.7-11.5-20.3-18.7c-12.3-15.7-19.1-33.3-19-53.2c0.1-15.3-1.5-30.6,1.4-45.9
		C90.7,19,131-12,174.5-8.3c44.7,3.8,79.3,40.5,79.9,85.1c0.2,13.5,0.8,27.2-0.5,40.5c-2.6,24.1-13.8,44-33.3,58.7
		c-5.7,4.3-5.1,6.6,0,10.2c6.6,4.6,13.6,7.5,21.7,7.8c44.4,2,70.2,29.2,70.1,73.4c0,17.1-0.4,34.3,0.2,51.4c0.2,7.7-1.8,14-7.5,19.2
		C213.7,338,122.2,338,30.7,338z"/>
	<path class="st1" d="M167.9,194.5c6.7,0,13.1-0.8,19.3-2.3c4.4,7,9.9,12.9,16.3,17.8c-20.1,16.9-51.2,16.9-71.3,0
		c6.4-4.8,11.9-10.8,16.3-17.8C154.7,193.7,161.2,194.5,167.9,194.5L167.9,194.5z"/>
	<path class="st1" d="M52.6,260.6c0-20.9,16.9-37.8,37.8-37.8h2.1c3.7,0,7.4-0.4,10.9-1l5.2,5.2c15.9,15.9,37.1,24.7,59.5,24.7
		c22.5,0,43.6-8.7,59.5-24.7l5.2-5.2c3.6,0.5,7.2,1,10.9,1h2.1c20.9,0,37.8,16.9,37.8,37.8v48.8H52.6V260.6z"/>
	<path class="st1" d="M110.3,91.4c0.5-7.7-0.6-16.7,1.5-25.6c6.6-27.7,33.4-48.1,60.2-45.3c30.3,3.2,53.2,27.1,53.6,56.8
		c0.2,13.5,1.5,27.1-1.1,40.5c-6.1,30.9-31.6,49.7-63.7,46.9c-27.7-2.4-50.2-28-50.6-57.6C110.2,102.2,110.3,97.5,110.3,91.4z"/>
</g>
<g class="st2">
	<polygon class="st3" points="340.9,192.2 243.7,252.4 242.8,347.5 336.1,401.1 440.6,343.7 440.6,249.5 	"/>
	<g class="st4">
		<path class="st5" d="M242.8,249.5v98l98,56v-98L242.8,249.5z"/>
		<g>
			<path class="st0" d="M447,246.9c0-1.1-0.6-2.2-1.6-2.8l0,0l-41.6-22.7l-59.6-34.1c-2.2-1.1-4.8-1.1-6.9,0l-98,56
				c-2.2,1.3-3.6,3.6-3.6,6.1v98c0,2.5,1.4,4.8,3.6,6.1l98,56c1,0.6,2.3,0.9,3.4,0.9c1.1,0,2.4-0.3,3.4-0.9l98-56
				c2.2-1.3,3.6-3.6,3.6-6.1v-21l0.6-34.8l0.6-44.4V246.9z M340.8,201.5l83.9,48L402.9,262L319,214L340.8,201.5z M379.3,278.3
				l-86.5-49.5l12.2-6.9l92,52.6v26.6l-14,7v-23.7C382.8,281.8,381.4,279.7,379.3,278.3L379.3,278.3z M249.9,261.5l84,48v82l-84-48
				V261.5L249.9,261.5z M347.8,391.5v-82l21-11.9v21.9c0,2.5,1.3,4.7,3.3,6c1,0.7,2.4,1,3.7,1c1,0,2.2-0.2,3.2-0.7l28-14
				c2.4-1.1,3.9-3.7,3.9-6.2v-31.9l21-11.9v82L347.8,391.5z M278.7,236.9l83.9,48l-21.8,12.5l-83.9-48L278.7,236.9z"/>
		</g>
	</g>
</g>
<g class="st2">
	<g class="st4">
		<path class="st6" d="M347.1,341.2c4,0,7.3,3.3,7.3,7.3c0,4-3.3,7.3-7.3,7.3h-3.2l0,0.2c3.2,0.7,5.6,3.6,5.6,7.1
			c0,4-3.3,7.3-7.3,7.3h-4.9c4,0,7.3,3.3,7.3,7.3c0,4-3.3,7.3-7.3,7.3c-2.9,0-23.4,0-26.2,0c-13.3,0-16.9-1.6-29.8-4.9v-48.7
			c0.3-0.2,38.9-7.3,38.9-30.7v-2.4c0-4,3.3-7.3,7.3-7.3c4,0,7.3,3.3,7.3,7.3c0,0,1.6,15.4-4.9,28.2H352c4,0,7.3,3.3,7.3,7.3
			c0,4-3.3,7.3-7.3,7.3H347.1z"/>
		<path class="st7" d="M281.4,331.5v48.7c0,2.7-2.2,4.9-4.9,4.9h-24.3v-58.4h24.3C279.2,326.6,281.4,328.8,281.4,331.5z"/>
		<path d="M271.7,338.8c-1.3,0-2.4,1.1-2.4,2.4c0,1.3,1.1,2.4,2.4,2.4c1.3,0,2.4-1.1,2.4-2.4C274.1,339.9,273,338.8,271.7,338.8z"/>
		<path d="M352,324.2h-18.2c2.8-7.2,4-15.7,3.7-23.2c0-1.4-0.1-2.3-0.2-2.8c-0.1-5.3-4.4-9.5-9.7-9.5c-5.4,0-9.7,4.4-9.7,9.7v2.4
			c0,15.4-19.8,24-34.7,27.7c-1.1-2.6-3.7-4.4-6.7-4.4h-24.3c-1.3,0-2.4,1.1-2.4,2.4V385c0,1.3,1.1,2.4,2.4,2.4h24.3
			c3,0,5.5-1.8,6.7-4.3c1.2,0.3,2.4,0.6,3.4,0.9c8.5,2.2,13.2,3.4,24.6,3.4h26.2c5.4,0,9.7-4.4,9.7-9.7c0-2-0.6-3.9-1.6-5.4
			c3.8-1.3,6.5-4.9,6.5-9.2c0-2-0.6-3.9-1.6-5.4c3.7-1.3,6.5-4.9,6.5-9.2c0-2-0.6-3.9-1.6-5.4c3.8-1.3,6.5-4.9,6.5-9.2
			C361.7,328.5,357.3,324.2,352,324.2z M279,380.1c0,1.3-1.1,2.4-2.4,2.4h-21.9V329h21.9c1.3,0,2.4,1.1,2.4,2.4V380.1z M352,338.8
			c-5.2,0-6.5,0-12.2,0c-1.3,0-2.4,1.1-2.4,2.4c0,1.3,1.1,2.4,2.4,2.4h7.3c2.7,0,4.9,2.2,4.9,4.9c0,2.7-2.2,4.9-4.9,4.9h-12.2
			c-1.3,0-2.4,1.1-2.4,2.4c0,1.3,1.1,2.4,2.4,2.4h7.3c2.7,0,4.9,2.1,4.9,4.9c0,2.7-2.2,4.9-4.9,4.9c-5.2,0-6.5,0-12.2,0
			c-1.3,0-2.4,1.1-2.4,2.4s1.1,2.4,2.4,2.4h7.3c2.7,0,4.9,2.2,4.9,4.9c0,2.7-2.2,4.9-4.9,4.9h-26.2c-10.8,0-15-1.1-23.3-3.3
			c-1.2-0.3-2.6-0.7-4-1v-44.8c17.6-4.2,38.9-14.4,38.9-32.6v-2.4c0-2.7,2.2-4.9,4.9-4.9c2.7,0,4.9,2.2,4.9,4.9v0
			c0,1.1,1.3,14-4,25.8h-8.2c-1.3,0-2.4,1.1-2.4,2.4c0,1.3,1.1,2.4,2.4,2.4c1.7,0,28.9,0,31.6,0c2.7,0,4.9,2.2,4.9,4.9
			C356.8,336.6,354.7,338.8,352,338.8z"/>
		<path d="M271.7,348.5c-1.3,0-2.4,1.1-2.4,2.4v19.5c0,1.3,1.1,2.4,2.4,2.4c1.3,0,2.4-1.1,2.4-2.4v-19.5
			C274.1,349.6,273,348.5,271.7,348.5z"/>
	</g>
	<g class="st4">
		<path class="st8" d="M261.4,174.8h162.8c5.6,0,10.1,2.8,10.1,6.3v74.6c0,3.5-4.5,6.3-10.1,6.3h-88l-24.1,19.2L286.6,262h-85.7
			c-5.6,0-10.1-2.8-10.1-6.3v-74.6c0-3.5,4.5-6.3,10.1-6.3h19.1"/>
		<g>
			<path class="st9" d="M215.3,205.4L222,216l12.2,3.1l-8,9.7l0.8,12.5l-11.7-4.6l-11.7,4.6l0.8-12.5l-8-9.7l12.1-3.1L215.3,205.4z"
				/>
			<path class="st9" d="M264.1,205.4l6.7,10.6l12.1,3.1l-8,9.7l0.8,12.5l-11.7-4.6l-11.7,4.6l0.8-12.5l-8-9.7l12.2-3.1L264.1,205.4z
				"/>
			<path class="st9" d="M313,205.4l6.7,10.6l12.1,3.1l-8,9.7l0.8,12.5l-11.7-4.6l-11.7,4.6l0.8-12.5l-8-9.7l12.2-3.1L313,205.4z"/>
		</g>
		<g>
			<path class="st9" d="M361.7,206l6.7,10.6l12.2,3.1l-8,9.7l0.8,12.5l-11.7-4.6l-11.7,4.6l0.8-12.5l-8-9.7l12.1-3.1L361.7,206z"/>
			<path class="st9" d="M410.5,206l6.7,10.6l12.1,3.1l-8,9.7l0.8,12.5l-11.7-4.6l-11.7,4.6l0.8-12.5l-8-9.7l12.2-3.1L410.5,206z"/>
		</g>
	</g>
	<g class="st4">
		<path d="M429.2,171.2H264c-6.6,0-6.6,6.3,0,6.3h165.3c2.8,0,5.1,1.4,5.1,3.1v74.3c0,1.7-2.3,3.1-5.1,3.1h-89.4c-1.6,0-3,0.4-4,1.2
			l-20.6,16.1l-21.8-16.1c-1-0.7-2.4-1.1-3.9-1.1h-87c-2.8,0-5.1-1.4-5.1-3.1v-74.3c0-1.7,2.3-3.1,5.1-3.1H222c6.6,0,6.6-6.3,0-6.3
			h-19.4c-8.4,0-15.3,4.2-15.3,9.4v74.3c0,5.2,6.9,9.4,15.3,9.4h84.6l24.3,18c2.1,1.5,5.9,1.5,7.9-0.1l23-17.9h86.9
			c8.4,0,15.3-4.2,15.3-9.4v-74.3C444.5,175.4,437.7,171.2,429.2,171.2L429.2,171.2z"/>
		<path d="M195.4,218c-0.4,1.2-0.1,2.5,0.7,3.4l7.1,8.5l-0.7,11.1c-0.6,8.7,12.5-0.5,15.3-0.5c2.8,0.1,15.8,9.1,15.3,0.5l-0.7-11.1
			l7.1-8.5c1.7-2,0.6-5.2-1.9-5.8l-10.8-2.8l-5.9-9.4c-1.4-2.2-4.7-2.2-6.1,0l-5.9,9.4l-10.8,2.8C196.7,215.9,195.8,216.8,195.4,218
			L195.4,218z M211.9,219.5c2.7-0.7,4.5-5.2,5.8-7.3c1.3,2.1,3.1,6.6,5.8,7.3l6.6,1.7l-4.3,5.2c-0.6,0.7-0.9,1.6-0.8,2.6l0.4,6.8
			l-6.3-2.5c-0.9-0.3-1.8-0.3-2.7,0l-6.3,2.5l0.4-6.8c0.1-0.9-0.2-1.8-0.8-2.6l-4.3-5.2L211.9,219.5z"/>
		<path d="M288.9,218c-0.4-1.2-1.3-2.1-2.6-2.4l-10.8-2.8l-5.9-9.4c-1.4-2.2-4.7-2.2-6.1,0l-5.9,9.4l-10.8,2.8
			c-1.2,0.3-2.2,1.2-2.6,2.4c-0.4,1.2-0.1,2.5,0.7,3.4l7.1,8.5l-0.7,11.1c-0.6,8.7,12.5-0.5,15.3-0.5c2.8,0.1,15.8,9.1,15.3,0.5
			l-0.7-11.1l7.1-8.5C289,220.5,289.3,219.2,288.9,218L288.9,218z M274.6,226.4c-0.6,0.7-0.9,1.6-0.8,2.6l0.4,6.8
			c-2.3-0.9-5.2-2.8-7.7-2.8c-2.5,0-5.4,1.9-7.7,2.8l0.4-6.8c0.1-0.9-0.2-1.8-0.8-2.6l-4.3-5.2l6.6-1.7c2.7-0.7,4.5-5.2,5.8-7.3
			c1.3,2.1,3.1,6.6,5.8,7.3l6.6,1.7L274.6,226.4z"/>
		<path d="M337.7,218c-0.4-1.2-1.3-2.1-2.6-2.4l-10.8-2.8l-5.9-9.4c-1.4-2.2-4.7-2.2-6.1,0l-5.9,9.4l-10.8,2.8
			c-2.5,0.6-3.6,3.8-1.9,5.8l7.1,8.5l-0.7,11.1c-0.6,8.7,12.5-0.5,15.3-0.5c2.8,0.1,15.8,9.1,15.3,0.5L330,230l7.1-8.5
			C337.8,220.5,338.1,219.2,337.7,218L337.7,218z M323.4,226.4c-0.6,0.7-0.9,1.6-0.8,2.6l0.4,6.8l-6.3-2.5c-0.9-0.3-1.8-0.3-2.7,0
			l-6.3,2.5l0.4-6.8c0.1-0.9-0.2-1.8-0.8-2.6l-4.3-5.2l6.6-1.7c2.7-0.7,4.5-5.2,5.8-7.3c1.3,2.1,3.1,6.6,5.8,7.3l6.6,1.7
			L323.4,226.4z"/>
		<path d="M434.9,218c-0.4-1.2-1.3-2.1-2.6-2.4l-10.8-2.8l-5.9-9.4c-1.4-2.2-4.7-2.2-6.1,0l-5.9,9.4l-10.8,2.8
			c-2.5,0.6-3.6,3.8-1.9,5.8l7.1,8.5l-0.7,11.1c-0.6,8.7,12.5-0.5,15.3-0.5c2.8,0.1,15.8,9.1,15.3,0.5l-0.7-11.1l7.1-8.5
			C435,220.5,435.3,219.2,434.9,218L434.9,218z M420.6,226.5c-0.6,0.7-0.9,1.6-0.8,2.6l0.4,6.8l-6.3-2.5c-0.9-0.3-1.8-0.3-2.7,0
			l-6.3,2.5l0.4-6.8c0.1-0.9-0.2-1.8-0.8-2.6l-4.3-5.2l6.6-1.7c2.7-0.7,4.5-5.2,5.8-7.3c1.3,2.1,3.1,6.6,5.8,7.3l6.6,1.7
			L420.6,226.5z"/>
		<path d="M386.3,218.7c-0.4-1.2-1.3-2.1-2.6-2.4l-10.8-2.8l-5.9-9.4c-1.4-2.2-4.7-2.2-6.1,0l-5.9,9.4l-10.8,2.8
			c-2.5,0.6-3.6,3.8-1.9,5.8l7.1,8.5l-0.7,11.1c-0.6,8.7,12.5-0.5,15.3-0.5c2.8,0.1,15.8,9.1,15.3,0.5l-0.7-11.1l7.1-8.5
			C386.4,221.2,386.7,219.9,386.3,218.7L386.3,218.7z M372,227.2c-0.6,0.7-0.9,1.6-0.8,2.6l0.4,6.8l-6.3-2.5c-0.9-0.3-1.8-0.3-2.7,0
			l-6.3,2.5l0.4-6.8c0.1-0.9-0.2-1.8-0.8-2.6l-4.3-5.2l6.6-1.7c2.7-0.7,4.5-5.2,5.8-7.3c1.3,2.1,3.1,6.6,5.8,7.3l6.6,1.7L372,227.2z
			"/>
		<path d="M225,177.8c2.7,1.9,6.4-0.8,5.5-4c-0.4-1.5-1.8-2.6-3.3-2.7c-1.5-0.1-3,0.9-3.6,2.3C223,175.1,223.6,176.9,225,177.8z"/>
	</g>
</g>
<g class="st2">
	<g class="st4">
		<path class="st10" d="M416.8,158.3l6.9,14c0.5,1,1.4,1.6,2.5,1.8l15.5,2.2c2.7,0.4,3.8,3.7,1.8,5.6l-11.2,10.9
			c-0.8,0.8-1.1,1.8-0.9,2.9l2.7,15.4c0.5,2.7-2.4,4.7-4.8,3.5l-13.9-7.3c-1-0.5-2.1-0.5-3.1,0l-13.9,7.3c-2.4,1.3-5.2-0.8-4.8-3.5
			l2.6-15.4c0.2-1.1-0.2-2.2-0.9-2.9L384.2,182c-1.9-1.9-0.9-5.2,1.8-5.6l15.5-2.3c1.1-0.2,2-0.8,2.5-1.8l6.9-14
			C412.1,155.9,415.6,155.9,416.8,158.3z"/>
		<path class="st10" d="M329.4,158.3l6.9,14c0.5,1,1.4,1.6,2.5,1.8l15.5,2.2c2.7,0.4,3.8,3.7,1.8,5.6l-11.2,10.9
			c-0.8,0.8-1.1,1.8-0.9,2.9l2.7,15.4c0.5,2.7-2.4,4.7-4.8,3.5l-13.9-7.3c-1-0.5-2.1-0.5-3.1,0l-13.9,7.3c-2.4,1.3-5.2-0.8-4.8-3.5
			l2.6-15.4c0.2-1.1-0.2-2.2-0.9-2.9L296.8,182c-1.9-1.9-0.9-5.2,1.8-5.6l15.5-2.3c1.1-0.2,2-0.8,2.5-1.8l6.9-14
			C324.7,155.9,328.2,155.9,329.4,158.3z"/>
		<path class="st10" d="M241.9,158.3l6.9,14c0.5,1,1.4,1.6,2.5,1.8l15.5,2.2c2.7,0.4,3.8,3.7,1.8,5.6l-11.2,10.9
			c-0.8,0.8-1.1,1.8-0.9,2.9l2.7,15.4c0.5,2.7-2.4,4.7-4.8,3.5l-13.9-7.3c-1-0.5-2.1-0.5-3.1,0l-13.9,7.3c-2.4,1.3-5.2-0.8-4.8-3.5
			l2.6-15.4c0.2-1.1-0.2-2.2-0.9-2.9L209.3,182c-1.9-1.9-0.9-5.2,1.8-5.6l15.5-2.3c1.1-0.2,2-0.8,2.5-1.8l6.9-14
			C237.2,155.9,240.7,155.9,241.9,158.3z"/>
	</g>
	<path class="st11" d="M383.8,392.7l6.8-21.6c3.4-10.8,5.1-22,5.1-33.2v-40.5c0-6.4-5.2-11.5-11.5-11.5l0,0
		c-6.4,0-11.5,5.2-11.5,11.5v14.1v-17.1v-5.5c0-6.4-5.2-11.5-11.5-11.5l0,0c-6.4,0-11.5,5.2-11.5,11.5v4.1v18.5v-29.9
		c0-6.4-5.2-11.5-11.5-11.5l0,0c-6.4,0-11.5,5.2-11.5,11.5v29.9v-67.8c0-6.4-5.2-11.5-11.5-11.5l0,0c-6.4,0-11.5,5.2-11.5,11.5v83.7
		l-13.6-25.1c-3.1-5.8-10.3-8.1-16.2-5.1l0,0c-5,2.5-7.7,8.2-6.4,13.7l8.8,36.4c1.9,7.9,5.3,15.3,10.1,21.8l17.2,23.6L383.8,392.7
		L383.8,392.7z"/>
	<path class="st4" d="M303.3,285.9c-2.7,0-4.8,2.2-4.8,4.8v17.7L294,300c-4.4-8.1-14.3-11.3-22.6-7.1c-7.1,3.6-10.7,11.4-8.9,19.1
		l8.8,36.4c2.1,8.5,5.7,16.4,10.9,23.5l17.2,23.6c0.9,1.3,2.4,2,3.9,2c1,0,2-0.3,2.8-0.9c2.1-1.6,2.6-4.6,1-6.7L290,366.3
		c-4.4-6-7.5-12.8-9.3-20.1l-8.8-36.4c-0.8-3.3,0.8-6.8,3.8-8.3c3.6-1.8,7.9-0.5,9.8,3.1l13.6,25.1c1,1.9,3.3,2.9,5.4,2.4
		c2.1-0.5,3.6-2.5,3.6-4.7v-36.7C308.1,288.1,306,285.9,303.3,285.9z"/>
	<path class="st4" d="M384.2,281c-2.8,0-5.5,0.7-7.8,2c-2.4-6.1-8.3-10.5-15.3-10.5c-3,0-5.8,0.8-8.2,2.2c-2.6-5.6-8.3-9.5-14.9-9.5
		c-2.4,0-4.7,0.5-6.7,1.5v-23c0-9-7.3-16.3-16.3-16.3s-16.3,7.3-16.3,16.3v8.3c0,2.7,2.1,4.8,4.8,4.8s4.8-2.2,4.8-4.8v-8.3
		c0-3.7,3-6.7,6.7-6.7s6.7,3,6.7,6.7v67.8c0,2.7,2.1,4.8,4.8,4.8s4.8-2.2,4.8-4.8v-29.9c0-3.7,3-6.7,6.7-6.7s6.7,3,6.7,6.7v29.9
		c0,2.7,2.1,4.8,4.8,4.8c2.7,0,4.8-2.2,4.8-4.8v-22.6c0-3.7,3-6.7,6.7-6.7s6.7,3,6.7,6.7v22.6c0,2.7,2.1,4.8,4.8,4.8
		c2.7,0,4.8-2.2,4.8-4.8v-14.1c0-3.7,3-6.7,6.7-6.7c3.7,0,6.7,3,6.7,6.7v40.5c0,10.8-1.6,21.5-4.9,31.8l-6.8,21.6
		c-0.8,2.5,0.6,5.2,3.1,6c0.5,0.2,1,0.2,1.4,0.2c2,0,3.9-1.3,4.6-3.4l6.8-21.6c3.5-11.2,5.3-22.9,5.3-34.7v-40.5
		C400.5,288.4,393.2,281,384.2,281z"/>
	<path class="st4" d="M449,177.1c-1-2.9-3.5-5.1-6.5-5.5l-14.7-2.1l-6.6-13.3c-1.4-2.8-4.1-4.5-7.2-4.5c0,0,0,0,0,0
		c-3.1,0-5.9,1.7-7.2,4.5l-6.6,13.3l-14.7,2.1c-3.1,0.4-5.6,2.6-6.5,5.5c-1,2.9-0.2,6.1,2,8.3l10.6,10.4l-2.5,14.6
		c-0.5,3.1,0.7,6.1,3.2,7.9c1.4,1,3.1,1.6,4.7,1.6c1.3,0,2.6-0.3,3.8-0.9l13.2-6.9l13.2,6.9c2.7,1.4,6,1.2,8.5-0.6
		c2.5-1.8,3.7-4.9,3.2-7.9l-2.5-14.6l10.6-10.4C449.1,183.3,449.9,180.1,449,177.1z M429,189.5c-1.9,1.9-2.8,4.5-2.3,7.2l2.1,12.4
		l-11.1-5.9c-2.4-1.2-5.2-1.2-7.5,0L399,209l2.1-12.4c0.4-2.6-0.4-5.3-2.3-7.2l-9-8.8l12.5-1.8c2.6-0.4,4.9-2,6.1-4.4l5.6-11.3
		l5.6,11.3c1.2,2.4,3.5,4,6.1,4.4l12.5,1.8L429,189.5z"/>
	<path class="st4" d="M304.1,195.8l-2.5,14.6c-0.5,3.1,0.7,6.1,3.2,7.9c1.4,1,3.1,1.6,4.7,1.6c1.3,0,2.6-0.3,3.8-0.9l13.2-6.9
		l13.2,6.9c2.7,1.4,6,1.2,8.5-0.6c2.5-1.8,3.7-4.9,3.2-7.9l-2.5-14.6l10.6-10.4c2.2-2.2,3-5.3,2-8.3c-1-2.9-3.5-5.1-6.5-5.5
		l-14.7-2.1l-6.6-13.3c-1.4-2.8-4.1-4.5-7.2-4.5c0,0,0,0,0,0c-3.1,0-5.9,1.7-7.2,4.5l-6.6,13.3l-14.7,2.1c-3.1,0.4-5.6,2.6-6.5,5.5
		c-1,2.9-0.2,6.1,2,8.3L304.1,195.8z M314.8,178.9c2.6-0.4,4.9-2,6.1-4.4l5.6-11.3l5.6,11.3c1.2,2.4,3.5,4,6.1,4.4l12.5,1.8l-9,8.8
		c-1.9,1.9-2.8,4.5-2.3,7.2l2.1,12.4l-11.1-5.9c-2.4-1.2-5.2-1.2-7.5,0l-11.1,5.9l2.1-12.4c0.4-2.6-0.4-5.3-2.3-7.2l-9-8.8
		L314.8,178.9z"/>
	<path class="st4" d="M263.8,210.4l-2.5-14.6l10.6-10.4c2.2-2.2,3-5.3,2-8.3c-1-2.9-3.5-5.1-6.5-5.5l-14.7-2.1l-6.6-13.3
		c-1.4-2.8-4.1-4.5-7.2-4.5c0,0,0,0,0,0c-3.1,0-5.9,1.7-7.2,4.5l-6.6,13.3l-14.7,2.1c-3.1,0.4-5.6,2.6-6.5,5.5c-1,2.9-0.2,6.1,2,8.3
		l10.6,10.4l-2.5,14.6c-0.5,3.1,0.7,6.1,3.2,7.9c1.4,1,3.1,1.6,4.7,1.6c1.3,0,2.6-0.3,3.8-0.9l13.2-6.9l13.2,6.9
		c2.7,1.4,6,1.2,8.5-0.6C263.1,216.5,264.4,213.5,263.8,210.4z M254.1,189.5c-1.9,1.9-2.8,4.5-2.3,7.2l2.1,12.4l-11.1-5.9
		c-2.4-1.2-5.2-1.2-7.5,0l-11.1,5.9l2.1-12.4c0.4-2.6-0.4-5.3-2.3-7.2l-9-8.8l12.5-1.8c2.6-0.4,4.9-2,6.1-4.4l5.6-11.3l5.6,11.3
		c1.2,2.4,3.5,4,6.1,4.4l12.5,1.8L254.1,189.5z"/>
	<path class="st4" d="M303.3,267c-1.3,0-2.5,0.5-3.4,1.4c-0.9,0.9-1.4,2.1-1.4,3.4c0,1.3,0.5,2.5,1.4,3.4c0.9,0.9,2.1,1.4,3.4,1.4
		c1.3,0,2.5-0.5,3.4-1.4c0.9-0.9,1.4-2.1,1.4-3.4c0-1.3-0.5-2.5-1.4-3.4C305.8,267.5,304.6,267,303.3,267z"/>
</g>
<g>
	<path class="st1" d="M439.4,342.6l-69.1,46.8c-3.7,2.5-8.2,3.4-12.5,2.6l-91.8-17.5c-3.6-0.7-6.9-2.8-9-5.8l-15.7-23.2l-19.8-29.1
		l-1.6,1.1c4.8-4.2,11.4-6.3,18.1-5l89.1,17.1c4.3,0.8,7.9,3.3,10.2,6.7c2.3,3.4,3.3,7.6,2.5,11.9c-0.5,2.8-1.8,5.3-3.6,7.4
		l14.4,2.8c4.5,0.9,9.1-0.1,12.9-2.7l58-39.3c3.6-2.5,7.9-3.2,11.9-2.4c4,0.8,7.7,3.1,10.2,6.7C448.5,327.8,446.6,337.7,439.4,342.6
		z"/>
	<path class="st5" d="M260.2,373.4l-65.1,33.7l-0.1-72.9l24.7-16.7l0,0l1.6-1.1l19.8,29.1l15.7,23.2L260.2,373.4z"/>
	<path class="st1" d="M341.4,213l46.2,6.7L354.1,252l7.8,45.6L320.6,276l-41.4,21.5l8-45.6l-33.4-32.4l46.3-6.6l20.8-41.5L341.4,213
		z"/>
	<path class="st1" d="M228.2,258.3l18.7,2.7L233.3,274l3.2,18.5l-16.7-8.8l-16.8,8.7l3.2-18.5l-13.5-13.1l18.7-2.7l8.4-16.8
		L228.2,258.3z"/>
	<path class="st1" d="M428.9,255.4l18.7,2.7l-13.6,13.1l3.2,18.5l-16.7-8.8l-16.8,8.7l3.2-18.5L393.5,258l18.7-2.7l8.4-16.8
		L428.9,255.4z"/>
	<path class="st0" d="M447.8,317.7c-3.2-4.6-7.9-7.8-13.4-8.8c-5.5-1.1-11.1,0.1-15.8,3.2l-58,39.3c-2.6,1.8-6,2.5-9.1,1.9l-7.5-1.4
		c0.3-0.9,0.5-1.8,0.7-2.7c1.1-5.5-0.1-11.1-3.3-15.7c-3.2-4.6-7.9-7.8-13.5-8.8l-89.1-17.1c-8-1.5-16.1,0.6-22.2,6L192.2,330
		c-1.4,1-2.2,2.5-2.2,4.2l0.1,72.9c0,1.8,0.9,3.4,2.5,4.4c0.8,0.5,1.7,0.7,2.6,0.7c0.8,0,1.6-0.2,2.3-0.6l64-33.2
		c1.1,0.4,2.3,0.8,3.5,1l91.8,17.5c1.4,0.3,2.8,0.4,4.2,0.4c4.3,0,8.5-1.3,12.2-3.8l69.1-46.8c4.6-3.1,7.8-7.9,8.8-13.4
		C452.1,327.9,451,322.3,447.8,317.7z M200.2,398.7l-0.1-61.8l19.9-13.5l32.7,48L200.2,398.7z M441,331.5c-0.5,2.8-2.2,5.3-4.5,6.9
		l-69.1,46.8c-2.6,1.7-5.7,2.4-8.7,1.8l-91.8-17.5c-2.3-0.4-4.4-1.8-5.7-3.7L228.8,318c2.6-0.9,5.4-1.1,8.2-0.5l89.1,17.1
		c2.8,0.5,5.3,2.2,6.9,4.5c1.6,2.4,2.2,5.3,1.7,8.1c-0.2,0.9-0.5,1.8-0.9,2.7l-39.5-7.6c-2.8-0.5-5.4,1.3-6,4.1
		c-0.5,2.8,1.3,5.4,4.1,6l42.8,8.2l14.4,2.8c5.9,1.1,11.8-0.1,16.8-3.4l58-39.3c2.4-1.6,5.3-2.2,8.1-1.6c2.9,0.5,5.3,2.2,6.9,4.5
		C441,325.8,441.6,328.7,441,331.5z"/>
	<path class="st0" d="M401.8,396.4c-1.6,0-3.2-0.8-4.2-2.2c-1.6-2.3-1-5.5,1.4-7.1l37.6-25.6c2.3-1.6,5.5-1,7.1,1.3
		c1.6,2.3,1,5.5-1.3,7.1l-37.6,25.6C403.8,396.1,402.8,396.4,401.8,396.4z"/>
	<path class="st0" d="M387.1,406.4c-2.8,0-5.1-2.3-5.1-5.1c0-2.8,2.3-5.1,5.1-5.1h0c2.8,0,5.1,2.3,5.1,5.1
		C392.3,404.1,390,406.4,387.1,406.4z"/>
	<path class="st0" d="M361.9,306.1c-1.3,0-2.7-0.3-3.9-1l-37.4-19.6L283.1,305c-2.8,1.5-6.3,1.2-8.9-0.7c-2.6-1.9-3.9-5.1-3.3-8.2
		l7.2-41.2l-30.2-29.3c-2.3-2.2-3.1-5.6-2.1-8.6s3.6-5.3,6.8-5.7l41.9-6l18.8-37.5c1.4-2.9,4.3-4.7,7.5-4.7h0c3.2,0,6.1,1.8,7.5,4.7
		l18.7,37.6l41.9,6.1c3.2,0.5,5.8,2.7,6.8,5.8c1,3.1,0.1,6.4-2.2,8.6L363.2,255l7.1,41.2c0.5,3.2-0.8,6.3-3.3,8.2
		C365.4,305.5,363.7,306.1,361.9,306.1z M320.6,267.6c1.3,0,2.7,0.3,3.9,1l26.3,13.7l-4.9-28.9c-0.5-2.7,0.5-5.6,2.5-7.5l21.1-20.3
		l-29.2-4.3c-2.7-0.4-5.1-2.1-6.3-4.6l-13.1-26.4l-13.2,26.4c-1.2,2.5-3.6,4.2-6.3,4.6l-29.2,4.2l21.1,20.4c2,1.9,2.9,4.7,2.4,7.5
		l-5.1,28.9l26.3-13.6C317.9,267.9,319.3,267.6,320.6,267.6z"/>
	<path class="st0" d="M236.5,297.6c-0.8,0-1.6-0.2-2.4-0.6l-14.4-7.5l-14.4,7.5c-1.7,0.9-3.8,0.7-5.4-0.4c-1.6-1.1-2.3-3.1-2-5
		l2.8-15.8l-11.6-11.2c-1.4-1.4-1.9-3.4-1.3-5.2c0.6-1.9,2.2-3.2,4.1-3.5l16.1-2.3l7.2-14.4c0.9-1.7,2.6-2.8,4.6-2.8h0
		c1.9,0,3.7,1.1,4.6,2.8l7.2,14.4l16.1,2.3c1.9,0.3,3.5,1.6,4.1,3.5c0.6,1.9,0.1,3.9-1.3,5.2l-11.6,11.2l2.7,15.8
		c0.3,1.9-0.5,3.8-2,5C238.6,297.3,237.5,297.6,236.5,297.6z M219.8,278.7c0.8,0,1.6,0.2,2.4,0.6l7.6,4l-1.4-8.3
		c-0.3-1.7,0.3-3.4,1.5-4.5l6.1-5.8l-8.4-1.2c-1.7-0.2-3.1-1.3-3.8-2.8l-3.8-7.6l-3.8,7.6c-0.8,1.5-2.2,2.5-3.8,2.8l-8.4,1.2l6,5.9
		c1.2,1.2,1.8,2.9,1.5,4.5l-1.5,8.3l7.6-3.9C218.1,278.9,218.9,278.7,219.8,278.7z"/>
	<path class="st0" d="M437.3,294.7c-0.8,0-1.6-0.2-2.4-0.6l-14.4-7.5l-14.4,7.5c-1.7,0.9-3.8,0.7-5.4-0.4c-1.6-1.1-2.3-3.1-2-5
		l2.8-15.8l-11.6-11.2c-1.4-1.4-1.9-3.4-1.3-5.2c0.6-1.9,2.2-3.2,4.1-3.5l16.1-2.3l7.2-14.4c0.9-1.7,2.6-2.8,4.6-2.8h0
		c1.9,0,3.7,1.1,4.6,2.8l7.2,14.4l16.1,2.3c1.9,0.3,3.5,1.6,4.1,3.5c0.6,1.9,0.1,3.9-1.3,5.2L439.6,273l2.7,15.8
		c0.3,1.9-0.5,3.8-2,5C439.4,294.4,438.3,294.7,437.3,294.7z M420.5,275.8c0.8,0,1.6,0.2,2.4,0.6l7.6,4l-1.4-8.3
		c-0.3-1.7,0.3-3.4,1.5-4.5l6.1-5.8l-8.4-1.2c-1.7-0.2-3.1-1.3-3.8-2.8l-3.8-7.6l-3.8,7.6c-0.8,1.5-2.2,2.5-3.8,2.8l-8.4,1.2l6,5.9
		c1.2,1.2,1.8,2.9,1.5,4.5l-1.5,8.3l7.6-3.9C418.9,276,419.7,275.8,420.5,275.8z"/>
</g>
<image style="display:none;overflow:visible;" width="1920" height="1080" xlink:href="3FF3D004.jpg"  transform="matrix(1 0 0 1 -576 -289.6)">
</image>
</svg>
