<?xml version="1.0" encoding="utf-8"?>
<!-- Generator: Adobe Illustrator 19.1.0, SVG Export Plug-In . SVG Version: 6.00 Build 0)  -->
<svg version="1.1" xmlns="http://www.w3.org/2000/svg" xmlns:xlink="http://www.w3.org/1999/xlink" x="0px" y="0px"
	 viewBox="-136.3 170 68.2 61" style="enable-background:new -136.3 170 68.2 61;" xml:space="preserve">
<style type="text/css">
	.st0{fill:#FFFFFF;}
</style>
<g id="Capa_2_1_">
</g>
<g id="Capa_1">
	<g id="Capa_2">
	</g>
	<g>
		<path class="st0" d="M-115.2,199h-3.6c-0.9,0-1.7,0.8-1.7,1.7s0.8,1.7,1.7,1.7h3.6c0.9,0,1.7-0.8,1.7-1.7S-114.3,199-115.2,199z"
			/>
		<path class="st0" d="M-115.2,206.3h-3.6c-0.9,0-1.7,0.8-1.7,1.7s0.8,1.7,1.7,1.7h3.6c0.9,0,1.7-0.8,1.7-1.7
			S-114.3,206.3-115.2,206.3z"/>
		<path class="st0" d="M-115.2,213.6h-3.6c-0.9,0-1.7,0.8-1.7,1.7s0.8,1.7,1.7,1.7h3.6c0.9,0,1.7-0.8,1.7-1.7
			S-114.3,213.6-115.2,213.6z"/>
		<path class="st0" d="M-100.7,199h-3.6c-0.9,0-1.7,0.8-1.7,1.7s0.8,1.7,1.7,1.7h3.6c0.9,0,1.7-0.8,1.7-1.7S-99.7,199-100.7,199z"/>
		<path class="st0" d="M-100.7,206.3h-3.6c-0.9,0-1.7,0.8-1.7,1.7s0.8,1.7,1.7,1.7h3.6c0.9,0,1.7-0.8,1.7-1.7
			S-99.7,206.3-100.7,206.3z"/>
		<path class="st0" d="M-100.7,213.6h-3.6c-0.9,0-1.7,0.8-1.7,1.7s0.8,1.7,1.7,1.7h3.6c0.9,0,1.7-0.8,1.7-1.7
			S-99.7,213.6-100.7,213.6z"/>
		<path class="st0" d="M-86.2,199h-3.6c-0.9,0-1.7,0.8-1.7,1.7s0.8,1.7,1.7,1.7h3.6c0.9,0,1.7-0.8,1.7-1.7S-85.2,199-86.2,199z"/>
		<path class="st0" d="M-86.2,206.3h-3.6c-0.9,0-1.7,0.8-1.7,1.7s0.8,1.7,1.7,1.7h3.6c0.9,0,1.7-0.8,1.7-1.7S-85.2,206.3-86.2,206.3
			z"/>
		<path class="st0" d="M-86.2,213.6h-3.6c-0.9,0-1.7,0.8-1.7,1.7s0.8,1.7,1.7,1.7h3.6c0.9,0,1.7-0.8,1.7-1.7S-85.2,213.6-86.2,213.6
			z"/>
		<path class="st0" d="M-78.6,178.2h-4.1v-2.8c0-0.9-0.8-1.7-1.7-1.7s-1.7,0.8-1.7,1.7v2.8h-14.7v-2.8c0-0.9-0.8-1.7-1.7-1.7
			s-1.7,0.8-1.7,1.7v2.8h-14.7v-2.8c0-0.9-0.8-1.7-1.7-1.7s-1.7,0.8-1.7,1.7v2.8h-4.1c-2.8,0-5.1,2.3-5.1,5.1v37.7
			c0,2.8,2.3,5.1,5.1,5.1h47.9c2.8,0,5.1-2.3,5.1-5.1c0-1.1,0-36.7,0-37.7C-73.5,180.5-75.8,178.2-78.6,178.2z M-128.1,183.3
			c0-0.9,0.8-1.7,1.7-1.7h4.1v2.8c0,0.9,0.8,1.7,1.7,1.7s1.7-0.8,1.7-1.7v-2.8h14.7v2.8c0,0.9,0.8,1.7,1.7,1.7s1.7-0.8,1.7-1.7v-2.8
			h14.7v2.8c0,0.9,0.8,1.7,1.7,1.7s1.7-0.8,1.7-1.7v-2.8h4.1c0.9,0,1.7,0.8,1.7,1.7v6.7h-51.3V183.3z M-78.6,222.6h-47.9
			c-0.9,0-1.7-0.8-1.7-1.7v-27.6h51.3v27.6C-76.9,221.9-77.6,222.6-78.6,222.6z"/>
	</g>
</g>
</svg>
