<?xml version="1.0" encoding="utf-8"?>
<!-- Generator: Adobe Illustrator 19.1.0, SVG Export Plug-In . SVG Version: 6.00 Build 0)  -->
<svg version="1.1" id="Capa_1" xmlns="http://www.w3.org/2000/svg" xmlns:xlink="http://www.w3.org/1999/xlink" x="0px" y="0px"
	 viewBox="-151 153 96.8 95" style="enable-background:new -151 153 96.8 95;" xml:space="preserve">
<style type="text/css">
	.st0{fill:#FEFEFE;stroke:#B5B5B5;stroke-miterlimit:10;}
</style>
<g>
	<path class="st0" d="M-136,156c1.1,0.4,1.8,1.2,2.6,2c2.6,2.7,5.3,5.3,8,8c0.4,0.4,0.4,0.6,0,1.1c-3.5,3.5-7,7-10.5,10.6
		c-0.4,0.4-0.6,0.4-1,0c-2.9-3-5.9-5.9-8.8-8.9c-1.4-1.5-1.5-3.6-0.1-5.1c2.2-2.3,4.5-4.5,6.7-6.8c0.4-0.4,1-0.6,1.5-0.9
		C-137,156-136.5,156-136,156z"/>
	<path class="st0" d="M-58.6,245c-2.2-0.9-4.4-1.5-6.6-2.3c-2.8-1-5.6-1.9-8.5-2.8c3.5-3.5,7-6.9,10.5-10.3c0.2,0.1,0.1,0.3,0.2,0.5
		c1.5,4.8,3,9.5,4.5,14.3c0.1,0.2,0.1,0.4,0.1,0.6C-58.5,245-58.5,245-58.6,245z"/>
	<path class="st0" d="M-64.4,227.1c-0.2,0.2-0.3,0.3-0.4,0.5c-3.6,3.6-7.2,7.2-10.8,10.8c-0.4,0.4-0.6,0.2-0.9-0.1
		c-4.1-4.1-8.2-8.3-12.3-12.4c-15.1-15.1-30.1-30.3-45.2-45.4c-0.6-0.6-0.6-0.9,0-1.5c3.4-3.4,6.8-6.8,10.2-10.2
		c0.5-0.5,0.7-0.5,1.3,0c19.2,19.3,38.4,38.6,57.6,57.8C-64.8,226.8-64.6,226.9-64.4,227.1z"/>
</g>
</svg>
