<?xml version="1.0" encoding="utf-8"?>
<!-- Generator: Adobe Illustrator 19.1.0, SVG Export Plug-In . SVG Version: 6.00 Build 0)  -->
<svg version="1.1" id="Capa_1" xmlns="http://www.w3.org/2000/svg" xmlns:xlink="http://www.w3.org/1999/xlink" x="0px" y="0px"
	 viewBox="-153 171 91.8 60" style="enable-background:new -153 171 91.8 60;" xml:space="preserve">
<style type="text/css">
	.st0{display:none;}
	.st1{display:inline;}
	.st2{clip-path:url(#SVGID_2_);}
	.st3{opacity:0.56;fill:#E6ECFF;enable-background:new    ;}
	.st4{opacity:0.51;fill:#EDAA9F;enable-background:new    ;}
	.st5{fill:#FEFEFE;}
	.st6{fill:#B5B5B5;}
</style>
<g id="Img">
</g>
<g id="Ini-D1" class="st0">
</g>
<g id="Ini-R-1" class="st0">
</g>
<g id="Ini-D-2">
</g>
<g id="Ini-R-2" class="st0">
</g>
<g id="Ini-D3">
	<g class="st0">
		<g class="st1">
			<g>
				<g>
					<defs>
						<rect id="SVGID_1_" x="-2756.4" y="-538.3" width="1920" height="932.5"/>
					</defs>
					<clipPath id="SVGID_2_">
						<use xlink:href="#SVGID_1_"  style="overflow:visible;"/>
					</clipPath>
					<g class="st2">
						<path class="st3" d="M-2299.2,531.2c0,0,187.6-315.5,591.2-117.3c403.6,198.3,472.7,21.2,558.4-97.3
							c81.8-113,128.6-392.5,491.2-264.9C-239.9,199-348.2,416.5-348.2,416.5s-50.4,653.9-1411.1,662.1
							C-2400.4,1082.5-2344.3,665.8-2299.2,531.2z"/>
						<path class="st4" d="M-521.4,56.4c0,0-368.7-194.6-573.5,174.1s-258.6,398.6-532.5,548.8s-169,291-169,291
							s58.9,184.3,588.8,38.4S-155.3,294.5-521.4,56.4z"/>
					</g>
				</g>
			</g>
		</g>
	</g>
</g>
<g id="Ini-R-3">
</g>
<g>
	<path class="st5" d="M-148.7,200.6c0,0,42.3-47.9,83.1,0.8C-65.5,201.3-106.5,249.4-148.7,200.6z"/>
	<g>
		<path class="st6" d="M-63.9,197.9c-0.8-0.9-19.4-22.4-43.2-22.4s-42.4,21.5-43.2,22.4c-1.5,1.8-1.5,4.4,0,6.2
			c0.8,0.9,19.4,22.4,43.2,22.4s42.4-21.5,43.2-22.4C-62.4,202.3-62.4,199.7-63.9,197.9z M-99.8,188.4c1.6-0.9,3.8,0.1,5,2.2
			c1.2,2.1,0.8,4.5-0.8,5.4c-1.6,0.9-3.8-0.1-5-2.2S-101.4,189.2-99.8,188.4z M-107.1,218.7c-16.6,0-30.6-12.8-35.4-17.8
			c3.3-3.4,10.7-10.3,20.3-14.4c-1.9,2.8-3,6.3-3,9.9c0,10,8.1,18.1,18.1,18.1s18.1-8.1,18.1-18.1c0-3.7-1.1-7.1-3-9.9
			c9.6,4.1,17,11,20.3,14.4C-76.5,206-90.5,218.7-107.1,218.7z"/>
	</g>
</g>
</svg>
