<?xml version="1.0" encoding="utf-8"?>
<!-- Generator: Adobe Illustrator 19.1.0, SVG Export Plug-In . SVG Version: 6.00 Build 0)  -->
<svg version="1.1" id="Layer_1" xmlns="http://www.w3.org/2000/svg" xmlns:xlink="http://www.w3.org/1999/xlink" x="0px" y="0px"
	 viewBox="56 -33 484 496" style="enable-background:new 56 -33 484 496;" xml:space="preserve">
<style type="text/css">
	.st0{fill:#678DC9;}
	.st1{fill:#FFE6C0;}
	.st2{fill:#F9F9F9;}
	.st3{fill:#C6C4C8;}
	.st4{fill:#F48996;}
	.st5{fill:#284268;}
</style>
<g>
	<g>
		<path class="st0" d="M74.1,38.2v380c0,15.6,12.7,28.3,28.3,28.3h299.8c15.6,0,28.3-12.8,28.3-28.3V248.1L388,286v102.5
			c0,7.7-6.3,14.1-14.1,14.1H129c-7.7,0-14.1-6.3-14.1-14.1V70.4c0-7.7,6.3-14.1,14.1-14.1h68.3V9.8h-94.9
			C86.8,9.8,74.1,22.6,74.1,38.2L74.1,38.2z"/>
	</g>
	<g>
		<path class="st0" d="M340.4,56.4l47.7,47.6v99.8l42.5-37.9V38.2c0-15.6-12.7-28.4-28.3-28.4h-95.5v46.5L340.4,56.4L340.4,56.4z"/>
	</g>
	<g>
		<path class="st1" d="M197.3,56.4h109.6V9.9H278c0-14.3-11.6-26-26-26c-14.3,0-26,11.6-26,26h-28.9L197.3,56.4L197.3,56.4z"/>
	</g>
	<g>
		<path class="st2" d="M114.9,70.4v318.1c0,7.7,6.3,14.1,14.1,14.1h245c7.7,0,14.1-6.3,14.1-14.1V286l-52.2,46.5l-66.1,17.7
			l25.3-63.6l93-82.8V104h-33.6c-7.7,0-14.1-6.3-14.1-14.1V56.4h-33.6H197.3L129,56.3C121.2,56.3,114.9,62.7,114.9,70.4L114.9,70.4z
			"/>
	</g>
	<g>
		<path class="st3" d="M340.4,89.9c0,7.7,6.3,14.1,14.1,14.1h33.6l-47.7-47.6V89.9L340.4,89.9z"/>
	</g>
	<g>
		<polygon class="st1" points="295,286.5 269.7,350.1 335.8,332.3 315.4,309.4 		"/>
	</g>
	<g>
		<polygon class="st1" points="295,286.5 315.4,309.4 388,245 430.6,207.1 480.4,162.9 459.9,139.9 430.6,165.9 388,203.8 		"/>
	</g>
	<g>
		<polygon class="st1" points="315.4,309.4 335.8,332.3 388,286 430.6,248.1 500.7,185.7 480.4,162.9 480.4,162.9 430.6,207.1 
			388,245 		"/>
	</g>
	<g>
		<path class="st4" d="M459.9,139.9l20.5,23l0,0l20.3,22.8l17.4-15.4c0.3-0.2,0.5-0.5,0.7-0.7c7.1-7.1,7.6-18.7,0.8-26.2l-0.8-0.9
			l-14.6-16.4c-7-7.8-19.1-8.6-26.9-1.6L459.9,139.9z"/>
	</g>
	<g>
		<path class="st5" d="M526.7,137.1l-15.4-17.4c-5.1-5.6-12-9-19.8-9.5c-7.6-0.5-15,2.1-20.6,7.1l-17.4,15.4l0,0l-13.5,12V38.2
			c0-20.9-16.9-37.8-37.8-37.8h-95.4h-20.7c-4.1-15-17.9-26-34.1-26s-29.9,11-34.1,26h-20.7h-94.8c-20.9,0-37.8,16.9-37.8,37.8
			v152.5c0,5.3,4.2,9.5,9.5,9.5c5.3,0,9.5-4.2,9.5-9.5V38.2c0-10.4,8.5-18.9,18.9-18.9h85.4v27.6H129c-13,0-23.5,10.5-23.5,23.6
			v318.1c0,13,10.5,23.5,23.5,23.5h245c13,0,23.6-10.5,23.6-23.5v-98.4l23.6-21v149c0,10.4-8.5,18.9-18.9,18.9H102.4
			c-10.4,0-18.9-8.5-18.9-18.9V265.9c0-5.3-4.2-9.5-9.5-9.5c-5.3,0-9.5,4.2-9.5,9.5v152.3c0,20.9,16.9,37.8,37.8,37.8h299.8
			c20.9,0,37.8-16.9,37.8-37.8V252.3l67-59.5l0,0l17.4-15.4c5.6-5.1,9-12,9.5-19.7C534.3,150.1,531.7,142.7,526.7,137.1z
			 M316.2,19.3h86c10.4,0,18.9,8.5,18.9,18.9v123.4l-23.6,21V104c0-2.4-1-5-2.8-6.7L347,49.7c-1.8-1.8-4.2-2.7-6.7-2.7h-24.1
			L316.2,19.3L316.2,19.3z M365.1,94.5h-10.7c-2.5,0-4.6-2.1-4.6-4.6V79.2L365.1,94.5z M206.8,19.3h19.4c5.3,0,9.5-4.2,9.5-9.5
			c0-9,7.3-16.5,16.5-16.5c9.1,0,16.5,7.3,16.5,16.5c0,5.3,4.2,9.5,9.5,9.5h19.3v27.6h-90.6V19.3L206.8,19.3z M378.6,388.5
			c0,2.4-2.1,4.6-4.6,4.6H129c-2.4,0-4.6-2.1-4.6-4.6V70.4c0-2.5,2.1-4.6,4.6-4.6h68c0.1,0,0.3,0,0.4,0h109.6h0.1h24v24.1
			c0,13,10.5,23.6,23.6,23.6h24.1v86.1l-89.8,79.9l0,0c-0.8,0.8-1.4,1.6-2,2.4c0,0,0,0.1-0.1,0.1c0,0,0,0.1-0.1,0.2
			c-0.1,0.2-0.2,0.5-0.3,0.7c0,0.1-0.1,0.1-0.1,0.2l-22.9,57.6h-104c-5.3,0-9.5,4.2-9.5,9.5s4.2,9.5,9.5,9.5h110.3l0,0l0,0
			c0.4,0,0.7,0,1-0.1h0.1c0.1,0,0.2,0,0.3,0c0.3,0,0.6-0.1,0.8-0.2c0.1,0,0.1,0,0.2,0l66.1-17.7l0,0c0.7-0.2,1.3-0.5,1.9-0.8
			c0,0,0.1,0,0.1-0.1s0.1-0.1,0.1-0.1c0.2-0.1,0.5-0.3,0.7-0.4c0.1,0,0.1-0.1,0.2-0.1c0,0,0,0,0.1-0.1c0.3-0.2,0.6-0.4,0.8-0.7l0,0
			l1-0.9l35.4-31.4L378.6,388.5L378.6,388.5z M298.2,304.3l10.2,11.5l0,0l0,0l10.2,11.5l-33,8.8L298.2,304.3z M424.6,240.7
			L424.6,240.7L336.7,319l-7.8-8.8l42.6-38.1c3.9-3.5,4.2-9.5,0.8-13.4c-3.5-3.9-9.5-4.2-13.4-0.8L316.1,296l-7.8-8.7l86-76.5
			c0,0,0-0.1,0.1-0.1l64.7-57.6l7.9,8.9l-51.5,45.7c-4,3.5-4.2,9.5-0.8,13.4c1.9,2.1,4.5,3.2,7.1,3.2c2.3,0,4.5-0.8,6.3-2.4
			l51.5-45.7l7.7,8.7L424.6,240.7z M514.9,156.5c-0.2,2.5-1.3,4.9-3.2,6.6l-10.3,9.1l-28.2-31.7l10.3-9c1.9-1.7,4.3-2.5,7-2.4
			c2.6,0.2,5,1.3,6.7,3.2l15.4,17.4C514.2,151.6,515.1,154,514.9,156.5z"/>
		<path class="st5" d="M159.4,313.4h74.5c5.3,0,9.5-4.2,9.5-9.5s-4.2-9.5-9.5-9.5h-74.5c-5.3,0-9.5,4.2-9.5,9.5
			S154.1,313.4,159.4,313.4z"/>
		<path class="st5" d="M159.4,267.3h110.3c5.3,0,9.5-4.2,9.5-9.5s-4.2-9.5-9.5-9.5H159.4c-5.3,0-9.5,4.2-9.5,9.5
			S154.1,267.3,159.4,267.3z"/>
		<path class="st5" d="M159.4,221.3h169.9c5.3,0,9.5-4.2,9.5-9.5c0-5.3-4.2-9.5-9.5-9.5H159.4c-5.3,0-9.5,4.2-9.5,9.5
			C149.9,217,154.1,221.3,159.4,221.3z"/>
		<path class="st5" d="M159.4,175.2h169.9c5.3,0,9.5-4.2,9.5-9.5s-4.2-9.5-9.5-9.5H159.4c-5.3,0-9.5,4.2-9.5,9.5
			S154.1,175.2,159.4,175.2z"/>
		<path class="st5" d="M74.1,237.8c5.3,0,9.5-4.2,9.5-9.5v-0.2c0-5.3-4.2-9.5-9.5-9.5c-5.3,0-9.5,4.2-9.5,9.5v0.2
			C64.6,233.6,68.8,237.8,74.1,237.8z"/>
		<path class="st5" d="M386.6,233.6L386.6,233.6c-3.8,3.8-3.9,9.8-0.1,13.4c1.9,1.9,4.2,2.8,6.7,2.8s4.8-0.9,6.7-2.7l0.1-0.1
			c3.7-3.7,3.8-9.7,0-13.4C396.4,229.8,390.4,229.8,386.6,233.6z"/>
		<path class="st5" d="M159.4,129.1h29.4c5.3,0,9.5-4.2,9.5-9.5c0-5.3-4.2-9.5-9.5-9.5h-29.4c-5.3,0-9.5,4.2-9.5,9.5
			C149.9,124.8,154.1,129.1,159.4,129.1z"/>
	</g>
</g>
</svg>
