<?xml version="1.0" encoding="utf-8"?>
<!-- Generator: Adobe Illustrator 19.1.0, SVG Export Plug-In . SVG Version: 6.00 Build 0)  -->
<svg version="1.1" xmlns="http://www.w3.org/2000/svg" xmlns:xlink="http://www.w3.org/1999/xlink" x="0px" y="0px"
	 viewBox="-153 176.4 91.8 61" style="enable-background:new -153 176.4 91.8 61;" xml:space="preserve">
<style type="text/css">
	.st0{display:none;}
	.st1{display:inline;}
	.st2{clip-path:url(#SVGID_2_);}
	.st3{opacity:0.56;fill:#E6ECFF;enable-background:new    ;}
	.st4{opacity:0.51;fill:#EDAA9F;enable-background:new    ;}
	.st5{fill:#FFFFFF;}
</style>
<g id="Capa_2">
</g>
<g id="Capa_1">
	<g id="Img">
	</g>
	<g id="Ini-D1" class="st0">
	</g>
	<g id="Ini-R-1" class="st0">
	</g>
	<g id="Ini-D-2">
	</g>
	<g id="Ini-R-2" class="st0">
	</g>
	<g id="Ini-D3">
		<g class="st0">
			<g class="st1">
				<defs>
					<rect id="SVGID_1_" x="-2450.4" y="-880.3" width="1920" height="932.5"/>
				</defs>
				<clipPath id="SVGID_2_">
					<use xlink:href="#SVGID_1_"  style="overflow:visible;"/>
				</clipPath>
				<g class="st2">
					<path class="st3" d="M-1993.2,189.2c0,0,187.6-315.5,591.2-117.3c403.6,198.3,472.7,21.2,558.4-97.3
						c81.8-113,128.6-392.5,491.2-264.9C66.1-143-42.2,74.5-42.2,74.5s-50.4,653.9-1411.1,662.1
						C-2094.4,740.5-2038.3,323.8-1993.2,189.2z"/>
					<path class="st4" d="M-215.4-285.6c0,0-368.7-194.6-573.5,174.1s-258.6,398.6-532.5,548.8s-169,291-169,291
						s58.9,184.3,588.8,38.4S150.7-47.5-215.4-285.6z"/>
				</g>
			</g>
		</g>
	</g>
	<g id="Ini-R-3">
	</g>
	<polygon class="st5" points="-67.7,190.9 -106.8,229.9 -146.5,190.2 	"/>
</g>
</svg>
