<?xml version="1.0" encoding="utf-8"?>
<!-- Generator: Adobe Illustrator 19.1.0, SVG Export Plug-In . SVG Version: 6.00 Build 0)  -->
<svg version="1.1" id="Layer_3" xmlns="http://www.w3.org/2000/svg" xmlns:xlink="http://www.w3.org/1999/xlink" x="0px" y="0px"
	 viewBox="19 -13.6 437 426.6" style="enable-background:new 19 -13.6 437 426.6;" xml:space="preserve">
<style type="text/css">
	.st0{fill:#284268;}
	.st1{fill:#EAEAEA;}
	.st2{fill:#FFFFFF;}
</style>
<g>
	<path class="st0" d="M33.4,338.2c-5.7-5.2-7.6-11.5-7.4-19.3c0.5-17.5,1-35.1-0.1-52.6c-2.4-38.9,27.9-73.2,69.5-72.9
		c11.2,0.1,20.4-4.3,28.4-13.6c-7.6-5.7-14.7-11.5-20.4-18.8c-12.4-15.8-19.2-33.5-19.1-53.5c0.1-15.4-1.5-30.8,1.4-46.2
		c8.1-43.8,48.5-75,92.3-71.3c45,3.8,79.7,40.8,80.3,85.5c0.2,13.6,0.8,27.3-0.5,40.8c-2.6,24.2-13.8,44.2-33.4,59
		c-5.8,4.3-5.1,6.6,0,10.3c6.6,4.7,13.6,7.5,21.8,7.9c44.6,2,70.5,29.3,70.4,73.7c0,17.2-0.4,34.4,0.2,51.7
		c0.2,7.8-1.8,14.1-7.5,19.3C217.3,338.2,125.4,338.2,33.4,338.2z"/>
	<path class="st1" d="M171.3,194.1c6.7,0,13.2-0.8,19.4-2.3c4.4,7.1,10,13,16.4,17.9c-20.2,16.9-51.5,16.9-71.7,0
		c6.4-4.9,12-10.8,16.4-17.9C158.1,193.2,164.6,194.1,171.3,194.1L171.3,194.1z"/>
	<path class="st1" d="M55.4,260.5c0-21,17-38,38-38h2.1c3.8,0,7.4-0.4,11-1l5.2,5.2c15.9,16,37.3,24.8,59.8,24.8
		c22.6,0,43.9-8.8,59.8-24.8l5.2-5.2c3.6,0.5,7.2,1,11,1h2.1c21,0,38,17,38,38v49.1H55.4V260.5z"/>
	<path class="st1" d="M113.4,90.4c0.5-7.7-0.6-16.8,1.6-25.7c6.6-27.8,33.6-48.4,60.5-45.5c30.5,3.2,53.5,27.2,53.9,57.1
		c0.2,13.6,1.6,27.2-1.1,40.7c-6.1,31-31.8,49.9-64,47.2c-27.8-2.4-50.5-28.1-50.8-57.9C113.3,101.3,113.4,96.5,113.4,90.4z"/>
</g>
<g>
	<path class="st2" d="M295.6,234c0,0,41.3-67.7,78,0l64.1,13.1l4.8,52.7h-13.8l-1.9,79.7l-7.6,4.8H254.8l-9.1-4.8v-78.4l-8.9-3.9
		l-2.5-51.7L295.6,234z"/>
	<path class="st0" d="M422.5,234h-41.1v-3.2c0-16.5-13.3-30.5-29-30.5h-35.2c-15.7,0-28.8,14-28.8,30.5v3.2h-38.3
		c-15.7,0-29,13.3-29,29.9v33.9c0,4.4,4,7.5,8.4,7.5h4.5v59.7c0,16.5,12.7,30.3,28.5,30.3h148c15.7,0,28.7-13.8,28.7-30.3v-59.7h4.3
		c2,0.1,4-0.7,5.4-2.1c1.4-1.4,2.2-3.4,2.1-5.4v-33.9C450.8,247.3,438.3,234,422.5,234z M304.1,230.8c0-7.8,6-14.6,13-14.6h35.2
		c7,0,13.2,6.9,13.2,14.6v3.2h-61.4V230.8z M236.8,263.8c0-7.8,6.2-14.1,13.2-14.1h172.4c7,0,12.4,6.2,12.4,14.1v25.6h-68.2v-10.5
		c0-4.4-3.7-8.1-8.1-8.3h-47.7c-4.4,0-7.6,3.9-7.6,8.3v10.5h-66.3L236.8,263.8L236.8,263.8z M350.8,286.5v21.8h-31.7v-21.8H350.8z
		 M423.1,365.1c0,7.8-5.8,14.5-12.7,14.5H262.3c-7.1,0-12.6-6.8-12.6-14.5v-59.7h53.5v11.2c-0.1,2,0.7,4,2.1,5.4
		c1.4,1.4,3.4,2.2,5.4,2.1h47.7c2.1,0.1,4.1-0.7,5.6-2.1c1.6-1.4,2.4-3.4,2.4-5.5v-11.2H423v59.8H423.1z"/>
</g>
</svg>
