<?xml version="1.0" encoding="utf-8"?>
<!-- Generator: Adobe Illustrator 19.1.0, SVG Export Plug-In . SVG Version: 6.00 Build 0)  -->
<svg version="1.1" id="Capa_1" xmlns="http://www.w3.org/2000/svg" xmlns:xlink="http://www.w3.org/1999/xlink" x="0px" y="0px"
	 viewBox="-145.9 139.1 73.3 92" style="enable-background:new -145.9 139.1 73.3 92;" xml:space="preserve">
<style type="text/css">
	.st0{fill:#B5B5B5;}
	.st1{fill:#FEFEFE;}
</style>
<g>
	<path class="st0" d="M-108.7,228.4c-6.9,0-13.8,0-20.7,0c-2.6,0-4-1.2-4.2-3.7c-0.4-5.2-0.8-10.5-1.2-15.7
		c-0.5-6.1-0.9-12.2-1.4-18.3c-0.4-6-0.9-11.9-1.3-17.9c-0.3-3.4-0.5-6.9-0.7-10.3c0-0.5-0.2-0.7-0.8-0.7c-0.6,0-1.2,0-1.9,0
		c-0.7,0-1.2-0.4-1.2-1.2c0-1.9-0.2-3.9,0.1-5.8c0.5-3.3,3-5.4,6.5-5.4c4.9,0,9.8,0,14.6,0c0.9,0,1.2-0.3,1.1-1.1
		c-0.1-0.9,0-1.8,0-2.8c0.1-1.9,1.6-3.5,3.6-3.5c5,0,10,0,15,0c2,0,3.5,1.5,3.6,3.5c0,1,0.1,1.9,0,2.9c-0.1,0.8,0.1,1,1,1
		c4.9,0,9.9,0,14.8,0c3.1,0,5.6,1.8,6.3,4.7c0.3,1.3,0.2,2.5,0.2,3.8c0,0.8,0,1.6,0,2.4c0,1-0.5,1.4-1.5,1.5c-0.6,0-1.1,0-1.7,0
		c-0.5,0-0.7,0.2-0.7,0.7c-0.2,3.4-0.5,6.8-0.7,10.2c-0.5,6.1-0.9,12.3-1.4,18.4c-0.4,6-0.9,11.9-1.3,17.9c-0.4,5.3-0.8,10.7-1.2,16
		c-0.2,2.2-1.7,3.5-3.9,3.5C-94.7,228.4-101.7,228.4-108.7,228.4z"/>
	<path class="st1" d="M-133.4,193.3c-0.4-5.9-0.9-11.8-1.3-17.7c-0.3-4.3-0.6-8.7-1-13c-0.1-0.8,0.2-0.8,0.8-0.8c2.7,0,5.4,0,8,0
		c14.7,0,29.5,0,44.2,0c0.7,0,1,0,0.9,0.9c-0.8,10.1-1.5,20.1-2.2,30.2c-0.8,10.4-1.5,20.9-2.3,31.3c-0.1,1.4-0.4,1.7-1.8,1.7
		c-13.8,0-27.6,0-41.4,0c-1.3,0-1.7-0.3-1.7-1.6c-0.5-6.8-1-13.6-1.5-20.4C-132.9,200.4-133.1,196.9-133.4,193.3
		C-133.4,193.3-133.4,193.3-133.4,193.3z"/>
	<path class="st1" d="M-108.7,159.3c-9.2,0-18.3,0-27.5,0c-1,0-1.9,0-2.9,0c-0.4,0-0.6-0.1-0.6-0.6c0-1.1,0-2.3,0-3.4
		c0.1-2,1.7-3.5,3.7-3.5c5.6,0,11.2,0,16.9,0c7.3,0,14.6,0,21.9,0c5,0,10,0,15.1,0c2.7,0,4.2,1.5,4.2,4.1c0,0.9,0,1.8,0,2.7
		c0,0.5-0.1,0.7-0.6,0.6c-1.6,0-3.1-0.1-4.7-0.1C-91.7,159.3-100.2,159.3-108.7,159.3z"/>
	<path class="st1" d="M-108.7,149.4c-2.6,0-5.3,0-7.9,0c-0.6,0-0.7-0.2-0.7-0.7c0-0.9,0-1.8,0-2.8c0-1,0.4-1.4,1.4-1.4
		c4.8,0,9.6,0,14.4,0c1,0,1.4,0.4,1.4,1.4c0,0.9,0,1.9,0,2.8c0,0.5-0.2,0.6-0.7,0.6C-103.4,149.4-106,149.4-108.7,149.4z"/>
	<path class="st0" d="M-122.2,193.5c0-7,0-14,0-21c0-0.7,0.1-1,0.9-0.9c1.6,0.1,1.6,0,1.6,1.6c0,13.7,0,27.5,0,41.2
		c0,0.8-0.2,1.1-1.1,1.1c-1.4-0.1-1.4,0-1.4-1.5C-122.2,207.2-122.2,200.3-122.2,193.5z"/>
	<path class="st0" d="M-97.6,193.5c0-7,0-14,0-21c0-0.7,0.2-0.9,0.9-0.9c1.6,0,1.6,0,1.6,1.6c0,13.7,0,27.4,0,41.1
		c0,0.9-0.2,1.3-1.1,1.1c-0.2,0-0.4,0-0.5,0c-0.7,0.1-0.9-0.2-0.9-0.9C-97.6,207.6-97.6,200.6-97.6,193.5z"/>
	<path class="st0" d="M-109.9,193.5c0-7,0-14,0-21c0-0.6,0.1-0.9,0.8-0.8c1.7,0,1.7,0,1.7,1.7c0,13.7,0,27.3,0,41
		c0,0.9-0.1,1.2-1.1,1.1c-1.4-0.1-1.4,0-1.4-1.4C-109.9,207.2-109.9,200.4-109.9,193.5z"/>
</g>
</svg>
