<?xml version="1.0" encoding="utf-8"?>
<!-- Generator: Adobe Illustrator 19.1.0, SVG Export Plug-In . SVG Version: 6.00 Build 0)  -->
<svg version="1.1" id="Layer_3" xmlns="http://www.w3.org/2000/svg" xmlns:xlink="http://www.w3.org/1999/xlink" x="0px" y="0px"
	 viewBox="19 -13.6 437 426.6" style="enable-background:new 19 -13.6 437 426.6;" xml:space="preserve">
<style type="text/css">
	.st0{fill:#284268;}
	.st1{fill:#EAEAEA;}
	.st2{fill:#FFFFFF;}
	.st3{fill:#678DC9;}
</style>
<g>
	<path class="st0" d="M31.7,336c-5.6-5.2-7.6-11.5-7.4-19.2c0.5-17.4,1-34.9-0.1-52.3C21.8,225.8,52,191.7,93.4,192
		c11.1,0.1,20.3-4.3,28.2-13.5c-7.6-5.6-14.7-11.5-20.3-18.7c-12.3-15.7-19.1-33.3-19-53.2c0.1-15.3-1.5-30.6,1.4-45.9
		c8-43.7,48.3-74.7,91.8-71c44.7,3.8,79.3,40.5,79.9,85.1c0.2,13.5,0.8,27.2-0.5,40.5c-2.6,24.1-13.8,44-33.3,58.7
		c-5.7,4.3-5.1,6.6,0,10.2c6.6,4.6,13.6,7.5,21.7,7.8c44.4,2,70.2,29.2,70.1,73.4c0,17.1-0.4,34.3,0.2,51.4c0.2,7.7-1.8,14-7.5,19.2
		C214.7,336,123.2,336,31.7,336z"/>
	<path class="st1" d="M168.9,192.5c6.7,0,13.1-0.8,19.3-2.3c4.4,7,9.9,12.9,16.3,17.8c-20.1,16.9-51.2,16.9-71.3,0
		c6.4-4.8,11.9-10.8,16.3-17.8C155.7,191.7,162.2,192.5,168.9,192.5L168.9,192.5z"/>
	<path class="st1" d="M53.6,258.6c0-20.9,16.9-37.8,37.8-37.8h2.1c3.7,0,7.4-0.4,10.9-1l5.2,5.2c15.9,15.9,37.1,24.7,59.5,24.7
		c22.5,0,43.6-8.7,59.5-24.7l5.2-5.2c3.6,0.5,7.2,1,10.9,1h2.1c20.9,0,37.8,16.9,37.8,37.8v48.8h-231V258.6z"/>
	<path class="st1" d="M111.3,89.4c0.5-7.7-0.6-16.7,1.5-25.6c6.6-27.7,33.4-48.1,60.2-45.3c30.3,3.2,53.2,27.1,53.6,56.8
		c0.2,13.5,1.5,27.1-1.1,40.5c-6.1,30.9-31.6,49.7-63.7,46.9c-27.7-2.4-50.2-28-50.6-57.6C111.2,100.2,111.3,95.5,111.3,89.4z"/>
</g>
<g>
	<polygon class="st2" points="341.9,190.2 244.7,250.4 243.8,345.5 337.1,399.1 441.6,341.7 441.6,247.5 	"/>
	<g>
		<path class="st3" d="M243.8,247.5v98l98,56v-98L243.8,247.5z"/>
		<g>
			<path class="st0" d="M448,244.9c0-1.1-0.6-2.2-1.6-2.8l0,0l-41.6-22.7l-59.6-34.1c-2.2-1.1-4.8-1.1-6.9,0l-98,56
				c-2.2,1.3-3.6,3.6-3.6,6.1v98c0,2.5,1.4,4.8,3.6,6.1l98,56c1,0.6,2.3,0.9,3.4,0.9s2.4-0.3,3.4-0.9l98-56c2.2-1.3,3.6-3.6,3.6-6.1
				v-21l0.6-34.8l0.6-44.4v-0.3H448z M341.8,199.5l83.9,48L403.9,260L320,212L341.8,199.5z M380.3,276.3l-86.5-49.5l12.2-6.9
				l92,52.6v26.6l-14,7v-23.7C383.8,279.8,382.4,277.7,380.3,276.3L380.3,276.3z M250.9,259.5l84,48v82l-84-48V259.5L250.9,259.5z
				 M348.8,389.5v-82l21-11.9v21.9c0,2.5,1.3,4.7,3.3,6c1,0.7,2.4,1,3.7,1c1,0,2.2-0.2,3.2-0.7l28-14c2.4-1.1,3.9-3.7,3.9-6.2v-31.9
				l21-11.9v82L348.8,389.5z M279.7,234.9l83.9,48l-21.8,12.5l-83.9-48L279.7,234.9z"/>
		</g>
	</g>
</g>
</svg>
