<?xml version="1.0" encoding="utf-8"?>
<!-- Generator: Adobe Illustrator 19.1.0, SVG Export Plug-In . SVG Version: 6.00 Build 0)  -->
<svg version="1.1" id="Capa_1" xmlns="http://www.w3.org/2000/svg" xmlns:xlink="http://www.w3.org/1999/xlink" x="0px" y="0px"
	 viewBox="-138.3 163.3 74.4 74.8" style="enable-background:new -138.3 163.3 74.4 74.8;" xml:space="preserve">
<style type="text/css">
	.st0{fill:#FEFEFE;stroke:#757575;stroke-width:1.5;stroke-miterlimit:10;}
</style>
<g>
	<path class="st0" d="M-128.2,164.6c0.9,0.3,1.5,1,2.1,1.6c2.1,2.2,4.3,4.3,6.5,6.5c0.3,0.3,0.3,0.5,0,0.9c-2.8,2.8-5.7,5.7-8.5,8.6
		c-0.3,0.3-0.5,0.3-0.8,0c-2.3-2.4-4.8-4.8-7.1-7.2c-1.1-1.2-1.2-2.9-0.1-4.1c1.8-1.9,3.6-3.6,5.4-5.5c0.3-0.3,0.8-0.5,1.2-0.7
		C-129,164.6-128.6,164.6-128.2,164.6z"/>
	<path class="st0" d="M-65.7,236.4c-1.8-0.7-3.6-1.2-5.3-1.9c-2.3-0.8-4.5-1.5-6.9-2.3c2.8-2.8,5.7-5.6,8.5-8.3
		c0.2,0.1,0.1,0.2,0.2,0.4c1.2,3.9,2.4,7.7,3.6,11.5c0.1,0.2,0.1,0.3,0.1,0.5C-65.7,236.4-65.7,236.4-65.7,236.4z"/>
	<path class="st0" d="M-70.4,222c-0.2,0.2-0.2,0.2-0.3,0.4c-2.9,2.9-5.8,5.8-8.7,8.7c-0.3,0.3-0.5,0.2-0.7-0.1
		c-3.3-3.3-6.6-6.7-9.9-10c-12.2-12.2-24.3-24.5-36.5-36.7c-0.5-0.5-0.5-0.7,0-1.2c2.7-2.7,5.5-5.5,8.2-8.2c0.4-0.4,0.6-0.4,1,0
		c15.5,15.6,31,31.2,46.5,46.7C-70.8,221.7-70.6,221.8-70.4,222z"/>
</g>
</svg>
