<?xml version="1.0" encoding="utf-8"?>
<!-- Generator: Adobe Illustrator 19.1.0, SVG Export Plug-In . SVG Version: 6.00 Build 0)  -->
<svg version="1.1" id="Capa_1" xmlns="http://www.w3.org/2000/svg" xmlns:xlink="http://www.w3.org/1999/xlink" x="0px" y="0px"
	 viewBox="-182 315.6 229.5 211.3" style="enable-background:new -182 315.6 229.5 211.3;" xml:space="preserve">
<style type="text/css">
	.st0{display:none;}
	.st1{display:inline;}
	.st2{display:inline;opacity:0.51;clip-path:url(#SVGID_2_);enable-background:new    ;}
	.st3{clip-path:url(#SVGID_7_);}
	.st4{clip-path:url(#SVGID_8_);}
	.st5{clip-path:url(#SVGID_9_);}
	.st6{opacity:0.48;clip-path:url(#SVGID_10_);fill:#D10055;enable-background:new    ;}
	.st7{opacity:5.000000e-002;clip-path:url(#SVGID_10_);fill:#FFFFFF;enable-background:new    ;}
	.st8{opacity:0.12;clip-path:url(#SVGID_10_);fill:#FF0568;enable-background:new    ;}
	.st9{display:none;opacity:0.82;enable-background:new    ;}
	.st10{clip-path:url(#SVGID_12_);}
	.st11{fill:#EDEDED;}
</style>
<g id="Img">
</g>
<g id="Ini-D1" class="st0">
</g>
<g id="Ini-R-1" class="st0">
</g>
<g id="Ini-D-2">
</g>
<g id="Ini-R-2" class="st0">
</g>
<g id="Ini-D3">
</g>
<g id="Ini-R-3">
</g>
<g id="Ini-04" class="st0">
</g>
<g id="Ini-R-4" class="st0">
</g>
<g>
	<g>
		<g id="_x34_04-D1" class="st0">
			<defs>
				<rect id="SVGID_1_" x="-2186.9" y="318.2" width="1920" height="937.5"/>
			</defs>
			<clipPath id="SVGID_2_" class="st1">
				<use xlink:href="#SVGID_1_"  style="overflow:visible;"/>
			</clipPath>
			<g class="st2">
				<g>
					<defs>
						<rect id="SVGID_3_" x="-2235.5" y="170.2" width="2017.3" height="1344.9"/>
					</defs>
					<defs>
						<rect id="SVGID_4_" x="-2235.5" y="170.2" width="2017.3" height="1344.9"/>
					</defs>
					<defs>
						<rect id="SVGID_5_" x="-2235.5" y="170.2" width="2017.3" height="1344.9"/>
					</defs>
					<defs>
						<rect id="SVGID_6_" x="-2235.5" y="170.2" width="2017.3" height="1344.9"/>
					</defs>
					<clipPath id="SVGID_7_">
						<use xlink:href="#SVGID_3_"  style="overflow:visible;"/>
					</clipPath>
					<clipPath id="SVGID_8_" class="st3">
						<use xlink:href="#SVGID_4_"  style="overflow:visible;"/>
					</clipPath>
					<clipPath id="SVGID_9_" class="st4">
						<use xlink:href="#SVGID_5_"  style="overflow:visible;"/>
					</clipPath>
					<clipPath id="SVGID_10_" class="st5">
						<use xlink:href="#SVGID_6_"  style="overflow:visible;"/>
					</clipPath>
					<polygon class="st6" points="-89.7,750.7 -1090.5,1855.2 -1193.6,1595.5 -192.8,491 					"/>
					<polygon class="st7" points="24.2,-5.1 -715,810.7 -791.1,618.9 -51.9,-196.9 					"/>
					<polygon class="st8" points="-90.3,637.2 -1091.1,1741.8 -1194.2,1482.1 -193.5,377.5 					"/>
				</g>
			</g>
		</g>
		<g id="_x34_04-D2">
			<g class="st9">
				<g class="st1">
					<defs>
						<rect id="SVGID_11_" x="-182" y="318.2" width="1920" height="937.5"/>
					</defs>
					<clipPath id="SVGID_12_">
						<use xlink:href="#SVGID_11_"  style="overflow:visible;"/>
					</clipPath>
					<g class="st10">
						
							<image style="overflow:visible;enable-background:new    ;" width="1922" height="1282" xlink:href="F8F40187.png"  transform="matrix(1 0 0 1 -182.4961 185.1874)">
						</image>
					</g>
				</g>
			</g>
			<g id="Logo_Xacalli_5_">
				<g>
					<path class="st11" d="M-127.9,503c0.1,0,0.4,0.1,0.4,0.4c0,0.1-0.1,0.4-0.4,0.4c-0.5,0-1,0-1.5,0.1c0,0,0,0,0,0.1
						c0,3.6,0.3,6.5,0.6,7.1c0.3,0.5,0.3,0.8,0.1,0.9c-0.1,0.3-0.5,0.4-0.9,0.4l0,0c-0.5,0-1.1-0.3-1.4-0.9
						c-0.5-1.1-0.8-4.6-0.8-7.4c-0.9,0.1-1.7,0.3-2.5,0.4c-1.3,0.3-2.4,0.4-3.7,0.6c0,2.9,0.4,5.3,0.6,5.9c0.3,0.5,0.3,0.8,0.1,0.9
						c-0.1,0.3-0.5,0.4-0.9,0.4l0,0c-0.5,0-1.1-0.3-1.4-0.9c-0.1-0.1-0.1-0.4-0.3-0.6l0,0l0,0l0,0c-0.1-0.3-0.1-0.6-0.3-1
						c-0.3-0.8-0.9-1.5-1.3-2.3c-0.8-1-1.3-1.9-1-2.4c0.3-0.4,0.8-0.5,1.3-0.5c0.3,0,0.4,0,0.6,0c0-0.3,0-0.6,0-0.9
						c0-3.9,0.3-7.1,0.8-8.7c0.3-0.6,1.3-0.9,1.8-0.8c0.4,0.1,0.6,0.5,0.5,0.9c-0.5,1.5-0.8,4.8-0.8,8.5c0,0.3,0,0.4,0,0.6
						c1.1-0.1,2.3-0.4,3.6-0.6c0.9-0.1,1.8-0.4,2.7-0.5c0-3.8,0.3-6.9,0.8-8.3c0.3-0.6,1.3-0.9,1.8-0.8c0.4,0.1,0.6,0.5,0.5,0.9
						c-0.4,1.4-0.6,4.5-0.8,7.9C-128.9,503-128.4,503-127.9,503L-127.9,503z M-140.1,508.1c-0.1-0.9-0.1-1.8-0.1-2.7
						c-0.3,0-0.5,0-0.6,0c-0.5,0-0.6,0.1-0.6,0.1s0,0.1,0.1,0.5c0.1,0.4,0.5,0.8,0.8,1.1C-140.5,507.5-140.2,507.7-140.1,508.1z"/>
					<path class="st11" d="M-116.5,507.9c-0.9,1.1-1.8,1.3-2.2,1.3c-0.4,0-0.5-0.1-0.8-0.3c-0.1,0.6-0.4,1.4-0.8,1.9
						c-0.6,1-1.7,1.5-2.7,1.5c-1,0-2-0.5-2.7-1.5c-0.6-0.9-1-1.9-1-3.1c0-2.4,1.3-4.8,3.7-4.8c1.1,0,1.9,0.5,2.5,1.3
						c0.1,0.1,0.3,0.4,0.4,0.6c0.5,0.9,0.6,2,0.6,2.8v0.1c0,0,0,0,0,0.1c0,0,0,0,0,0.1l0,0l0,0c0.1,0.3,0.3,0.5,0.6,0.5
						c0.3,0,0.9-0.1,1.7-1c0.1-0.1,0.4-0.1,0.5-0.1C-116.4,507.5-116.4,507.7-116.5,507.9z M-120.3,507.6c0-0.1,0.1-0.4,0.4-0.4
						c0,0,0,0,0.1,0c0-0.9-0.3-1.8-0.6-2.4c0-0.1-0.1-0.1-0.1-0.3c-0.4-0.4-0.9-0.6-1.4-0.6c-1.4,0-2.3,2-2.3,4.1
						c0,0.9,0.3,1.7,0.8,2.3c0.4,0.5,1,0.9,1.5,0.9c1.3,0,2.2-1.5,2.3-3.1V508l0,0C-120.2,508-120.3,507.9-120.3,507.6z"/>
					<path class="st11" d="M-109.9,500.2L-109.9,500.2C-109.9,500.3-109.9,500.3-109.9,500.2C-109.9,500.3-109.9,500.3-109.9,500.2
						c0,0.1,0,0.1,0,0.1l0,0l0,0l0,0l0,0l0,0l0,0l0,0l0,0l0,0l0,0l0,0l0,0l0,0l0,0l0,0l0,0l0,0l0,0l0,0l0,0l0,0l0,0l0,0l0,0l0,0l0,0
						l0,0l0,0l0,0c0,0,0,0-0.1-0.1c-0.5-0.5-2-0.1-3.7,0.1c-0.3,0-0.5,0.1-0.9,0.1c-0.3,1.5-0.3,3.3-0.3,5.3c0,3.2,0.6,5.2,1.5,5.2
						c0.3,0,0.6-0.1,1.3-0.9c0.1-0.1,0.3-0.3,0.4-0.5l0.1-0.1c0.5-0.6,1-1.4,1.5-2.3c0.1-0.1,0.3-0.3,0.4-0.1
						c0.1,0.1,0.3,0.3,0.1,0.4c-0.1,0.4-0.8,1.5-1.5,2.4c0,0,0,0-0.1,0.1c-0.1,0.3-0.3,0.4-0.4,0.5c-0.9,1-1.7,1.5-2.3,1.5
						c-2.5,0-2.9-4.5-2.9-7c0-1.5,0.1-2.9,0.3-4.3c-0.5,0-0.9,0.1-1.4,0.1h-0.1c-0.1,0-0.4,0-0.5,0c-1.1,0-2.3-0.4-3.1-1.3
						c0,0,0,0,0-0.1l0,0l0,0l0,0l0,0l0,0l0,0l0,0l0,0l0,0l0,0l0,0l0,0l0,0l0,0l0,0l0,0l0,0l0,0l0,0l0,0l0,0l0,0l0,0l0,0l0,0l0,0l0,0
						c0,0,0,0,0.1,0l0,0l0,0l0,0l0,0l0,0l0,0l0,0l0,0c0,0,0,0,0.1,0l0,0c0.8,0.8,1.9,1,3.1,1c0.5,0,1.1-0.1,1.7-0.3
						c0.1-1,0.3-1.9,0.5-2.7c0.4-1.4,1-3.2,2-3.2c0.4,0,0.8,0.3,0.9,0.6c0.1,0.3,0.1,0.5,0,0.8c-0.6,0.6-1.1,2-1.4,3.9
						c0.9-0.3,1.8-0.4,2.5-0.5c1,0,1.8,0.3,2.4,0.8l0.1,0.1l0,0l0,0l0,0l0,0l0,0C-109.9,500.1-109.9,500.1-109.9,500.2L-109.9,500.2
						z"/>
					<path class="st11" d="M-102.3,507.6C-102.3,507.6-102.3,507.7-102.3,507.6C-102.3,507.7-102.3,507.7-102.3,507.6
						C-102.3,507.7-102.3,507.7-102.3,507.6C-102.3,507.7-102.3,507.7-102.3,507.6c0,0.1,0,0.1,0,0.1l0,0l0,0c-0.5,1-1.1,2-2,2.9
						c-0.1,0.1-0.3,0.4-0.5,0.5l0,0c-0.8,0.6-1.7,1.1-2.7,1.1c-0.8,0-1.5-0.4-2.2-0.9c-0.5-0.5-1-1.4-1.1-2.8v-0.1c0,0,0,0,0-0.1
						s0-0.3,0-0.3c0-1.3,0.4-2.4,0.9-3.4c0.8-1.1,1.7-1.8,2.9-1.8c0.9,0,1.7,0.5,1.9,1.3l0,0c0.1,0.1,0.1,0.4,0.1,0.5v0.1
						c0,1.4-0.9,2.5-2.5,3.2c-0.4,0.1-0.9,0.3-1.3,0.4c0.1,0.9,0.4,1.5,0.6,1.8c0.4,0.5,0.9,0.8,1.4,0.8c0.4,0,0.8-0.1,1.1-0.5l0,0
						c0.3-0.1,0.4-0.4,0.6-0.6c0.5-0.6,1.1-1.5,1.8-2.7l0,0l0,0l0,0l0,0l0,0l0,0l0,0l0,0l0,0l0,0l0,0l0,0l0,0l0,0l0,0l0,0l0,0l0,0
						l0,0c0,0,0,0,0.1,0l0,0C-102.3,507.5-102.3,507.5-102.3,507.6L-102.3,507.6L-102.3,507.6L-102.3,507.6z M-108.6,507.9
						c1.4-0.4,3.2-1.1,3.2-2.9c0-0.1,0-0.4-0.1-0.5l0,0c-0.1-0.3-0.4-0.5-0.8-0.5c-0.8,0-1.3,0.8-1.5,1.1
						C-108.4,506-108.6,507-108.6,507.9z"/>
					<path class="st11" d="M-95.8,507.6L-95.8,507.6C-95.8,507.7-95.8,507.7-95.8,507.6C-95.8,507.7-95.8,507.7-95.8,507.6
						C-95.8,507.7-95.8,507.7-95.8,507.6C-95.8,507.7-95.8,507.7-95.8,507.6C-95.8,507.7-95.8,507.7-95.8,507.6c0,0.1,0,0.1,0,0.1
						l0,0c-0.1,0.4-0.8,1.5-1.5,2.4c0,0,0,0,0,0.1c-0.1,0.3-0.3,0.4-0.4,0.5c-0.9,1-1.7,1.5-2.3,1.5c-2.5,0-2.9-4.5-2.9-7
						c0-3.1,0.4-5.9,1.3-7.9c0.8-2,1.9-3.2,3.2-3.2c1.4,0,2.3,0.9,2.4,2.7l0,0c0,0,0,0,0,0.1l0,0c0,0,0,0,0,0.1c0,0,0,0,0,0.1
						c0,0,0,0,0,0.1c0,2.4-1.3,4.6-2,5.6c-0.6,0.9-1.4,1.7-2,2l0,0c-0.3,0.3-0.6,0.4-0.9,0.4c0,0.1,0,0.4,0,0.5
						c0,3.2,0.6,5.2,1.5,5.2c0.3,0,0.6-0.1,1.3-0.9l0,0c0.1-0.1,0.3-0.3,0.4-0.4l0.1-0.1c0.5-0.6,0.9-1.4,1.5-2.3l0,0l0,0l0,0l0,0
						l0,0l0,0c0,0,0,0,0.1,0l0,0l0,0l0,0l0,0l0,0l0,0l0,0l0,0l0,0l0,0l0,0l0,0l0,0l0,0l0,0l0,0C-95.9,507.5-95.8,507.5-95.8,507.6
						L-95.8,507.6L-95.8,507.6L-95.8,507.6L-95.8,507.6L-95.8,507.6z M-101.1,504.8c0.1,0,0.3-0.1,0.4-0.3l0,0
						c0.5-0.4,1.3-1.1,1.9-2c1.1-1.7,1.8-3.4,1.8-5v-0.1c0,0,0,0,0-0.1c0,0,0,0,0-0.1l0,0l0,0c0-0.6-0.3-1.5-0.9-1.5
						c-0.8,0-1.7,1.3-2.3,3.3C-100.7,500.5-101.1,502.6-101.1,504.8z"/>
					<path class="st11" d="M-74.6,498.9c0,2.3-1.1,4.6-2.9,6.1c-1.5,1.3-3.3,2-5.2,2c-0.1,0-0.4,0-0.5,0c-0.1,1.8-0.1,3.7-0.1,5.7
						c0,0.1,0,0.1,0,0.1c0,0.1-0.1,0.4-0.4,0.4l0,0c-0.5,0-0.9-0.3-1.1-0.6c-1.3-1.7-1.5-6.5-1.7-9.2c0-1.8,0-3.6,0.1-5.1
						c-0.4,0-0.8,0.1-1.1,0.1c-0.1,0-0.1,0-0.1,0c-0.1,0.1,0.1,0.8,0.3,1c0.3,0.8,0.6,1.5,0.1,2.2c-0.3,0.4-0.6,0.5-1.3,0.5
						c-0.1,0-0.4-0.1-0.4-0.4c0-0.1,0.1-0.4,0.4-0.4l0,0c0,0,0-0.1,0-0.4s-0.1-0.5-0.1-0.9c-0.3-0.9-0.5-1.9,0-2.5
						c0.3-0.3,0.6-0.5,1.1-0.5c0.4,0,0.8,0,1.1,0c0.1-1,0.3-1.9,0.4-2.4c0.1-0.5,0.9-0.6,1.5-0.5c0.5,0.1,0.8,0.4,0.9,0.6
						c0.3,0.4,0.3,1,0,1.4c0,0.1-0.1,0.3-0.3,0.4c-0.1,1.8-0.4,4.7-0.4,7.6c0,2.2,0,4.1,0.1,5.5c0,0.1,0,0.4,0,0.5
						c0-1.1,0.1-2.3,0.1-3.4l0,0l0,0l0,0l0,0l0,0l0,0l0,0l0,0l0,0l0,0l0,0l0,0l0,0l0,0l0,0l0,0l0,0l0,0l0,0l0,0l0,0l0,0l0,0l0,0l0,0
						l0,0l0,0l0,0l0,0l0,0c0-0.6,0.1-1.3,0.1-1.8c0.1-1.3,0.4-2.5,0.5-3.6c-0.1-0.1-0.1-0.3-0.1-0.3c0.1-0.3,0.3-0.9,0.5-1.5
						c0.5-1.9,1.1-3.2,2-3.9c0.6-0.6,1.3-0.9,2-0.9C-76.7,494.4-74.6,495.9-74.6,498.9z M-83.2,506.5c1.3,0,2.4-0.5,3.4-1.3
						c1.5-1.4,2.4-3.7,2.4-6.2c0-0.8-0.1-1.7-0.5-2.2c-0.3-0.4-0.6-0.9-1.3-0.9c-1.1,0-2.2,1.8-2.9,3.7c-0.4,1.4-0.8,3.2-0.9,5.3
						C-83.2,505.2-83.2,505.8-83.2,506.5z"/>
					<path class="st11" d="M-67.2,507.6C-67.2,507.6-67.2,507.7-67.2,507.6C-67.2,507.7-67.2,507.7-67.2,507.6
						C-67.2,507.7-67.2,507.7-67.2,507.6C-67.2,507.7-67.2,507.7-67.2,507.6c0,0.1,0,0.1,0,0.1l0,0l0,0c-0.5,1-1.1,2-2,2.9
						c-0.1,0.1-0.3,0.4-0.5,0.5l0,0c-0.8,0.6-1.7,1.1-2.7,1.1c-0.8,0-1.5-0.4-2.2-0.9c-0.5-0.5-1-1.4-1.1-2.8v-0.1c0,0,0,0,0-0.1
						s0-0.3,0-0.3c0-1.3,0.4-2.4,0.9-3.4c0.8-1.1,1.7-1.8,2.9-1.8c0.9,0,1.7,0.5,1.9,1.3l0,0c0.1,0.1,0.1,0.4,0.1,0.5v0.1
						c0,1.4-0.9,2.5-2.5,3.2c-0.4,0.1-0.9,0.3-1.3,0.4c0.1,0.9,0.4,1.5,0.6,1.8c0.4,0.5,0.9,0.8,1.4,0.8c0.4,0,0.8-0.1,1.1-0.5l0,0
						c0.3-0.1,0.4-0.4,0.6-0.6c0.5-0.6,1.1-1.5,1.8-2.7l0,0l0,0l0,0l0,0l0,0l0,0l0,0l0,0l0,0l0,0l0,0l0,0l0,0l0,0l0,0l0,0l0,0l0,0
						l0,0c0,0,0,0,0.1,0l0,0C-67.4,507.5-67.2,507.5-67.2,507.6L-67.2,507.6L-67.2,507.6L-67.2,507.6z M-73.6,507.9
						c1.4-0.4,3.2-1.1,3.2-2.9c0-0.1,0-0.4-0.1-0.5l0,0c-0.1-0.3-0.4-0.5-0.8-0.5c-0.8,0-1.3,0.8-1.5,1.1
						C-73.4,506-73.6,507-73.6,507.9z"/>
					<path class="st11" d="M-60.7,500.2L-60.7,500.2C-60.7,500.3-60.7,500.3-60.7,500.2C-60.7,500.3-60.7,500.3-60.7,500.2
						c0,0.1,0,0.1,0,0.1l0,0l0,0l0,0l0,0l0,0l0,0l0,0l0,0l0,0l0,0l0,0l0,0l0,0l0,0l0,0l0,0l0,0l0,0l0,0l0,0l0,0l0,0l0,0l0,0l0,0l0,0
						l0,0l0,0l0,0c0,0,0,0-0.1-0.1c-0.5-0.5-2-0.1-3.7,0.1c-0.3,0-0.5,0.1-0.9,0.1c-0.3,1.5-0.3,3.3-0.3,5.3c0,3.2,0.6,5.2,1.5,5.2
						c0.3,0,0.6-0.1,1.3-0.9c0.1-0.1,0.3-0.3,0.4-0.5l0.1-0.1c0.5-0.6,1-1.4,1.5-2.3c0.1-0.1,0.3-0.3,0.4-0.1
						c0.1,0.1,0.3,0.3,0.1,0.4c-0.1,0.4-0.8,1.5-1.5,2.4c0,0,0,0-0.1,0.1c-0.1,0.3-0.3,0.4-0.4,0.5c-0.9,1-1.7,1.5-2.3,1.5
						c-2.5,0-2.9-4.5-2.9-7c0-1.5,0.1-2.9,0.3-4.3c-0.5,0-0.9,0.1-1.4,0.1h-0.1c-0.1,0-0.4,0-0.5,0c-1.1,0-2.3-0.4-3.1-1.3
						c0,0,0,0,0-0.1l0,0l0,0l0,0l0,0l0,0l0,0l0,0l0,0l0,0l0,0l0,0l0,0l0,0l0,0l0,0l0,0l0,0l0,0l0,0l0,0l0,0l0,0l0,0l0,0l0,0l0,0l0,0
						c0,0,0,0,0.1,0l0,0l0,0l0,0l0,0l0,0l0,0l0,0l0,0c0,0,0,0,0.1,0l0,0c0.8,0.8,1.9,1,3.1,1c0.5,0,1.1-0.1,1.7-0.3
						c0.1-1,0.3-1.9,0.5-2.7c0.4-1.4,1-3.2,2-3.2c0.4,0,0.8,0.3,0.9,0.6c0.1,0.3,0.1,0.5,0,0.8c-0.6,0.6-1.1,2-1.4,3.9
						c0.9-0.3,1.8-0.4,2.5-0.5c1,0,1.8,0.3,2.4,0.8l0.1,0.1l0,0l0,0l0,0l0,0l0,0C-60.7,500.1-60.7,500.1-60.7,500.2L-60.7,500.2z"/>
					<path class="st11" d="M-54.9,507.9c-0.9,1.3-2.2,2.2-3.7,2.4c0.4,0.4,0.8,0.9,1,1.5c0.5,1.1,0.8,2.5,0.8,3.8c0,0.5,0,1-0.1,1.5
						c0,0.1-0.1,0.4-0.1,0.5c-0.4,0.8-0.9,1-1.3,1c-0.8,0-1.3-0.5-1.8-1.5c-0.4-0.8-0.6-1.8-0.9-3.2c-0.4-2.7-0.5-5.5-0.5-6.1
						c0-3.4,0.4-6.2,1.3-8.2c0.8-1.9,1.9-2.9,3.2-2.9c1.4,0,2.3,0.9,2.4,2.4l0,0c0,0,0,0,0,0.1v0.1c0,1.4-0.8,2.7-2,3.7
						c-0.6,0.5-1.3,0.9-1.8,1.1c-0.3,0.1-0.6,0.3-0.9,0.3c-0.1,1.3-0.3,2.5-0.3,3.9c0,0.3,0,0.6,0.1,1.3c1.7,0,3.2-0.9,4.2-2.3
						c0.1-0.1,0.4-0.1,0.5-0.1C-54.8,507.5-54.8,507.7-54.9,507.9z M-59.6,510.4c0.1,0.9,0.3,2,0.4,3.1c0.1,1.3,0.4,2.3,0.6,2.9
						c0.4,1.1,0.6,1.1,0.6,1.1c0.1,0,0.3-0.3,0.3-0.4V517c0.1-0.3,0.1-0.6,0.1-1.1C-57.4,513.5-58.4,510.7-59.6,510.4z M-59.3,503.7
						c0.3,0,0.4-0.1,0.8-0.3l0,0c0.5-0.3,1-0.5,1.5-1c0.6-0.5,1.7-1.7,1.7-3.2c0,0,0,0,0-0.1l0,0l0,0c0-0.5-0.1-1.1-0.9-1.1
						c-0.9,0-1.7,1-2.3,2.8C-59,501.5-59.2,502.5-59.3,503.7z"/>
					<path class="st11" d="M-45.7,507.9c-0.3,0.4-0.6,0.9-0.9,1.1c-0.5,0.5-0.9,0.8-1.1,0.8c-0.1,0-0.1,0-0.3,0
						c-0.4,0-0.8-0.3-1.1-0.6c-0.9-1-1.7-2.9-1.7-4.5c-0.1,0.3-0.3,0.5-0.5,0.9c-0.4,0.8-0.8,1.7-1,2.2c-0.5,1.5-0.8,3.1-0.8,4.3
						l0,0c0,0.1,0,0.1-0.1,0.3c0,0-0.1,0.1-0.3,0.1l0,0c-0.3,0-0.8-0.1-1.1-0.6c-1.3-1.8-0.9-7.1-0.5-8.5c0.1-0.4,0.8-0.5,1.1-0.4
						c0.5,0.1,0.8,0.5,0.6,0.9c-0.1,0.6-0.4,2.4-0.4,4.3c0,0.8,0,1.4,0,1.9c0.1-0.8,0.4-1.7,0.6-2.5c0-0.1,0.1-0.3,0.1-0.4
						c0.6-1.7,1.3-2.9,1.9-3.7c0.3-0.3,0.6-0.5,0.9-0.5c0.6,0,1.1,0.4,1.4,1.3c0.1,0.6,0.3,1.5,0.3,2.3c0,1,0.1,2.3,0.5,2.4l0,0
						c0,0,0.3,0,0.6-0.5c0.3-0.3,0.6-0.6,0.9-1c0.1-0.1,0.3-0.3,0.5-0.1C-45.7,507.5-45.6,507.7-45.7,507.9z"/>
					<path class="st11" d="M-40.5,507.7c0,0.1-0.3,0.6-0.6,1.1c-0.1,0.3-0.5,0.9-0.9,1.4c-0.9,1.3-1.8,2-2.5,2
						c-0.3,0-0.8-0.1-1.1-0.6c-1.3-1.8-0.9-7.1-0.5-8.5c0.1-0.4,0.8-0.5,1.1-0.4c0.5,0.1,0.8,0.5,0.6,0.9c-0.4,1.3-0.5,6.4,0.3,7.3
						l0.1,0.1c0.1,0,0.5-0.1,1.1-1c0,0,0-0.1,0.1-0.1c0,0,0-0.1,0.1-0.1c0.6-1,1.3-2,1.3-2.3c0-0.1,0.3-0.3,0.4-0.3
						C-40.6,507.4-40.5,507.6-40.5,507.7z M-45.3,501.4c-0.1-0.3-0.1-0.5-0.1-0.6c0-0.8,0.4-1.4,0.9-1.4c0.3,0,0.5,0.1,0.6,0.4
						c0.1,0.3,0.1,0.5,0.1,0.8c0,0.6-0.3,1.4-0.9,1.4C-44.9,501.7-45.2,501.6-45.3,501.4z"/>
					<path class="st11" d="M-32.8,507.6C-32.8,507.6-32.8,507.7-32.8,507.6C-32.8,507.7-32.8,507.7-32.8,507.6
						C-32.8,507.7-32.8,507.7-32.8,507.6C-32.8,507.7-32.8,507.7-32.8,507.6c0,0.1,0,0.1,0,0.1l0,0l0,0c-0.5,1-1.1,2-2,2.9
						c-0.1,0.1-0.3,0.4-0.5,0.5l0,0c-0.8,0.6-1.7,1.1-2.7,1.1c-0.8,0-1.5-0.4-2.2-0.9c-0.5-0.5-1-1.4-1.1-2.8v-0.1c0,0,0,0,0-0.1
						s0-0.3,0-0.3c0-1.3,0.4-2.4,0.9-3.4c0.8-1.1,1.7-1.8,2.9-1.8c0.9,0,1.7,0.5,1.9,1.3l0,0c0.1,0.1,0.1,0.4,0.1,0.5v0.1
						c0,1.4-0.9,2.5-2.5,3.2c-0.4,0.1-0.9,0.3-1.3,0.4c0.1,0.9,0.4,1.5,0.6,1.8c0.4,0.5,0.9,0.8,1.4,0.8c0.4,0,0.8-0.1,1.1-0.5l0,0
						c0.3-0.1,0.4-0.4,0.6-0.6c0.5-0.6,1.1-1.5,1.8-2.7l0,0l0,0l0,0l0,0l0,0l0,0l0,0l0,0l0,0l0,0l0,0l0,0l0,0l0,0l0,0l0,0l0,0l0,0
						l0,0c0,0,0,0,0.1,0l0,0C-32.8,507.5-32.8,507.5-32.8,507.6L-32.8,507.6L-32.8,507.6L-32.8,507.6z M-39.2,507.9
						c1.4-0.4,3.2-1.1,3.2-2.9c0-0.1,0-0.4-0.1-0.5l0,0c-0.1-0.3-0.4-0.5-0.8-0.5c-0.8,0-1.3,0.8-1.5,1.1
						C-39,506-39.2,507-39.2,507.9z"/>
					<path class="st11" d="M-23.3,507.7L-23.3,507.7L-23.3,507.7L-23.3,507.7c-0.1,0.9-0.6,2.2-1.3,3.2l0,0
						c-0.1,0.1-0.3,0.4-0.3,0.5l0,0c-0.4,0.6-0.9,1-1.4,1c-0.4,0-0.8-0.1-1.1-0.4c-0.8-0.9-0.8-2.7-0.6-4.5c0-1.3,0.1-2.7-0.3-3.1
						c0,0-0.1-0.1-0.3-0.1c-0.5,0-1,0.6-1.5,1.7c-0.8,1.7-1.3,3.9-1.3,5.9v0.1c0,0.1-0.1,0.4-0.4,0.4l0,0c-0.3,0-0.8-0.1-1-0.6
						c-1.3-1.8-0.9-7.1-0.5-8.5c0.1-0.4,0.8-0.5,1.1-0.4c0.5,0.1,0.8,0.5,0.6,0.9c-0.1,0.6-0.4,2.4-0.4,4.3c0,0.6,0,1.3,0,1.7
						c0.1-1.1,0.5-2.3,0.9-3.2c0.1-0.3,0.3-0.5,0.4-0.8c0.9-1.8,1.9-2.8,3.1-2.8c0.4,0,0.6,0.1,0.9,0.4c0.8,0.8,0.6,2.5,0.5,4.5
						c-0.1,1.4-0.1,2.9,0.3,3.4l0.1,0.1c0,0,0.1,0,0.3-0.3l0,0c0.1-0.1,0.3-0.4,0.4-0.5c0.1-0.1,0.3-0.4,0.4-0.6
						c0.4-0.9,0.6-1.8,0.8-2.2l0,0l0,0l0,0l0,0l0,0l0,0l0,0l0,0l0,0l0.1-0.1l0,0l0,0l0,0l0,0l0,0l0,0l0,0l0,0l0,0l0,0l0,0l0,0l0,0
						l0,0l0,0l0,0l0,0C-23.3,507.5-23.3,507.5-23.3,507.7C-23.3,507.6-23.3,507.6-23.3,507.7C-23.3,507.6-23.3,507.6-23.3,507.7z"/>
					<path class="st11" d="M-11.2,507.6L-11.2,507.6C-11.2,507.7-11.2,507.7-11.2,507.6C-11.2,507.7-11.2,507.7-11.2,507.6
						C-11.2,507.7-11.2,507.7-11.2,507.6C-11.2,507.7-11.2,507.7-11.2,507.6C-11.2,507.7-11.2,507.7-11.2,507.6c0,0.1,0,0.1,0,0.1
						l0,0c-0.1,0.4-0.8,1.5-1.5,2.4c0,0,0,0,0,0.1c-0.1,0.1-0.3,0.4-0.4,0.5c-0.9,1-1.7,1.5-2.3,1.5c-1.8,0-2.4-2.2-2.7-4.3
						c0,0.1-0.1,0.4-0.1,0.5l0,0c-0.1,0.3-0.3,0.5-0.3,0.8c-0.8,2-1.7,2.9-2.4,2.9c-0.8,0-1.5-0.4-2-1.3c-0.5-0.6-0.8-1.7-0.8-2.5
						c0-1.4,0.4-2.8,0.9-3.8c0.6-1.1,1.7-1.8,2.8-1.8c0.8,0,1.3,0.4,1.7,0.9l0,0c0,0.1,0.1,0.1,0.1,0.3c0.1-2.5,0.5-4.8,1.3-6.6
						c0.8-2,1.9-3.2,3.2-3.2c1.4,0,2.3,0.9,2.4,2.7l0,0c0,0,0,0,0,0.1l0,0c0,0,0,0,0,0.1c0,0,0,0,0,0.1c0,0,0,0,0,0.1
						c0,2.4-1.3,4.6-2,5.6c-0.6,0.9-1.4,1.7-2,2l0,0c-0.3,0.3-0.6,0.4-0.9,0.4c0,0.1,0,0.4,0,0.5c0,3.2,0.6,5.2,1.5,5.2
						c0.3,0,0.6-0.1,1.3-0.9l0,0c0.1-0.1,0.3-0.3,0.4-0.4l0.1-0.1c0.5-0.6,0.9-1.4,1.5-2.3l0,0l0,0l0,0l0,0l0.1-0.1l0,0l0,0l0,0l0,0
						l0,0l0,0l0,0l0,0l0,0l0,0l0,0l0,0l0,0l0,0l0,0l0,0C-11.3,507.5-11.2,507.5-11.2,507.6L-11.2,507.6L-11.2,507.6L-11.2,507.6
						L-11.2,507.6L-11.2,507.6z M-18.5,505.8v-0.1c0-0.4-0.5-1.8-1.1-1.8c-0.8,0-1.3,0.8-1.5,1.3c-0.5,0.9-0.6,2-0.6,3.3
						c0,1.7,0.5,2.7,0.9,2.7c0.1,0,0.3-0.1,0.5-0.3c0.5-0.5,1.1-1.8,1.5-2.8l0,0C-18.7,507.1-18.5,506.1-18.5,505.8L-18.5,505.8z
						 M-16.5,504.8c0.1,0,0.3-0.1,0.4-0.3l0,0c0.5-0.4,1.3-1.1,1.9-2c1.1-1.7,1.8-3.4,1.8-5v-0.1c0,0,0,0,0-0.1c0,0,0,0,0-0.1l0,0
						l0,0c0-0.6-0.3-1.5-0.9-1.5c-0.8,0-1.7,1.3-2.3,3.3C-16.2,500.5-16.5,502.6-16.5,504.8z"/>
					<path class="st11" d="M-4.7,507.6L-4.7,507.6C-4.7,507.7-4.7,507.7-4.7,507.6C-4.7,507.7-4.7,507.7-4.7,507.6
						C-4.7,507.7-4.7,507.7-4.7,507.6C-4.7,507.7-4.7,507.7-4.7,507.6C-4.7,507.7-4.7,507.7-4.7,507.6c0,0.1,0,0.1,0,0.1l0,0
						c-0.1,0.4-0.8,1.5-1.5,2.4c0,0,0,0,0,0.1c-0.1,0.3-0.3,0.4-0.4,0.5c-0.9,1-1.7,1.5-2.3,1.5c-2.5,0-2.9-4.5-2.9-7
						c0-3.1,0.4-5.9,1.3-7.9c0.8-2,1.9-3.2,3.2-3.2c1.4,0,2.3,0.9,2.4,2.7l0,0c0,0,0,0,0,0.1l0,0c0,0,0,0,0,0.1c0,0,0,0,0,0.1
						c0,0,0,0,0,0.1c0,2.4-1.3,4.6-2,5.6c-0.6,0.9-1.4,1.7-2,2l0,0c-0.3,0.3-0.6,0.4-0.9,0.4c0,0.1,0,0.4,0,0.5
						c0,3.2,0.6,5.2,1.5,5.2c0.3,0,0.6-0.1,1.3-0.9l0,0c0.1-0.1,0.3-0.3,0.4-0.4l0.1-0.1c0.5-0.6,0.9-1.4,1.5-2.3l0,0l0,0l0,0l0,0
						l0,0l0,0c0,0,0,0,0.1,0l0,0l0,0l0,0l0,0l0,0l0,0l0,0l0,0l0,0l0,0l0,0l0,0l0,0l0,0l0,0l0,0C-4.8,507.5-4.8,507.5-4.7,507.6
						L-4.7,507.6L-4.7,507.6L-4.7,507.6L-4.7,507.6L-4.7,507.6z M-10,504.8c0.1,0,0.3-0.1,0.4-0.3l0,0c0.5-0.4,1.3-1.1,1.9-2
						c1.1-1.7,1.8-3.4,1.8-5v-0.1c0,0,0,0,0-0.1c0,0,0,0,0-0.1l0,0l0,0c0-0.6-0.3-1.5-0.9-1.5c-0.8,0-1.7,1.3-2.3,3.3
						C-9.7,500.5-10,502.6-10,504.8z"/>
					<path class="st11" d="M4.3,508c-0.3,0.1-1,0.6-2,1.4c0.3,2.4,0.4,4.7,0.4,5.7c0,2.2-0.3,3.8-0.8,5c-0.8,1.5-1.9,2.3-3.6,2.3
						c-1,0-1.8-0.4-2.3-1.1c-0.1-0.1-0.3-0.4-0.4-0.6c-0.1-0.4-0.3-0.8-0.3-1.1c0-0.3,0-0.5,0-0.8l0,0c0-2.3,1.3-4.7,3.8-7.3
						c0.5-0.5,1-0.9,1.4-1.4c-0.1-1.3-0.4-2.5-0.5-3.7c-0.1,0.6-0.1,1.4-0.4,2c-0.1,0.6-0.3,1.3-0.5,1.7c-0.6,1.5-1.4,2.4-2.5,2.4
						c-0.5,0-0.9-0.3-1.1-0.6c-0.8-1-0.9-2.9-0.9-4.5c0-1.8,0.3-3.4,0.5-4.1c0.1-0.4,0.8-0.5,1.1-0.4c0.5,0.1,0.8,0.5,0.6,0.9
						c-0.4,1.3-0.8,6,0.1,7.3c0.1,0.3,0.3,0.3,0.4,0.3c0.5,0,0.9-0.5,1.1-1.3c0.1-0.3,0.3-0.6,0.3-0.9c0.4-1.7,0.5-3.4,0.6-4.5
						c0-0.4,0-0.6,0-0.8c0-0.3,0.1-0.5,0.3-0.6c0.3-0.3,0.8-0.4,1.1-0.4c0.3,0.1,0.5,0.3,0.5,0.5c0.4,1.4,0.6,3.3,0.9,5.3
						c0.9-0.6,1.5-1,1.8-1.1c0.1-0.1,0.4,0,0.5,0.1C4.5,507.6,4.5,507.9,4.3,508z M0.8,514.2c0-0.8-0.1-2-0.3-3.6
						c-0.4,0.3-0.8,0.6-1,1c-2.4,2.4-3.6,4.7-3.6,6.8c0,0.1,0,0.4,0.1,0.8s0.3,0.9,0.5,1.3c0.3,0.5,0.8,0.6,1.3,0.6
						c1.3,0,2-0.8,2.5-2.4C0.8,517.4,0.8,515.5,0.8,514.2z"/>
				</g>
				<g>
					<path class="st11" d="M-151.8,478.3c-0.8-0.9-2.9-3.9-6.6-9c-1,1.3-2.8,3.8-5.5,7.6l-1,1.4h-3.2c0.8-0.9,1.9-2.3,3.2-3.9
						c1.4-1.8,2.3-2.9,2.8-3.6c0.4-0.5,1.3-1.7,2.4-3.2c-4.2-5.7-6.8-9.2-7.6-10.3h3.9l5.9,8.3c1.8-2.3,3.8-5.1,6-8.3h3.1
						c-2,2.5-4.7,5.9-7.6,10.1c4.2,5.9,6.9,9.6,8.2,11L-151.8,478.3L-151.8,478.3z"/>
					<path class="st11" d="M-145.3,470.7c1-0.9,2.4-1.3,4.2-1.3c0.8,0,1.4,0.1,2.2,0.3c0.8,0.1,1.3,0.5,1.9,0.8v-0.9
						c-0.1-3.2-1.3-4.7-3.6-4.7c-0.8,0-1.3,0.1-1.7,0.5c-0.4,0.4-0.6,0.6-0.9,1c-0.1,0.3-0.3,0.5-0.4,0.6c-0.3,0.1-0.5,0.1-0.8,0.1
						c-0.4,0-0.8-0.1-1-0.3c-0.3-0.1-0.4-0.5-0.4-0.8c0-0.4,0.3-0.8,0.6-1.1c0.4-0.4,1-0.8,1.8-1s1.7-0.4,2.8-0.4
						c2,0,3.6,0.5,4.7,1.7c1.1,1.1,1.8,2.7,1.8,4.6c0,1.4,0,2.5,0.1,3.3v0.8c0,0.8,0.1,1.4,0.3,1.8s0.3,0.8,0.6,0.9
						c0.3,0.3,0.8,0.3,1.3,0.3v1.4c-0.4,0.3-1,0.4-1.8,0.4c-1.5,0-2.4-0.9-2.8-2.7c-0.4,0.8-1.1,1.5-1.9,2c-0.9,0.5-1.8,0.8-2.9,0.8
						c-0.9,0-1.8-0.1-2.5-0.5c-0.8-0.4-1.5-0.9-2-1.5c-0.5-0.6-0.8-1.5-0.8-2.4C-146.8,472.7-146.3,471.6-145.3,470.7z M-142.9,476
						c0.6,0.5,1.4,0.9,2.4,0.9c0.6,0,1.1-0.1,1.7-0.5c0.5-0.4,1-0.8,1.3-1.3c0.4-0.5,0.5-1.1,0.5-1.8v-1.4c-1-0.8-2.2-1.1-3.4-1.1
						c-1.1,0-1.9,0.3-2.4,0.8c-0.5,0.5-0.9,1.3-0.9,2.2C-143.9,474.6-143.5,475.5-142.9,476z"/>
					<path class="st11" d="M-129.3,467.1c0.6-1.1,1.5-2,2.5-2.7c1.1-0.6,2.3-1,3.7-1c1,0,1.9,0.1,2.8,0.5s1.5,0.8,2,1.3
						c0.5,0.5,0.9,1,1,1.7c0,0.1,0,0.1,0,0.3c0,0.4-0.1,0.6-0.4,0.8c-0.3,0.3-0.5,0.4-0.9,0.4c-0.1,0-0.4,0-0.6,0s-0.4,0-0.6,0
						c-0.4-1-0.9-1.9-1.5-2.5c-0.6-0.6-1.4-0.9-2.2-0.9c-1.1,0-2.2,0.5-2.8,1.5c-0.6,1-1.1,2.4-1.1,4.1c0,1.1,0.3,2.3,0.6,3.2
						c0.4,0.9,1,1.7,1.8,2.2c0.8,0.5,1.7,0.8,2.7,0.8c0.8,0,1.5-0.3,2.3-0.6c0.8-0.4,1.4-0.9,1.8-1.5c0.3,0,0.5,0.1,0.6,0.3
						c0.1,0.1,0.3,0.4,0.3,0.6c0,0.5-0.4,1-0.9,1.5c-0.5,0.5-1.1,0.9-2,1.3s-1.8,0.5-2.8,0.5c-1.4,0-2.5-0.4-3.7-1
						c-1.1-0.6-2-1.7-2.7-2.8c-0.6-1.1-1-2.4-1-3.9C-130.2,469.5-129.9,468.3-129.3,467.1z"/>
					<path class="st11" d="M-113.1,470.7c1-0.9,2.4-1.3,4.2-1.3c0.8,0,1.4,0.1,2.2,0.3c0.8,0.1,1.3,0.5,1.9,0.8v-0.9
						c-0.1-3.2-1.3-4.7-3.6-4.7c-0.8,0-1.3,0.1-1.7,0.5c-0.4,0.4-0.6,0.6-0.9,1c-0.1,0.3-0.3,0.5-0.4,0.6c-0.3,0.1-0.5,0.1-0.8,0.1
						c-0.4,0-0.8-0.1-1-0.3c-0.3-0.1-0.4-0.5-0.4-0.8c0-0.4,0.3-0.8,0.6-1.1c0.4-0.4,1-0.8,1.8-1s1.7-0.4,2.8-0.4
						c2,0,3.6,0.5,4.7,1.7c1.1,1.1,1.8,2.7,1.8,4.6c0,1.4,0,2.5,0.1,3.3v0.8c0,0.8,0.1,1.4,0.3,1.8s0.3,0.8,0.6,0.9
						c0.3,0.3,0.8,0.3,1.3,0.3v1.4c-0.4,0.3-1,0.4-1.8,0.4c-1.5,0-2.4-0.9-2.8-2.7c-0.4,0.8-1.1,1.5-1.9,2c-0.9,0.5-1.8,0.8-2.9,0.8
						c-0.9,0-1.8-0.1-2.5-0.5c-0.8-0.4-1.5-0.9-2-1.5c-0.5-0.6-0.8-1.5-0.8-2.4C-114.6,472.7-114.1,471.6-113.1,470.7z M-110.7,476
						c0.6,0.5,1.4,0.9,2.4,0.9c0.6,0,1.1-0.1,1.7-0.5c0.5-0.4,1-0.8,1.3-1.3c0.4-0.5,0.5-1.1,0.5-1.8v-1.4c-1-0.8-2.2-1.1-3.4-1.1
						c-1.1,0-1.9,0.3-2.4,0.8c-0.5,0.5-0.9,1.3-0.9,2.2C-111.7,474.6-111.3,475.5-110.7,476z"/>
					<path class="st11" d="M-93.7,475.9c0.1,0.4,0.4,0.6,0.6,0.8c0.3,0.1,0.6,0.1,1.1,0.1v1.4c-0.5,0.3-1.1,0.4-1.8,0.4
						c-1,0-1.8-0.4-2.3-1.1c-0.5-0.8-0.8-1.8-0.8-3.1v-14.9c0-0.8-0.1-1.3-0.1-1.7c-0.1-0.4-0.3-0.6-0.4-0.9c0-0.6,0.9-1,2.7-1
						c0.6,0,0.9,0.1,0.9,0.4v0.5c0,3.7-0.1,7.3-0.1,11v6.2C-94,474.9-93.9,475.5-93.7,475.9z"/>
					<path class="st11" d="M-85.4,475.9c0.1,0.4,0.4,0.6,0.6,0.8c0.3,0.1,0.6,0.1,1.1,0.1v1.4c-0.5,0.3-1.1,0.4-1.8,0.4
						c-1,0-1.8-0.4-2.3-1.1c-0.5-0.8-0.8-1.8-0.8-3.1v-14.9c0-0.8-0.1-1.3-0.1-1.7c-0.1-0.4-0.3-0.6-0.4-0.9c0-0.6,0.9-1,2.7-1
						c0.6,0,0.9,0.1,0.9,0.4v0.5c0,3.7-0.1,7.3-0.1,11v6.2C-85.7,474.9-85.6,475.5-85.4,475.9z"/>
					<path class="st11" d="M-80.4,478.3c0-2,0.1-5.7,0.1-11.2c0-0.8-0.1-1.3-0.1-1.7c-0.1-0.4-0.3-0.6-0.4-0.9c0-0.6,0.9-1,2.7-1
						c0.6,0,0.9,0.1,0.9,0.4v0.5c0,0.8,0,2.8,0,6c0,4.1,0,6.8,0,7.9L-80.4,478.3L-80.4,478.3z M-80.2,457.7c0.4-0.3,0.9-0.4,1.4-0.4
						c0.5,0,0.9,0.1,1.3,0.4c0.4,0.3,0.5,0.6,0.5,1.3c0,0.5-0.1,0.9-0.5,1.1c-0.4,0.3-0.8,0.4-1.4,0.4c-0.5,0-1-0.1-1.4-0.4
						c-0.4-0.3-0.5-0.6-0.5-1.1C-80.7,458.3-80.6,457.9-80.2,457.7z"/>
					<path class="st11" d="M-53.7,458.2c1.3,0.6,2.3,1.4,3.1,2.5c0.8,1.1,1,2.3,1,3.7c0,1.4-0.4,2.7-1,3.7c-0.6,1-1.7,1.9-2.9,2.4
						c-1.3,0.6-2.8,0.9-4.5,0.9H-62c0,3.7,0,6,0,6.9h-3.2c0-0.6,0-4.2,0-10.7s0-9.9,0-10.3h7C-56.5,457.3-55,457.6-53.7,458.2z
						 M-58.1,469.4c1.5,0,2.8-0.4,3.7-1.3c0.9-0.9,1.4-2,1.4-3.6c0-1.7-0.5-3.1-1.5-3.9s-2.4-1.4-4.2-1.4H-61c-0.4,0-0.6,0-0.8,0.1
						c-0.1,0-0.3,0.1-0.4,0.4c0,1.5,0,4.8,0,9.6c0.5,0.1,1.3,0.3,2.3,0.3h1.8V469.4z"/>
					<path class="st11" d="M-46.5,476.5c-1.3-1.4-1.9-3.3-1.9-5.6c0-1.4,0.3-2.8,0.9-3.8c0.6-1.1,1.5-2,2.7-2.7c1.1-0.6,2.4-1,3.8-1
						c2.3,0,4.1,0.6,5.3,2c1.3,1.4,1.9,3.2,1.9,5.6c0,1.4-0.3,2.8-0.9,3.8c-0.6,1.1-1.5,2-2.5,2.7c-1.1,0.6-2.4,1-3.8,1
						C-43.4,478.7-45.2,477.9-46.5,476.5z M-37.8,475.6c0.6-1,1-2.3,1-3.8c0-1.4-0.3-2.7-0.6-3.7c-0.4-1-1-1.8-1.8-2.4
						c-0.8-0.5-1.5-0.8-2.4-0.8c-1.1,0-2,0.5-2.8,1.5c-0.6,1-1,2.3-1,3.8c0,1.4,0.3,2.7,0.6,3.7c0.4,1,1,1.8,1.8,2.3
						c0.8,0.5,1.5,0.8,2.5,0.8C-39.3,477.2-38.5,476.7-37.8,475.6z"/>
					<path class="st11" d="M-28.8,477.9c-0.9-0.4-1.5-0.9-2-1.5c-0.4-0.5-0.6-1-0.6-1.4c0-0.5,0.1-0.9,0.5-1.1
						c0.4-0.3,0.8-0.4,1.3-0.4c0.1,0,0.4,0,0.8,0.1c0.4,1.1,0.9,1.9,1.5,2.5c0.8,0.6,1.5,0.9,2.4,0.9c0.9,0,1.5-0.1,2-0.5
						c0.5-0.4,0.8-0.9,0.8-1.5c0-0.8-0.4-1.4-1-1.9s-1.7-1-2.9-1.4c-1.5-0.5-2.8-1-3.6-1.7c-0.9-0.6-1.3-1.5-1.3-2.7
						c0-1.1,0.5-2.2,1.5-2.9s2.4-1.1,4.1-1.1c1.4,0,2.5,0.1,3.4,0.5c0.9,0.4,1.4,0.8,1.8,1.3c0.4,0.5,0.5,0.9,0.5,1.3
						c0,0.4-0.1,0.8-0.5,0.9c-0.4,0.1-0.8,0.3-1.3,0.3c-0.1,0-0.4,0-0.6,0c-0.6-1.9-1.8-2.8-3.4-2.8c-0.8,0-1.4,0.1-1.9,0.5
						s-0.8,0.9-0.8,1.4c0,0.6,0.1,1,0.5,1.4c0.4,0.4,0.8,0.6,1.1,0.8c0.4,0.1,1.1,0.4,2.3,0.8c1.7,0.5,2.8,1.1,3.7,1.8
						c0.8,0.6,1.3,1.7,1.3,2.8c0,1.3-0.5,2.4-1.7,3.2c-1.1,0.8-2.5,1.1-4.3,1.1C-26.7,478.7-27.9,478.4-28.8,477.9z"/>
					<path class="st11" d="M-15.5,470.7c1-0.9,2.4-1.3,4.2-1.3c0.8,0,1.4,0.1,2.2,0.3c0.8,0.1,1.3,0.5,1.9,0.8v-0.9
						c-0.1-3.2-1.3-4.7-3.6-4.7c-0.8,0-1.3,0.1-1.7,0.5c-0.4,0.4-0.6,0.6-0.9,1c-0.1,0.3-0.3,0.5-0.4,0.6c-0.3,0.1-0.5,0.1-0.8,0.1
						c-0.4,0-0.8-0.1-1-0.3c-0.3-0.1-0.4-0.5-0.4-0.8c0-0.4,0.3-0.8,0.6-1.1c0.4-0.4,1-0.8,1.8-1c0.8-0.3,1.7-0.4,2.8-0.4
						c2,0,3.6,0.5,4.7,1.7c1.1,1.1,1.8,2.7,1.8,4.6c0,1.4,0,2.5,0.1,3.3v0.8c0,0.8,0.1,1.4,0.3,1.8c0.1,0.4,0.3,0.8,0.6,0.9
						c0.3,0.3,0.8,0.3,1.3,0.3v1.4c-0.4,0.3-1,0.4-1.8,0.4c-1.5,0-2.4-0.9-2.8-2.7c-0.4,0.8-1.1,1.5-1.9,2c-0.9,0.5-1.8,0.8-2.9,0.8
						c-0.9,0-1.8-0.1-2.5-0.5c-0.8-0.4-1.5-0.9-2-1.5c-0.5-0.6-0.8-1.5-0.8-2.4C-16.9,472.7-16.4,471.6-15.5,470.7z M-13,476
						c0.6,0.5,1.4,0.9,2.4,0.9c0.6,0,1.1-0.1,1.7-0.5c0.5-0.4,1-0.8,1.3-1.3c0.4-0.5,0.5-1.1,0.5-1.8v-1.4c-1-0.8-2.2-1.1-3.4-1.1
						c-1.1,0-1.9,0.3-2.4,0.8c-0.5,0.5-0.9,1.3-0.9,2.2C-14,474.6-13.6,475.5-13,476z"/>
					<path class="st11" d="M0.5,466.9c0.5-1.1,1.3-2,2.3-2.7c1-0.6,2.2-0.9,3.4-0.9c0.6,0,1.4,0.1,2,0.4c0.8,0.3,1.4,0.5,2,0.9v-5.1
						c0-0.8,0-1.3-0.1-1.7c-0.1-0.4-0.3-0.6-0.4-0.9c0-0.6,0.9-1,2.7-1c0.6,0,0.9,0.1,0.9,0.4v0.5c0,1.8,0,4.6,0,8.4
						c0,3.8,0,6.8,0,8.7c0,0.8,0.1,1.4,0.3,1.9c0.1,0.4,0.4,0.6,0.6,0.8c0.3,0.1,0.6,0.1,1,0.1v1.4c-0.5,0.3-1.1,0.4-1.8,0.4
						c-0.8,0-1.4-0.3-1.9-0.8s-0.8-1.3-0.9-2.3c-0.5,1-1.1,1.8-1.9,2.3c-0.8,0.5-1.8,0.8-2.7,0.8c-1.1,0-2.3-0.4-3.3-1
						c-1-0.6-1.8-1.5-2.3-2.8c-0.5-1.1-0.8-2.5-0.8-4.1C-0.4,469.3,0,468,0.5,466.9z M4,475.1c0.8,1.1,1.8,1.7,3.1,1.7
						c0.6,0,1.1-0.3,1.8-0.6c0.5-0.4,1-1,1.3-1.8s0.5-1.7,0.5-2.7v-5.3c-0.4-0.4-1-0.8-1.7-1c-0.8-0.3-1.4-0.4-2-0.4
						c-1.1,0-2,0.5-2.8,1.5c-0.6,1-1,2.4-1,4.2C2.8,472.6,3.2,474,4,475.1z"/>
					<path class="st11" d="M19.4,470.7c1-0.9,2.4-1.3,4.2-1.3c0.8,0,1.4,0.1,2.2,0.3c0.8,0.1,1.3,0.5,1.9,0.8v-0.9
						c-0.1-3.2-1.3-4.7-3.6-4.7c-0.8,0-1.3,0.1-1.7,0.5c-0.4,0.4-0.6,0.6-0.9,1c-0.1,0.3-0.3,0.5-0.4,0.6c-0.3,0.1-0.5,0.1-0.8,0.1
						c-0.4,0-0.8-0.1-1-0.3c-0.3-0.1-0.4-0.5-0.4-0.8c0-0.4,0.3-0.8,0.6-1.1c0.4-0.4,1-0.8,1.8-1c0.8-0.3,1.7-0.4,2.8-0.4
						c2,0,3.6,0.5,4.7,1.7c1.1,1.1,1.8,2.7,1.8,4.6c0,1.4,0,2.5,0.1,3.3v0.8c0,0.8,0.1,1.4,0.3,1.8c0.1,0.4,0.3,0.8,0.6,0.9
						c0.3,0.3,0.8,0.3,1.3,0.3v1.4c-0.4,0.3-1,0.4-1.8,0.4c-1.5,0-2.4-0.9-2.8-2.7c-0.4,0.8-1.1,1.5-1.9,2c-0.9,0.5-1.8,0.8-2.9,0.8
						c-0.9,0-1.8-0.1-2.5-0.5c-0.8-0.4-1.5-0.9-2-1.5c-0.5-0.6-0.8-1.5-0.8-2.4C17.8,472.7,18.4,471.6,19.4,470.7z M21.8,476
						c0.6,0.5,1.4,0.9,2.4,0.9c0.6,0,1.1-0.1,1.7-0.5c0.5-0.4,1-0.8,1.3-1.3c0.4-0.5,0.5-1.1,0.5-1.8v-1.4c-1-0.8-2.2-1.1-3.4-1.1
						c-1.1,0-1.9,0.3-2.4,0.8c-0.5,0.5-0.9,1.3-0.9,2.2S21.2,475.5,21.8,476z"/>
				</g>
				<g>
					<g>
						<g>
							<g>
								<path class="st11" d="M-89.1,383.9c0.9-0.5,2-0.8,3.2-0.8c1.1,0,2.3,0.4,3.2,0.9c1,0.5,1.9,1.3,2.5,2.3c0.6,0.9,1,2,1.1,3.1
									c0,0.3-0.3,0.5-0.5,0.5c-0.3,0-0.4-0.1-0.5-0.3l0,0c-0.4-0.9-0.9-1.7-1.5-2.3c-0.6-0.6-1.3-1.1-2-1.7
									c-0.8-0.4-1.7-0.8-2.4-0.9c-0.9-0.1-1.8-0.1-2.7,0l0,0c-0.3,0-0.5-0.1-0.6-0.5C-89.4,384.3-89.4,384.1-89.1,383.9z"/>
							</g>
							<g>
								<path class="st11" d="M-19.6,401.4c0.3-0.5,0.8-1,1.3-1.3c0.5-0.3,1.1-0.5,1.8-0.5s1.3,0.1,1.8,0.4s1,0.6,1.4,1.1
									c0.1,0.1,0,0.3-0.1,0.4c-0.1,0.1-0.3,0-0.3,0l0,0c-0.4-0.3-0.9-0.5-1.3-0.6c-0.5-0.1-0.9-0.1-1.4-0.1
									c-0.5,0-0.9,0.1-1.4,0.3c-0.5,0.1-0.9,0.4-1.3,0.8l0,0c-0.1,0.1-0.3,0.1-0.4,0C-19.6,401.6-19.6,401.5-19.6,401.4z"/>
							</g>
							<line class="st11" x1="-23.6" y1="415.8" x2="-11.8" y2="408.4"/>
							<line class="st11" x1="-21.9" y1="417.2" x2="-10" y2="409.8"/>
						</g>
					</g>
					<path class="st11" d="M-49.5,381.4c-3.2-1.4-6.1-2.9-9.3-4.1c-2.2-0.8-6.4-1.5-8.5,0.3c-1,0.9-2.5,3.4-4.3,3.3
						c-2-0.3-3.9-4.1-5.7-4.6c-2.5-0.6-5.1-1.4-7.5-2.5c-0.9-0.4-2.5,0-3.2,0.6c-5.2,6-10.8,2.8-16.4,0.9c-3.6-1.1-6.6-1.7-9.6,1.8
						c-1.5,1.8-3.8,3.6-6.4,3.3c-5.5-0.5-6,2.3-5.9,6.8c0.8,23.1,23.9,34.5,39.9,23.6c1.1-0.8,2.7-2.7,3.8-0.6
						c1.1,1.9-1.3,2.5-2.4,3.3c-3.9,2.5-8.2,4.5-13,4.7c-2,0.1-4.1,0.8-4.3,3.3c-0.4,2.8,2.2,2.3,3.6,2.9c4.6,1.9,8.4,4.8,9.6,9.6
						c1.4,5.6,5.5,3.9,9,4.3c3.6,0.4,6.1,0,7.5-4.3c1.5-4.7,5.1-8.3,10.2-9.8c1.3-0.4,2.5-0.9,3.7-1.5c8.2-4.8,8.2-4.8,1.5-11.2
						c-4.2-4.1-8.3-8.2-9.8-14c-1.1-4.1-0.9-8,2.3-11.2c3.1-2.9,6.5-2.5,10.6-1.8c5.2,0.9,10.8-0.1,15.2-3.8
						c3.1-2.5,6.1-5.1,10.2-6.1c2.7-0.6,5.2-2,5.7,2.5c0.3,2.4,2.5,2.2,3.6,1.1c5.3-5.5,7,0.3,6.8,3.1c-0.9,7.5,3.1,13,5.5,19.4
						c0.6,1.8,1.3,3.6,2.7,4.5c5.7,3.6,3.8,7.3,0.8,11.5c-6.8,8.8-16.2,11.8-28,8.8c-4.7-1.3-9.4-2.8-13.6-5.2
						c-2.4-1.4-4.2-0.5-5.7,1.5c-1.8,2.5,0.4,3.4,2,4.5c2.5,1.5,5.2,3.6,5.7,6.2c1.3,7,6.2,6.2,11.1,6.2c6-0.1,12.1-0.3,18.1,0.1
						c4.6,0.3,6.8-1,6.1-5.9c-0.1-1.3,0-2.7,0.1-3.9c0.1-1.1,0.8-2,2.2-1.9c1.3,0.1,1.1,1.3,1.1,2c0.4,4.8,0.1,12.5,0.1,12.5
						s-6.4-0.1-10.2-0.1c-4.8,0-9.8,0.5-14.6,0c-8.9-1-16.6,2.8-24.5,5.6c-6.8,2.3-11.8-1.9-17.4-3.7c-6.6-2.2-12.5-2.7-19,0.5
						c-11.2,5.5-22.3,3.3-32.9-2.5c-0.5-0.3-1.4-0.5-1.4-0.5v-2.8c0,0,0-15.9,0.8-24.1c5.7,5.2,1.1,12.6,3.9,19.1
						c3.7-3.7,7.4-7,12.1-9c3.6-1.5,2.9-5.6-0.6-7c-21.8-8.5-23.8-30.4-17.8-46.7c1-2.7,2.5-3.7,5.6-2.7c7.1,2.5,14.4,4.6,21.5,6.9
						c2.2,0.6,4.5,1.7,6.4,0c6.4-5.3,12.5-3.2,18.5,0.5c2.2,1.3,3.8,1.7,6.1,0.5c8-4.1,13.6,1,19.5,4.6
						C-49,380.1-49.3,380.8-49.5,381.4z M-21.8,422.8c2.3-0.5,5.3-1,8.3-2.2c4.6-1.8,7.8-5.2,9.7-9.7c1.7-3.9-3.2-4.8-4.2-7.6
						c-0.6-1.7-1.5-3.2-2-4.8c-1-3.3-2.7-6-5.9-7.8c-4.6-2.4-7.4-6.2-8.9-11.2c-0.4-1.4-0.4-3.2-2.5-3.4c-4.1-0.5-10.7,6.4-9.7,10.4
						c2.3,9.3-0.3,17.7-5,25.3c-2,3.4-1.5,4.1,1.5,5.7C-34.8,420.9-28.8,422-21.8,422.8z M-39,392c-0.1-2.3,0.3-5.2-3.1-6.2
						c-2.9-1-5.3,0.3-6.6,2.9c-1.3,2.5-2.3,2.3-3.7,0.3c-2-2.8-4.8-4.5-7.9-2.3c-3.2,2.2-3.9,5.6-2.7,9.4c2.2,6.4,6.9,10.7,11.7,15
						c3.1,2.7,5.1,1.7,7-1.1C-40.5,404.7-39.6,398.6-39,392z M-48.5,440.9c4.5,0.3,6.1-2.2,4.5-6.8c-3.2-8.8-16.4-11.1-22.5-3.8
						c-2,2.4-3.3,5.3-2.4,8.5c0.9,3.2,3.6,1.4,5.6,1.8c1,0.1,1.9,1,2.7,1.7c2.7,1.9,5.5,2,7.8-0.4
						C-51.6,440.2-50.3,439.8-48.5,440.9z M-95.6,441.4c4.5,0.3,6.1-2.2,4.5-6.8c-3.2-8.8-16.4-11.1-22.5-3.8
						c-2,2.4-3.3,5.3-2.4,8.5s3.6,1.4,5.6,1.8c1,0.1,1.9,1,2.7,1.7c2.7,1.9,5.5,2,7.8-0.4C-98.6,440.7-97.3,440.4-95.6,441.4z
						 M-120.7,376.8c3.1-0.1,6.6-1.3,6.8-4.1c0.1-3.2-4.2-2.5-6.5-2.9c-3.1-0.6-2.9,2.7-3.4,4.5
						C-124.6,376.7-122.8,377.1-120.7,376.8z M-21,383.2c1.1,4.3,6.8,3.9,6.8,3.9v-7.9C-19.6,379.5-21,383.2-21,383.2z"/>
					<path class="st11" d="M-62,319.2c16.4,9.8,33.6,18.2,50.6,26.7c4.3,2.2,6.1,4.7,6,9.7c-0.4,11.1-0.1,22.2-0.1,34.3
						c-2.9-3.1-2.7-5.9-2.7-8.7c0-8.7-0.1-17.3,0-26.1c0.1-3.6-1.1-5.7-4.3-7.4c-15-7.6-29.9-15.5-44.8-23.4
						c-3.7-1.9-7-1.9-10.7-0.1c-16.3,8-32.6,16.3-49,23.9c-4.5,2-3.7,5.3-3.8,8.8c-0.1,1.4,1.1,4.1-1.7,3.9c-2.4,0-1.8-2.5-2-4.2
						c-0.8-5.5,0.9-8.8,6.5-11.2c16.3-7.1,32.1-15.2,48.1-22.9c1.9-0.9,4.2-1.5,5.5-3.6C-63.8,319.2-62.9,319.2-62,319.2z"/>
				</g>
			</g>
		</g>
		<g id="_x34_04-D3" class="st0">
		</g>
		<g id="_x34_04-D4" class="st0">
		</g>
		<g id="CRM-D1">
		</g>
		<g id="CRM-R1" class="st0">
		</g>
		<g id="Mes-D1" class="st0">
		</g>
		<g id="Mes-R1" class="st0">
		</g>
		<g id="Mes-D2" class="st0">
		</g>
		<g id="Mes-R2" class="st0">
		</g>
		<g id="Reg-D1">
		</g>
		<g id="Reg-R1">
		</g>
		<g id="Regla_All" class="st0">
		</g>
		<g id="Colors" class="st0">
		</g>
	</g>
</g>
</svg>
